<svg width="249" height="90" viewBox="0 0 249 90" fill="none" xmlns="http://www.w3.org/2000/svg">
    <g clip-path="url(#clip0_1401_72)">
        <path d="M35.4868 80.5986C35.6561 80.7342 35.8311 80.8651 36.0132 80.9893L36.0259 80.998L36.0396 81.0068C36.6553 81.4127 37.3173 81.7262 38.0161 81.958C32.2678 83.7397 25.7867 84.5546 19.2183 82.4102C20.7182 82.2924 22.1757 81.9903 23.5854 81.498L23.5845 81.4971C23.6462 81.4758 23.7077 81.4526 23.769 81.4307C27.7973 82.0226 31.7541 81.5693 35.4868 80.5986ZM4.84717 61.959C4.88613 62.181 4.92577 62.4025 4.96826 62.623C6.24716 69.2612 9.1317 75.0686 15.5347 78.626C16.8389 79.3505 18.1476 79.9276 19.4536 80.3789C18.9028 80.4358 18.3441 80.4678 17.7778 80.4678C16.3878 80.4677 15.0623 80.2881 13.8013 79.9297C8.85854 76.9364 5.97129 72.6642 4.29346 67.8594C4.27116 67.5564 4.25608 67.2492 4.24951 66.9375L4.24561 66.5449C4.24561 64.9428 4.44677 63.4143 4.84717 61.959ZM52.6382 75.4189C52.1283 75.7098 51.6077 76.02 51.0767 76.3496L51.0337 76.376L50.9897 76.3975C49.8896 76.9368 48.689 77.5348 47.4028 78.1514L47.4663 77.6709C47.2725 77.9416 47.0611 78.1908 46.8354 78.4219C45.4154 79.0942 43.8962 79.7782 42.2964 80.4229C42.0007 80.4505 41.6988 80.4678 41.3911 80.4678L41.0776 80.4639C39.9456 80.4316 38.9418 80.2217 38.0649 79.8369C42.5658 78.3655 46.6649 76.2909 50.064 74.624C51.0689 74.0015 52.0419 73.4452 52.9829 72.9492L52.6382 75.4189ZM95.2456 64.5195C97.2433 64.9191 98.815 65.6821 99.897 66.6846L98.7026 75.3115C98.021 75.7714 97.2362 76.158 96.3657 76.4482C91.8184 77.9639 86.2869 77.5651 80.1948 75.7461C80.1651 75.5546 80.1411 75.3579 80.1284 75.1553L80.1147 74.6963C80.1147 73.8794 80.2383 73.1336 80.4849 72.459C82.2624 73.0458 83.9196 73.4746 85.4897 73.7539C85.443 73.9509 85.4185 74.1607 85.4185 74.3838L85.4302 74.6484C85.487 75.2455 85.7439 75.704 86.1987 76.0225L86.4097 76.1504C86.846 76.3892 87.3633 76.5255 87.9604 76.5596L88.2651 76.5684C89.175 76.5684 90.0057 76.3885 90.7563 76.0303L91.0737 75.8662C91.8016 75.434 92.4202 74.882 92.9292 74.2109L93.1401 73.916C93.15 73.9014 93.1587 73.8857 93.1685 73.8711C93.7182 73.7794 94.2634 73.6659 94.8062 73.5303C96.1858 73.1854 97.1691 72.6411 97.7681 72.0615C98.3595 71.4891 98.5455 70.923 98.4927 70.4375C98.4386 69.9403 98.1086 69.3004 97.2065 68.6504C96.3033 67.9997 94.8879 67.3905 92.8521 66.9805C92.7243 66.9547 92.5981 66.9274 92.4731 66.8994L94.7749 66.5352L94.856 65.96C94.947 65.3456 94.8691 64.8209 94.6216 64.3857L94.6177 64.3799C94.8228 64.4284 95.0317 64.4767 95.2456 64.5195ZM87.5786 74.0439C88.42 74.125 89.2386 74.1588 90.0405 74.1484C89.5456 74.4156 88.9688 74.5684 88.2651 74.5684C87.8411 74.5683 87.5807 74.4946 87.4204 74.4189C87.42 74.4084 87.4185 74.3966 87.4185 74.3838C87.4185 74.2348 87.4455 74.1774 87.4507 74.167C87.4541 74.1602 87.4726 74.1211 87.562 74.0566L87.5786 74.0439ZM75.7222 70.6387C76.7163 71.0638 77.674 71.4484 78.5991 71.7939C78.397 72.3523 78.2601 72.9359 78.1851 73.54L77.4751 73.6592C77.2363 73.699 77.0325 73.7282 76.8628 73.749H76.2827C75.8069 73.749 75.5244 73.6949 75.3765 73.6504C75.3612 73.4914 75.3591 73.2294 75.4155 72.834L75.4165 72.8281L75.7222 70.6387ZM62.2778 71.6729C60.6675 71.9649 58.8808 72.4796 56.9019 73.3057L57.3901 69.8125C59.3513 69.0098 61.1384 68.5025 62.7612 68.2148L62.2778 71.6729ZM68.8696 68.123C71.1454 68.4984 72.8074 69.2837 73.8218 69.7803L73.4351 72.5508C73.4006 72.7919 73.3803 73.0188 73.3716 73.2314C73.1297 73.1269 72.8861 73.0221 72.6431 72.9141C71.4823 72.3982 70.0823 71.8774 68.3872 71.5879L68.8696 68.123ZM52.9985 72.8379C52.9455 72.7988 52.892 72.7567 52.8423 72.707C52.4864 72.3511 52.2612 71.9766 52.147 71.5615C52.0687 71.2771 52.0525 71.0009 52.0493 70.7852V70.4004H48.2153L48.4976 68.4004H52.0493V68.2422L52.9937 68.1914H52.9888C52.9899 68.1913 52.9947 68.191 53.0015 68.1904C53.0154 68.1892 53.0406 68.1869 53.0747 68.1826C53.1441 68.1739 53.2506 68.1576 53.3804 68.1289C53.4687 68.1094 53.5654 68.0828 53.6675 68.0518L52.9985 72.8379ZM66.8784 67.9229L66.3979 71.375C65.8584 71.3507 65.2934 71.3501 64.7026 71.3818C64.5811 71.3884 64.4585 71.399 64.3345 71.4082L64.8169 67.958C65.5424 67.9046 66.229 67.8961 66.8784 67.9229ZM46.478 68.4004L46.1958 70.4004H41.6694L41.9497 68.4004H46.478ZM40.769 62.4004H39.1743C39.7609 62.7086 40.2484 63.179 40.5796 63.751L39.9839 68.0137C39.8374 68.1556 39.6788 68.2856 39.5093 68.4004H39.9302L39.6509 70.4004H34.4917L34.7729 68.4004H35.5894C35.3179 68.2166 35.0745 67.9949 34.8647 67.7441L35.5874 62.6035C35.6957 62.53 35.8078 62.4616 35.9243 62.4004H35.6167L35.8979 60.4004H41.0483L40.769 62.4004ZM32.1616 68.4004C32.0589 69.0955 31.9157 69.7622 31.7319 70.4004H26.3628C26.5962 69.7816 26.7513 69.1207 26.8267 68.417L26.8286 68.4004H32.1616ZM24.2163 70.2998C24.1983 70.3337 24.1792 70.3669 24.1606 70.4004H20.7495C20.4067 70.4004 20.072 70.3656 19.7485 70.2998H24.2163ZM25.6157 63.8154C25.8912 64.3153 26.0493 64.8888 26.0493 65.5C26.0493 66.6451 25.4991 67.6612 24.6489 68.2998H20.4507C19.6003 67.6613 19.0493 66.6453 19.0493 65.5C19.0493 64.8889 19.2076 64.3152 19.4829 63.8154H25.6157ZM18.6558 67.5439C19.0207 67.9005 19.4745 68.1657 19.9829 68.2998H18.5972L18.6558 67.5439ZM16.6001 68.1895C16.0635 67.3927 15.7496 66.4332 15.7495 65.4004C15.7495 64.0874 16.2567 62.8931 17.0845 62.001L16.6001 68.1895ZM47.2378 63.0059L46.9556 65.0088C46.7244 65.0528 46.5493 65.2561 46.5493 65.5C46.5493 65.6945 46.6616 65.8617 46.8237 65.9443L46.5415 67.9463C45.7404 67.7804 45.0796 67.2324 44.7593 66.5H43.8491V64.5H44.7593C45.1452 63.6176 46.0247 63.0002 47.0493 63C47.1125 63 47.1758 63.0012 47.2378 63.0059ZM49.106 64.084C49.1959 64.2146 49.2751 64.3531 49.3394 64.5H51.2495V66.5H49.3394C49.1801 66.8641 48.936 67.1816 48.6333 67.4307L49.106 64.084ZM22.5493 64C21.7211 64.0002 21.0493 64.6717 21.0493 65.5C21.0493 66.3283 21.7211 66.9998 22.5493 67C23.3776 66.9999 24.0493 66.3283 24.0493 65.5C24.0493 64.6717 23.3776 64.0001 22.5493 64ZM37.5493 64C36.7211 64.0002 36.0493 64.6717 36.0493 65.5C36.0493 66.3283 36.7211 66.9998 37.5493 67C38.3776 66.9999 39.0493 66.3283 39.0493 65.5C39.0493 64.6717 38.3776 64.0001 37.5493 64ZM91.3071 64.6836C91.719 64.6836 92.0586 64.7608 92.3511 64.8936L89.0825 65.4121C89.1448 65.3648 89.2092 65.3186 89.2749 65.2734C89.8643 64.885 90.523 64.6837 91.3071 64.6836ZM86.8999 59.2773C87.6611 60.5037 88.8031 61.7372 90.4692 62.7393C89.6289 62.8548 88.8548 63.1489 88.1479 63.6201C87.751 63.8924 87.3954 64.1985 87.0776 64.5352C85.7103 63.537 84.6898 62.3636 83.938 61.1621L84.2485 60.8896C85.0361 60.2298 85.9206 59.6933 86.8999 59.2773ZM54.0493 58.7842V60.5713C54.2667 60.6297 54.4784 60.7031 54.6831 60.7891L54.3569 63.1201C54.3319 63.104 54.3077 63.0864 54.2827 63.0713C53.9486 62.8698 53.6055 62.7483 53.3413 62.6787C53.2115 62.6445 53.105 62.6239 53.0356 62.6123C53.0013 62.6066 52.9752 62.6033 52.9614 62.6016C52.9588 62.6011 52.9563 62.5998 52.9546 62.5996L52.0493 62.5156V62.4004H49.3442L49.6255 60.4004H52.0493V58.7842H54.0493ZM52.9546 62.6006H52.9536L52.9526 62.5996H52.9546V62.6006ZM47.3247 62.4004H42.7876L43.0669 60.4004H47.6069L47.3247 62.4004ZM28.0493 2C36.3013 2.00005 44.5802 4.79591 57.0298 11.623C62.8655 14.8233 68.1552 13.9168 73.3052 12.1064C74.5971 11.6523 75.8715 11.1441 77.145 10.6309C78.4118 10.1203 79.6841 9.6025 80.9409 9.14258C83.4489 8.22484 85.9956 7.50008 88.5493 7.5C91.4396 7.50002 95.4593 7.84533 98.5728 9.80371C100.154 10.7983 101.504 12.2114 102.338 14.1855C103.169 16.1519 103.458 18.6043 103.04 21.6367L103.036 21.667L103.03 21.6963C102.687 23.4083 102.048 25.8395 101.169 28.1104C100.73 29.2464 100.223 30.3622 99.6538 31.334C99.2803 31.9717 98.8635 32.5705 98.4048 33.0801L99.7075 34.6807C123.899 34.9918 172.211 35.6297 199.963 35.998C199.984 35.9905 200.016 35.9805 200.058 35.9609C200.197 35.8967 200.413 35.7771 200.709 35.5742C201.302 35.1689 202.172 34.4631 203.342 33.293L203.469 33.1768C203.774 32.9233 204.139 32.7816 204.479 32.6982C204.876 32.601 205.323 32.5629 205.79 32.5625C206.723 32.5618 207.876 32.7109 209.165 32.959C211.751 33.4569 215.049 34.3903 218.568 35.5234C225.614 37.7926 233.666 40.9026 238.93 43.0752C241.177 44.0024 242.562 45.1561 243.067 46.6533C243.566 48.1347 243.089 49.6297 242.447 50.9404C241.506 52.8582 239.415 53.4417 237.633 53.418C235.852 53.3941 233.906 52.771 232.842 51.707C232.179 51.0441 231.637 50.7547 231.161 50.6572C230.689 50.5608 230.148 50.6253 229.434 50.9229C226.395 52.1889 224.567 52.6542 223.114 52.748C222.384 52.7951 221.775 52.7463 221.201 52.6807C220.613 52.6135 220.119 52.5376 219.487 52.498L219.447 52.4951L219.408 52.4902C215.708 51.9617 214.036 50.8615 210.102 48.8945C208.537 48.1123 207.469 48.007 206.112 48.0918C204.755 48.1767 202.827 48.4981 200.061 48.499L200.062 48.5L184.502 48.7031L184.535 48.4766H175.348L175.299 48.8242L151.76 49.1318L151.787 48.9453H142.447L142.403 49.2549L134.019 49.3643L134.078 48.9453H124.738L124.662 49.4873L91.2642 49.9248C89.767 50.2027 88.352 50.6175 87.3062 51.3604C86.2712 52.0957 85.5493 53.181 85.5493 55C85.5493 55.6474 85.6836 56.5178 86.0278 57.4766C84.9217 57.9561 83.9063 58.5723 82.9927 59.333C82.7264 58.6955 82.5242 58.072 82.3784 57.4834L82.4751 56.7842H82.228C82.1027 56.1103 82.0493 55.5023 82.0493 55C82.0493 52.6495 83.0827 51.0304 84.563 49.9688L84.561 49.8799C83.9302 49.7188 83.4252 49.4056 83.0396 49.0068C82.4524 48.4375 82.0493 47.6092 82.0493 46.5V37C82.0493 36.1216 82.4783 35.5119 82.9927 35.1299C83.4997 34.7321 84.1888 34.5001 85.0493 34.5H92.9946C92.9598 34.2277 92.9047 33.9486 92.814 33.6592C92.6116 33.0141 92.2223 32.2678 91.4429 31.4326C89.8586 29.7353 86.6669 27.6762 80.2222 25.4453C72.3819 22.7314 66.2662 22.1312 61.8433 22.4336C57.85 22.7068 55.2845 23.7114 54.0493 24.5137V30.5H55.0493C55.2629 30.5 55.5497 30.4969 55.7915 30.5371C56.0816 30.5855 56.4828 30.7227 56.7563 31.1328C56.9739 31.4592 57.0139 31.8306 57.0308 32.0586C57.0498 32.3154 57.0493 32.6414 57.0493 33V52.5C57.0493 52.7256 57.0501 52.9795 57.0269 53.1885C57.0044 53.3901 56.9415 53.7718 56.6313 54.082C56.3211 54.3921 55.9394 54.4561 55.7378 54.4785C55.5289 54.5017 55.2747 54.5 55.0493 54.5H54.0493V56.7842H52.0493V53H34.8491C33.303 52.9998 32.0494 51.7464 32.0493 50.2002V34.7998C32.0494 33.2536 33.303 32.0002 34.8491 32H52.0493V23.5195L52.4243 23.2188C53.8876 22.0482 57.011 20.7597 61.7065 20.4385C66.4339 20.1152 72.8191 20.7656 80.8765 23.5547C87.4306 25.8234 90.9889 28.015 92.9048 30.0674C93.8751 31.107 94.4245 32.1111 94.7222 33.0596C94.8987 33.6224 94.9804 34.149 95.0181 34.6221C95.6843 34.6306 96.3795 34.6382 97.1011 34.6475L96.2739 33.6318L95.6362 32.8496L96.4243 32.2188C96.9139 31.8271 97.4239 31.1833 97.9282 30.3223C98.4266 29.4714 98.8896 28.4616 99.3042 27.3896C100.128 25.2604 100.734 22.9602 101.06 21.3408C101.437 18.5844 101.153 16.5183 100.497 14.9639C99.8415 13.4136 98.7875 12.3014 97.5073 11.4961C94.8982 9.85504 91.3674 9.50002 88.5493 9.5C86.3533 9.50008 84.0733 10.1259 81.6284 11.0205C80.4093 11.4666 79.1728 11.9706 77.8931 12.4863C76.6197 12.9995 75.3072 13.5225 73.9683 13.9932C68.5935 15.8826 62.6318 16.9765 56.0679 13.377C43.7297 6.61092 35.8116 4.00486 28.0708 4C22.4697 4.24656 18.2544 5.58329 15.0581 7.67969C11.8614 9.77653 9.61416 12.6791 8.021 16.166C4.81035 23.1935 4.30049 32.4738 4.04932 42L4.03564 44.5C3.99656 48.8463 3.91066 53.4407 4.31689 57.8975C4.04483 58.4156 3.79475 58.9507 3.56689 59.502L3.56299 59.5127L3.55811 59.5234C3.25221 60.2882 3.00155 61.0709 2.80322 61.8701C1.70945 55.2434 2.04932 48.0754 2.04932 42V41.9736C2.29838 32.5094 2.79058 22.7999 6.20166 15.334C7.92082 11.5714 10.3931 8.34837 13.9614 6.00781C17.5264 3.66958 22.1179 2.25705 28.0054 2.00098L28.0278 2H28.0493ZM24.5503 60.4004C24.6287 60.5843 24.6983 60.776 24.7603 60.9756L25.021 61.8154H17.2661C18.1665 60.9403 19.3947 60.4005 20.7495 60.4004H24.5503ZM33.6792 61.8154H28.3354L31.3853 60.4004H33.8784L33.6792 61.8154ZM78.0493 32.5C79.7061 32.5001 81.0493 33.8432 81.0493 35.5V48.5C81.0493 50.1568 79.7061 51.4999 78.0493 51.5C76.3927 51.4998 75.0493 50.1567 75.0493 48.5V35.5C75.0493 33.8433 76.3927 32.5002 78.0493 32.5ZM205.791 34.5625C205.417 34.5628 205.143 34.5946 204.955 34.6406C204.782 34.683 204.737 34.723 204.749 34.7129C203.522 35.9386 202.561 36.7318 201.838 37.2256C201.477 37.4724 201.163 37.6532 200.896 37.7764C200.665 37.883 200.359 37.9999 200.049 38H200.036C197.235 37.9628 194.224 37.9229 191.049 37.8809V46.6172L200.036 46.5H200.049L201.02 46.4873C203.17 46.4282 204.551 46.1855 205.987 46.0957C207.629 45.9931 209.062 46.1381 210.997 47.1055C215.054 49.1341 216.385 50.0336 219.67 50.5059C220.346 50.5509 220.937 50.6381 221.428 50.6943C221.947 50.7536 222.423 50.7881 222.985 50.752C224.114 50.6791 225.704 50.3107 228.665 49.0771C229.614 48.6816 230.574 48.4966 231.561 48.6982C232.543 48.8992 233.42 49.4564 234.256 50.293C234.829 50.866 236.196 51.3983 237.66 51.418C239.124 51.4375 240.213 50.952 240.651 50.0596C241.239 48.86 241.408 47.9902 241.172 47.292C240.942 46.6096 240.211 45.7682 238.167 44.9248C232.932 42.7641 224.933 39.6741 217.955 37.4268C214.461 36.3018 211.253 35.3978 208.787 34.9229C207.549 34.6846 206.539 34.5619 205.791 34.5625ZM34.8491 34C34.4076 34.0002 34.0494 34.3582 34.0493 34.7998V50.2002C34.0494 50.6418 34.4076 50.9998 34.8491 51H45.8335C44.794 50.3058 44.2598 49.005 44.6011 47.7305L47.9653 35.1729C48.0854 34.7247 48.3043 34.3301 48.5874 34H34.8491ZM53.1431 34C53.7626 34.7259 54.0268 35.7341 53.7612 36.7256L50.396 49.2832C50.1996 50.0159 49.7469 50.61 49.1616 51H54.0493V34H53.1431ZM51.1216 34.9834C50.5884 34.841 50.0399 35.1573 49.897 35.6904L46.5327 48.248C46.3901 48.7812 46.7067 49.3296 47.2397 49.4727C47.7731 49.6155 48.3213 49.2988 48.4644 48.7656L51.8296 36.208C51.9723 35.6747 51.6549 35.1263 51.1216 34.9834ZM78.0493 34.5C77.4972 34.5002 77.0493 34.9479 77.0493 35.5V48.5C77.0493 49.0521 77.4972 49.4998 78.0493 49.5C78.6015 49.4999 79.0493 49.0522 79.0493 48.5V35.5C79.0493 34.9478 78.6015 34.5001 78.0493 34.5ZM85.0493 36.5C84.8281 36.5001 84.5035 36.5557 84.2739 36.6797C84.2559 36.6894 84.2392 36.6995 84.2241 36.709C84.2021 36.7264 84.1835 36.7412 84.1704 36.7549C84.1214 36.806 84.0898 36.8613 84.0708 36.9111L84.0493 37V46.5C84.0493 46.5417 84.0533 46.582 84.0552 46.6211C84.0774 46.8733 84.1676 47.2101 84.3608 47.4785C84.384 47.5106 84.4095 47.5427 84.437 47.5742C84.4811 47.6164 84.5251 47.6555 84.5708 47.6885C84.8385 47.8812 85.1742 47.9706 85.4263 47.9932C85.4649 47.9951 85.5051 47.999 85.5464 47.999H85.5493V36.5059C85.2793 36.503 85.1102 36.5 85.0493 36.5ZM87.5493 47.9727L88.0493 47.9668V36.5361C87.8758 36.534 87.7088 36.5322 87.5493 36.5303V47.9727ZM90.0493 47.9404L91.0493 47.9277V36.5732C90.7026 36.5689 90.3688 36.5645 90.0493 36.5605V47.9404ZM93.0493 47.9014L94.0493 47.8877V36.6104C93.7077 36.606 93.374 36.6018 93.0493 36.5977V47.9014ZM96.0493 47.8613L97.5493 47.8418V36.6533C97.0362 36.6467 96.5358 36.641 96.0493 36.6348V47.8613ZM99.5493 47.8164L101.049 47.7959V36.6982C100.54 36.6917 100.039 36.685 99.5493 36.6787V47.8164ZM103.049 47.7705L105.049 47.7441V36.75C104.37 36.7412 103.702 36.733 103.049 36.7246V47.7705ZM107.049 47.7178L109.049 47.6914V36.8027C108.372 36.7939 107.705 36.7849 107.049 36.7764V47.7178ZM111.049 47.665L113.049 47.6387V36.8545C112.374 36.8457 111.707 36.8367 111.049 36.8281V47.665ZM115.049 47.6133L117.549 47.5801V36.9131C116.706 36.9021 115.872 36.8906 115.049 36.8799V47.6133ZM119.549 47.5537L122.549 47.5146V36.9775C121.538 36.9643 120.537 36.9514 119.549 36.9385V47.5537ZM124.549 47.4883L127.549 47.4492V37.043C126.54 37.0297 125.54 37.0169 124.549 37.0039V47.4883ZM129.549 47.4229L132.767 47.3809V37.1113C131.687 37.0972 130.613 37.0833 129.549 37.0693V47.4229ZM134.767 47.3545L138.549 47.3047V37.1875C137.281 37.1708 136.019 37.1541 134.767 37.1377V47.3545ZM140.549 47.2793L144.549 47.2266V37.2676C143.211 37.25 141.877 37.2313 140.549 37.2139V47.2793ZM146.549 47.2002L151.049 47.1416V37.3525C149.547 37.3328 148.046 37.3136 146.549 37.2939V47.2002ZM153.049 47.1152L157.549 47.0557V37.4385C156.051 37.4187 154.55 37.3987 153.049 37.3789V47.1152ZM159.549 47.0303L165.049 46.958V37.5381C163.226 37.514 161.391 37.4891 159.549 37.4648V47.0303ZM167.049 46.9316L172.549 46.8594V37.6367C170.735 37.6127 168.899 37.5889 167.049 37.5645V46.9316ZM174.549 46.833L180.549 46.7549V37.7422C178.584 37.7162 176.581 37.6899 174.549 37.6631V46.833ZM182.549 46.7285L189.049 46.6436V37.8545C186.944 37.8266 184.773 37.798 182.549 37.7686V46.7285Z" fill="white"/>
        <path d="M17.7788 80.468C15.9068 80.468 14.1518 80.143 12.5138 79.493C10.8758 78.843 9.43276 77.907 8.18476 76.685C6.96276 75.463 6.00076 73.994 5.29876 72.278C4.59676 70.562 4.24576 68.651 4.24576 66.545C4.24576 64.309 4.63576 62.216 5.41576 60.266C6.22176 58.316 7.32676 56.613 8.73076 55.157C10.1348 53.675 11.7728 52.531 13.6448 51.725C15.5428 50.893 17.5968 50.477 19.8068 50.477C21.8868 50.477 23.7328 50.828 25.3448 51.53C26.9568 52.232 28.2958 53.168 29.3618 54.338C30.4278 55.482 31.1558 56.743 31.5458 58.121L26.6708 60.383C26.2028 58.875 25.3578 57.653 24.1358 56.717C22.9138 55.781 21.3538 55.313 19.4558 55.313C17.9998 55.313 16.6608 55.599 15.4388 56.171C14.2428 56.717 13.2028 57.497 12.3188 58.511C11.4348 59.499 10.7458 60.656 10.2518 61.982C9.78376 63.308 9.54976 64.751 9.54976 66.311C9.54976 68.183 9.90076 69.821 10.6028 71.225C11.3308 72.629 12.3448 73.721 13.6448 74.501C14.9448 75.255 16.4528 75.632 18.1688 75.632C19.6768 75.632 21.0418 75.346 22.2638 74.774C23.5118 74.176 24.5388 73.331 25.3448 72.239C26.1768 71.147 26.6708 69.873 26.8268 68.417L27.0998 66.194L29.3618 68.3H18.5978L18.9488 63.815H32.6378L32.2868 67.325C32.1048 69.457 31.5718 71.342 30.6878 72.98C29.8298 74.618 28.7378 75.996 27.4118 77.114C26.0858 78.206 24.5908 79.038 22.9268 79.61C21.2888 80.182 19.5728 80.468 17.7788 80.468ZM41.3914 80.468C39.7014 80.468 38.2844 80.091 37.1404 79.337C35.9964 78.557 35.1774 77.478 34.6834 76.1C34.2154 74.722 34.1114 73.11 34.3714 71.264L36.1264 58.784H41.2744L39.5194 71.342C39.3894 72.226 39.4544 73.006 39.7144 73.682C39.9744 74.358 40.4034 74.878 41.0014 75.242C41.5994 75.606 42.3144 75.788 43.1464 75.788C44.0044 75.788 44.7714 75.606 45.4474 75.242C46.1494 74.852 46.7344 74.319 47.2024 73.643C47.6964 72.941 47.9954 72.135 48.0994 71.225L49.8544 58.784H54.9634L51.9994 80H47.1634L47.7094 75.827L48.0604 76.685C47.4104 77.985 46.4874 78.947 45.2914 79.571C44.1214 80.169 42.8214 80.468 41.3914 80.468ZM55.9677 80L58.9317 58.784H64.0797L61.1157 80H55.9677ZM59.2437 56.405L60.0237 50.945H65.1717L64.4307 56.405H59.2437ZM74.996 80.234C72.552 80.234 70.732 79.558 69.536 78.206C68.366 76.828 67.937 74.956 68.249 72.59L69.536 63.347H65.909L66.533 58.784H66.806C67.846 58.784 68.717 58.485 69.419 57.887C70.121 57.289 70.537 56.47 70.667 55.43L70.862 53.948H76.049L75.386 58.784H80.183L79.559 63.347H74.723L73.436 72.551C73.332 73.279 73.345 73.877 73.475 74.345C73.631 74.813 73.93 75.164 74.372 75.398C74.84 75.632 75.477 75.749 76.283 75.749C76.517 75.749 76.751 75.749 76.985 75.749C77.219 75.723 77.492 75.684 77.804 75.632L77.414 80C77.05 80.104 76.634 80.169 76.166 80.195C75.724 80.221 75.334 80.234 74.996 80.234ZM87.0958 80.468C85.7438 80.468 84.5348 80.247 83.4688 79.805C82.4288 79.363 81.6098 78.713 81.0118 77.855C80.4138 76.997 80.1148 75.944 80.1148 74.696C80.1148 73.344 80.4528 72.187 81.1288 71.225C81.8048 70.263 82.7408 69.483 83.9368 68.885C85.1328 68.261 86.5108 67.832 88.0708 67.598L95.2078 66.467L94.8178 70.367L88.8118 71.42C87.8498 71.602 87.0438 71.94 86.3938 72.434C85.7438 72.902 85.4188 73.552 85.4188 74.384C85.4188 75.112 85.6788 75.658 86.1988 76.022C86.7448 76.386 87.4338 76.568 88.2658 76.568C89.3058 76.568 90.2418 76.334 91.0738 75.866C91.9058 75.372 92.5948 74.722 93.1408 73.916C93.6868 73.11 94.0118 72.226 94.1158 71.264L94.8568 65.96C94.9608 65.258 94.8438 64.673 94.5058 64.205C94.1938 63.711 93.7518 63.334 93.1798 63.074C92.6078 62.814 91.9838 62.684 91.3078 62.684C90.1378 62.684 89.0848 62.996 88.1488 63.62C87.2388 64.244 86.5368 65.037 86.0428 65.999L82.0258 63.737C82.5718 62.619 83.3128 61.67 84.2488 60.89C85.2108 60.084 86.3158 59.46 87.5638 59.018C88.8378 58.55 90.1898 58.316 91.6198 58.316C93.3358 58.316 94.8568 58.654 96.1828 59.33C97.5348 60.006 98.5618 60.929 99.2638 62.099C99.9658 63.269 100.2 64.634 99.9658 66.194L98.0548 80H93.1798L93.6868 76.373L94.9738 76.412C94.3238 77.322 93.5958 78.076 92.7898 78.674C91.9838 79.272 91.0998 79.714 90.1378 80C89.2018 80.312 88.1878 80.468 87.0958 80.468ZM102.035 80L104.999 58.784H109.835L109.211 63.503L108.86 62.801C109.588 61.215 110.511 60.11 111.629 59.486C112.773 58.862 114.086 58.55 115.568 58.55H116.816L116.192 63.074H114.359C112.903 63.074 111.668 63.542 110.654 64.478C109.666 65.388 109.029 66.753 108.743 68.573L107.183 80H102.035ZM122.422 80L126.478 50.945H131.782L130.027 63.62H142.39L144.184 50.945H149.488L145.432 80H140.128L141.727 68.3H129.364L127.726 80H122.422ZM160.775 80.468C158.695 80.468 156.875 80.013 155.315 79.103C153.781 78.193 152.585 76.958 151.727 75.398C150.895 73.812 150.479 72.044 150.479 70.094C150.479 68.482 150.752 66.974 151.298 65.57C151.87 64.14 152.663 62.879 153.677 61.787C154.717 60.695 155.913 59.85 157.265 59.252C158.617 58.628 160.099 58.316 161.711 58.316C163.791 58.316 165.559 58.745 167.015 59.603C168.471 60.461 169.576 61.618 170.33 63.074C171.084 64.504 171.461 66.116 171.461 67.91C171.461 68.378 171.422 68.859 171.344 69.353C171.266 69.847 171.162 70.341 171.032 70.835H154.652L154.925 66.935H168.38L165.845 68.69C166.183 67.52 166.209 66.48 165.923 65.57C165.663 64.634 165.156 63.893 164.402 63.347C163.674 62.801 162.764 62.528 161.672 62.528C160.242 62.528 159.085 62.879 158.201 63.581C157.343 64.283 156.706 65.245 156.29 66.467C155.9 67.663 155.705 69.002 155.705 70.484C155.705 71.628 155.913 72.616 156.329 73.448C156.771 74.28 157.382 74.917 158.162 75.359C158.942 75.775 159.852 75.983 160.892 75.983C162.062 75.983 163.089 75.723 163.973 75.203C164.857 74.683 165.559 74.02 166.079 73.214L170.135 75.32C169.641 76.334 168.926 77.231 167.99 78.011C167.08 78.791 166.001 79.402 164.753 79.844C163.531 80.26 162.205 80.468 160.775 80.468ZM172.954 80L177.088 50.477H182.236L178.102 80H172.954ZM180.984 87.8L185.04 58.784H189.876L189.33 62.996L188.238 61.865C189.07 60.721 190.123 59.85 191.397 59.252C192.697 58.628 194.127 58.316 195.687 58.316C197.663 58.316 199.405 58.784 200.913 59.72C202.421 60.63 203.604 61.865 204.462 63.425C205.346 64.985 205.788 66.74 205.788 68.69C205.788 70.302 205.489 71.823 204.891 73.253C204.319 74.683 203.513 75.944 202.473 77.036C201.433 78.102 200.224 78.947 198.846 79.571C197.468 80.169 195.986 80.468 194.4 80.468C192.736 80.468 191.228 80.156 189.876 79.532C188.55 78.882 187.536 77.985 186.834 76.841L187.926 75.905L186.327 87.8H180.984ZM193.893 75.788C195.167 75.788 196.298 75.476 197.286 74.852C198.274 74.202 199.041 73.344 199.587 72.278C200.159 71.212 200.445 70.029 200.445 68.729C200.445 67.611 200.211 66.623 199.743 65.765C199.301 64.907 198.677 64.231 197.871 63.737C197.065 63.243 196.103 62.996 194.985 62.996C193.737 62.996 192.619 63.321 191.631 63.971C190.669 64.595 189.915 65.44 189.369 66.506C188.823 67.572 188.55 68.755 188.55 70.055C188.55 71.173 188.771 72.174 189.213 73.058C189.681 73.916 190.318 74.592 191.124 75.086C191.93 75.554 192.853 75.788 193.893 75.788ZM218.42 80.468C216.34 80.468 214.52 80.013 212.96 79.103C211.426 78.193 210.23 76.958 209.372 75.398C208.54 73.812 208.124 72.044 208.124 70.094C208.124 68.482 208.397 66.974 208.943 65.57C209.515 64.14 210.308 62.879 211.322 61.787C212.362 60.695 213.558 59.85 214.91 59.252C216.262 58.628 217.744 58.316 219.356 58.316C221.436 58.316 223.204 58.745 224.66 59.603C226.116 60.461 227.221 61.618 227.975 63.074C228.729 64.504 229.106 66.116 229.106 67.91C229.106 68.378 229.067 68.859 228.989 69.353C228.911 69.847 228.807 70.341 228.677 70.835H212.297L212.57 66.935H226.025L223.49 68.69C223.828 67.52 223.854 66.48 223.568 65.57C223.308 64.634 222.801 63.893 222.047 63.347C221.319 62.801 220.409 62.528 219.317 62.528C217.887 62.528 216.73 62.879 215.846 63.581C214.988 64.283 214.351 65.245 213.935 66.467C213.545 67.663 213.35 69.002 213.35 70.484C213.35 71.628 213.558 72.616 213.974 73.448C214.416 74.28 215.027 74.917 215.807 75.359C216.587 75.775 217.497 75.983 218.537 75.983C219.707 75.983 220.734 75.723 221.618 75.203C222.502 74.683 223.204 74.02 223.724 73.214L227.78 75.32C227.286 76.334 226.571 77.231 225.635 78.011C224.725 78.791 223.646 79.402 222.398 79.844C221.176 80.26 219.85 80.468 218.42 80.468ZM230.599 80L233.563 58.784H238.399L237.775 63.503L237.424 62.801C238.152 61.215 239.075 60.11 240.193 59.486C241.337 58.862 242.65 58.55 244.132 58.55H245.38L244.756 63.074H242.923C241.467 63.074 240.232 63.542 239.218 64.478C238.23 65.388 237.593 66.753 237.307 68.573L235.747 80H230.599Z" fill="white"/>
    </g>
    <defs>
        <clipPath id="clip0_1401_72">
            <rect width="249" height="90" fill="white"/>
        </clipPath>
    </defs>
</svg>
