<svg width="130" height="130" viewBox="0 0 130 130" fill="none" xmlns="http://www.w3.org/2000/svg">
    <g clip-path="url(#clip0_1403_669)">
        <rect x="8" y="1" width="21" height="128" rx="10.5" fill="white"/>
        <rect x="37.5" y="14.5" width="51" height="101" fill="#D9D9D9" fill-opacity="0.01" stroke="black"/>
        <rect x="87.5" y="14.5" width="51" height="101" fill="#D9D9D9" fill-opacity="0.01" stroke="black"/>
        <path d="M15.2697 39V30.06H19.0377C19.5977 30.06 20.0817 30.16 20.4897 30.36C20.8977 30.552 21.2097 30.832 21.4257 31.2C21.6417 31.56 21.7497 31.988 21.7497 32.484C21.7497 32.916 21.6377 33.312 21.4137 33.672C21.1977 34.024 20.8577 34.304 20.3937 34.512V33.912C20.8017 34.072 21.1337 34.276 21.3897 34.524C21.6457 34.764 21.8297 35.036 21.9417 35.34C22.0617 35.644 22.1217 35.964 22.1217 36.3C22.1217 37.14 21.8457 37.8 21.2937 38.28C20.7497 38.76 20.0017 39 19.0497 39H15.2697ZM16.6857 37.74H19.1577C19.6297 37.74 20.0057 37.612 20.2857 37.356C20.5657 37.092 20.7057 36.744 20.7057 36.312C20.7057 35.872 20.5657 35.524 20.2857 35.268C20.0057 35.004 19.6297 34.872 19.1577 34.872H16.6857V37.74ZM16.6857 33.624H19.0737C19.4577 33.624 19.7657 33.516 19.9977 33.3C20.2297 33.076 20.3457 32.784 20.3457 32.424C20.3457 32.064 20.2297 31.784 19.9977 31.584C19.7657 31.384 19.4577 31.284 19.0737 31.284H16.6857V33.624Z" fill="black"/>
        <path d="M15.8205 19V10.06H21.7125V11.32H17.2365V13.888H21.4725V15.148H17.2365V17.74H21.7125V19H15.8205Z" fill="black"/>
        <path d="M18.7311 59.144C18.0991 59.144 17.5111 59.028 16.9671 58.796C16.4311 58.564 15.9591 58.244 15.5511 57.836C15.1511 57.42 14.8391 56.932 14.6151 56.372C14.3911 55.812 14.2791 55.196 14.2791 54.524C14.2791 53.86 14.3871 53.248 14.6031 52.688C14.8271 52.12 15.1391 51.632 15.5391 51.224C15.9391 50.808 16.4071 50.488 16.9431 50.264C17.4791 50.032 18.0671 49.916 18.7071 49.916C19.3391 49.916 19.9031 50.024 20.3991 50.24C20.9031 50.456 21.3271 50.74 21.6711 51.092C22.0151 51.436 22.2631 51.812 22.4151 52.22L21.1551 52.832C20.9711 52.344 20.6671 51.952 20.2431 51.656C19.8191 51.352 19.3071 51.2 18.7071 51.2C18.1151 51.2 17.5911 51.34 17.1351 51.62C16.6791 51.9 16.3231 52.288 16.0671 52.784C15.8191 53.28 15.6951 53.86 15.6951 54.524C15.6951 55.188 15.8231 55.772 16.0791 56.276C16.3431 56.772 16.7031 57.16 17.1591 57.44C17.6151 57.712 18.1391 57.848 18.7311 57.848C19.2271 57.848 19.6791 57.748 20.0871 57.548C20.5031 57.34 20.8351 57.052 21.0831 56.684C21.3311 56.308 21.4551 55.872 21.4551 55.376V54.764L22.0911 55.34H18.7071V54.14H22.8591V54.98C22.8591 55.636 22.7471 56.224 22.5231 56.744C22.2991 57.256 21.9951 57.692 21.6111 58.052C21.2271 58.412 20.7871 58.684 20.2911 58.868C19.7951 59.052 19.2751 59.144 18.7311 59.144Z" fill="black"/>
        <path d="M14.9767 79V70.06H17.9047C18.8327 70.06 19.6367 70.248 20.3167 70.624C21.0047 70.992 21.5367 71.512 21.9127 72.184C22.2887 72.856 22.4767 73.636 22.4767 74.524C22.4767 75.404 22.2887 76.184 21.9127 76.864C21.5367 77.536 21.0047 78.06 20.3167 78.436C19.6367 78.812 18.8327 79 17.9047 79H14.9767ZM16.3927 77.74H17.9287C18.5607 77.74 19.1087 77.608 19.5727 77.344C20.0447 77.08 20.4087 76.708 20.6647 76.228C20.9207 75.748 21.0487 75.18 21.0487 74.524C21.0487 73.868 20.9167 73.304 20.6527 72.832C20.3967 72.352 20.0367 71.98 19.5727 71.716C19.1087 71.452 18.5607 71.32 17.9287 71.32H16.3927V77.74Z" fill="black"/>
        <path d="M14.4777 99L17.6217 90.06H19.3737L22.5177 99H21.0057L20.3217 96.996H16.6857L15.9897 99H14.4777ZM17.0937 95.736H19.8897L18.3057 91.056H18.7017L17.0937 95.736Z" fill="black"/>
        <path d="M15.8205 119V110.06H21.7125V111.32H17.2365V113.888H21.4725V115.148H17.2365V117.74H21.7125V119H15.8205Z" fill="black"/>
        <mask id="path-10-outside-1_1403_669" maskUnits="userSpaceOnUse" x="34" y="14" width="806" height="102" fill="black">
            <rect fill="white" x="34" y="14" width="806" height="102"/>
            <path d="M38 15H838V115H38V15Z"/>
        </mask>
        <path d="M38 15H838V115H38V15Z" fill="white"/>
        <path d="M38 15V14H34V15H38ZM838 15H840V14H838V15ZM838 115V116H840V115H838ZM38 115H34V116H38V115ZM38 15V16H838V15V14H38V15ZM838 15H836V115H838H840V15H838ZM838 115V114H38V115V116H838V115ZM38 115H42V15H38H34V115H38Z" fill="black" mask="url(#path-10-outside-1_1403_669)"/>
        <rect x="37.5" y="14.5" width="801" height="21" fill="white" fill-opacity="0.01" stroke="black"/>
        <rect x="37.5" y="34.5" width="801" height="21" fill="white" fill-opacity="0.01" stroke="black"/>
        <rect x="37.5" y="54.5" width="801" height="21" fill="white" fill-opacity="0.01" stroke="black"/>
        <rect x="37.5" y="74.5" width="801" height="21" fill="white" fill-opacity="0.01" stroke="black"/>
        <rect x="37.5" y="94.5" width="801" height="21" fill="white" fill-opacity="0.01" stroke="black"/>
        <path d="M38 15V16H838V15V14H38V15ZM838 115V114H38V115V116H838V115Z" fill="black"/>
        <circle cx="63" cy="55" r="8.75" fill="white" stroke="black" stroke-width="1.5"/>
        <path d="M59.6619 58.096C59.2406 58.096 58.8486 58.0187 58.4859 57.864C58.1286 57.7093 57.8139 57.496 57.5419 57.224C57.2752 56.9467 57.0672 56.6213 56.9179 56.248C56.7686 55.8747 56.6939 55.464 56.6939 55.016C56.6939 54.5733 56.7659 54.1653 56.9099 53.792C57.0592 53.4133 57.2672 53.088 57.5339 52.816C57.8006 52.5387 58.1126 52.3253 58.4699 52.176C58.8272 52.0213 59.2192 51.944 59.6459 51.944C60.0672 51.944 60.4432 52.016 60.7739 52.16C61.1099 52.304 61.3926 52.4933 61.6219 52.728C61.8512 52.9573 62.0166 53.208 62.1179 53.48L61.2779 53.888C61.1552 53.5627 60.9526 53.3013 60.6699 53.104C60.3872 52.9013 60.0459 52.8 59.6459 52.8C59.2512 52.8 58.9019 52.8933 58.5979 53.08C58.2939 53.2667 58.0566 53.5253 57.8859 53.856C57.7206 54.1867 57.6379 54.5733 57.6379 55.016C57.6379 55.4587 57.7232 55.848 57.8939 56.184C58.0699 56.5147 58.3099 56.7733 58.6139 56.96C58.9179 57.1413 59.2672 57.232 59.6619 57.232C59.9926 57.232 60.2939 57.1653 60.5659 57.032C60.8432 56.8933 61.0646 56.7013 61.2299 56.456C61.3952 56.2053 61.4779 55.9147 61.4779 55.584V55.176L61.9019 55.56H59.6459V54.76H62.4139V55.32C62.4139 55.7573 62.3392 56.1493 62.1899 56.496C62.0406 56.8373 61.8379 57.128 61.5819 57.368C61.3259 57.608 61.0326 57.7893 60.7019 57.912C60.3712 58.0347 60.0246 58.096 59.6619 58.096ZM63.7617 58L64.1617 56.608H63.2017V55.808H64.3857L64.8417 54.224H63.8817V53.424H65.0737L65.4737 52.04H66.3937L65.9937 53.424H67.4337L67.8257 52.04H68.7457L68.3537 53.424H69.3137V54.224H68.1217L67.6657 55.808H68.6257V56.608H67.4337L67.0417 58H66.1217L66.5137 56.608H65.0817L64.6817 58H63.7617ZM65.3057 55.808H66.7457L67.2017 54.224H65.7617L65.3057 55.808Z" fill="black"/>
        <circle cx="113" cy="115" r="8.75" fill="white" stroke="black" stroke-width="1.5"/>
        <path d="M107.788 118V112.04H111.668V112.88H108.732V114.672H111.348V115.512H108.732V118H107.788ZM112.844 118L113.244 116.608H112.284V115.808H113.468L113.924 114.224H112.964V113.424H114.156L114.556 112.04H115.476L115.076 113.424H116.516L116.908 112.04H117.828L117.436 113.424H118.396V114.224H117.204L116.748 115.808H117.708V116.608H116.516L116.124 118H115.204L115.596 116.608H114.164L113.764 118H112.844ZM114.388 115.808H115.828L116.284 114.224H114.844L114.388 115.808Z" fill="black"/>
        <circle cx="113" cy="15" r="8.75" fill="white" stroke="black" stroke-width="1.5"/>
        <path d="M107.788 18V12.04H111.668V12.88H108.732V14.672H111.348V15.512H108.732V18H107.788ZM112.844 18L113.244 16.608H112.284V15.808H113.468L113.924 14.224H112.964V13.424H114.156L114.556 12.04H115.476L115.076 13.424H116.516L116.908 12.04H117.828L117.436 13.424H118.396V14.224H117.204L116.748 15.808H117.708V16.608H116.516L116.124 18H115.204L115.596 16.608H114.164L113.764 18H112.844ZM114.388 15.808H115.828L116.284 14.224H114.844L114.388 15.808Z" fill="black"/>
        <circle cx="63" cy="115" r="8.75" fill="white" stroke="black" stroke-width="1.5"/>
        <path d="M61.2801 118V112.04H65.1601V112.88H62.2241V114.672H64.8401V115.512H62.2241V118H61.2801Z" fill="black"/>
        <circle cx="63" cy="15" r="8.75" fill="white" stroke="black" stroke-width="1.5"/>
        <path d="M61.2801 18V12.04H65.1601V12.88H62.2241V14.672H64.8401V15.512H62.2241V18H61.2801Z" fill="black"/>
        <circle cx="113" cy="75" r="8.75" fill="white" stroke="black" stroke-width="1.5"/>
        <path d="M111.214 78V72.04H115.142V72.88H112.158V74.592H114.982V75.432H112.158V77.16H115.142V78H111.214Z" fill="black"/>
        <circle cx="63" cy="75" r="8.75" fill="white" stroke="black" stroke-width="1.5"/>
        <path d="M57.159 78V72.04H59.111C59.7296 72.04 60.2656 72.1653 60.719 72.416C61.1776 72.6613 61.5323 73.008 61.783 73.456C62.0336 73.904 62.159 74.424 62.159 75.016C62.159 75.6027 62.0336 76.1227 61.783 76.576C61.5323 77.024 61.1776 77.3733 60.719 77.624C60.2656 77.8747 59.7296 78 59.111 78H57.159ZM58.103 77.16H59.127C59.5483 77.16 59.9136 77.072 60.223 76.896C60.5376 76.72 60.7803 76.472 60.951 76.152C61.1216 75.832 61.207 75.4533 61.207 75.016C61.207 74.5787 61.119 74.2027 60.943 73.888C60.7723 73.568 60.5323 73.32 60.223 73.144C59.9136 72.968 59.5483 72.88 59.127 72.88H58.103V77.16ZM63.4727 78L63.8727 76.608H62.9127V75.808H64.0967L64.5527 74.224H63.5927V73.424H64.7847L65.1847 72.04H66.1047L65.7047 73.424H67.1447L67.5367 72.04H68.4567L68.0647 73.424H69.0247V74.224H67.8327L67.3767 75.808H68.3367V76.608H67.1447L66.7527 78H65.8327L66.2247 76.608H64.7927L64.3927 78H63.4727ZM65.0167 75.808H66.4567L66.9127 74.224H65.4727L65.0167 75.808Z" fill="black"/>
        <circle cx="113" cy="35" r="8.75" fill="white" stroke="black" stroke-width="1.5"/>
        <path d="M109.79 38.096C109.369 38.096 108.977 38.0187 108.614 37.864C108.257 37.7093 107.945 37.496 107.678 37.224C107.417 36.9467 107.212 36.6213 107.062 36.248C106.913 35.8747 106.838 35.464 106.838 35.016C106.838 34.5733 106.91 34.1653 107.054 33.792C107.204 33.4133 107.412 33.088 107.678 32.816C107.945 32.5387 108.257 32.3253 108.614 32.176C108.972 32.0213 109.364 31.944 109.79 31.944C110.212 31.944 110.588 32.016 110.918 32.16C111.254 32.304 111.537 32.4933 111.766 32.728C111.996 32.9573 112.161 33.208 112.262 33.48L111.414 33.88C111.286 33.56 111.081 33.3013 110.798 33.104C110.521 32.9013 110.185 32.8 109.79 32.8C109.396 32.8 109.046 32.8933 108.742 33.08C108.438 33.2667 108.201 33.5253 108.03 33.856C107.865 34.1867 107.782 34.5733 107.782 35.016C107.782 35.4587 107.865 35.848 108.03 36.184C108.201 36.5147 108.438 36.7733 108.742 36.96C109.046 37.1413 109.396 37.232 109.79 37.232C110.185 37.232 110.521 37.1333 110.798 36.936C111.081 36.7387 111.286 36.48 111.414 36.16L112.262 36.56C112.161 36.8267 111.996 37.0773 111.766 37.312C111.537 37.5467 111.254 37.736 110.918 37.88C110.588 38.024 110.212 38.096 109.79 38.096ZM113.617 38L114.017 36.608H113.057V35.808H114.241L114.697 34.224H113.737V33.424H114.929L115.329 32.04H116.249L115.849 33.424H117.289L117.681 32.04H118.601L118.209 33.424H119.169V34.224H117.977L117.521 35.808H118.481V36.608H117.289L116.897 38H115.977L116.369 36.608H114.937L114.537 38H113.617ZM115.161 35.808H116.601L117.057 34.224H115.617L115.161 35.808Z" fill="black"/>
        <circle cx="63" cy="35" r="8.75" fill="white" stroke="black" stroke-width="1.5"/>
        <path d="M63.2826 38.096C62.8613 38.096 62.4693 38.0187 62.1066 37.864C61.7493 37.7093 61.4373 37.496 61.1706 37.224C60.9093 36.9467 60.704 36.6213 60.5546 36.248C60.4053 35.8747 60.3306 35.464 60.3306 35.016C60.3306 34.5733 60.4026 34.1653 60.5466 33.792C60.696 33.4133 60.904 33.088 61.1706 32.816C61.4373 32.5387 61.7493 32.3253 62.1066 32.176C62.464 32.0213 62.856 31.944 63.2826 31.944C63.704 31.944 64.08 32.016 64.4106 32.16C64.7466 32.304 65.0293 32.4933 65.2586 32.728C65.488 32.9573 65.6533 33.208 65.7546 33.48L64.9066 33.88C64.7786 33.56 64.5733 33.3013 64.2906 33.104C64.0133 32.9013 63.6773 32.8 63.2826 32.8C62.888 32.8 62.5386 32.8933 62.2346 33.08C61.9306 33.2667 61.6933 33.5253 61.5226 33.856C61.3573 34.1867 61.2746 34.5733 61.2746 35.016C61.2746 35.4587 61.3573 35.848 61.5226 36.184C61.6933 36.5147 61.9306 36.7733 62.2346 36.96C62.5386 37.1413 62.888 37.232 63.2826 37.232C63.6773 37.232 64.0133 37.1333 64.2906 36.936C64.5733 36.7387 64.7786 36.48 64.9066 36.16L65.7546 36.56C65.6533 36.8267 65.488 37.0773 65.2586 37.312C65.0293 37.5467 64.7466 37.736 64.4106 37.88C64.08 38.024 63.704 38.096 63.2826 38.096Z" fill="black"/>
        <circle cx="113" cy="95" r="8.75" fill="white" stroke="black" stroke-width="1.5"/>
        <path d="M110.846 98V92.04H113.358C113.732 92.04 114.054 92.1067 114.326 92.24C114.598 92.368 114.806 92.5547 114.95 92.8C115.094 93.04 115.166 93.3253 115.166 93.656C115.166 93.944 115.092 94.208 114.942 94.448C114.798 94.6827 114.572 94.8693 114.262 95.008V94.608C114.534 94.7147 114.756 94.8507 114.926 95.016C115.097 95.176 115.22 95.3573 115.294 95.56C115.374 95.7627 115.414 95.976 115.414 96.2C115.414 96.76 115.23 97.2 114.862 97.52C114.5 97.84 114.001 98 113.366 98H110.846ZM111.79 97.16H113.438C113.753 97.16 114.004 97.0747 114.19 96.904C114.377 96.728 114.47 96.496 114.47 96.208C114.47 95.9147 114.377 95.6827 114.19 95.512C114.004 95.336 113.753 95.248 113.438 95.248H111.79V97.16ZM111.79 94.416H113.382C113.638 94.416 113.844 94.344 113.998 94.2C114.153 94.0507 114.23 93.856 114.23 93.616C114.23 93.376 114.153 93.1893 113.998 93.056C113.844 92.9227 113.638 92.856 113.382 92.856H111.79V94.416Z" fill="black"/>
        <circle cx="63" cy="95" r="8.75" fill="white" stroke="black" stroke-width="1.5"/>
        <path d="M56.8263 98L58.9223 92.04H60.0903L62.1863 98H61.1783L60.7223 96.664H58.2983L57.8343 98H56.8263ZM58.5703 95.824H60.4343L59.3783 92.704H59.6423L58.5703 95.824ZM63.2773 98L63.6773 96.608H62.7173V95.808H63.9013L64.3573 94.224H63.3973V93.424H64.5893L64.9893 92.04H65.9093L65.5093 93.424H66.9493L67.3413 92.04H68.2613L67.8693 93.424H68.8293V94.224H67.6373L67.1813 95.808H68.1413V96.608H66.9493L66.5573 98H65.6373L66.0293 96.608H64.5973L64.1973 98H63.2773ZM64.8213 95.808H66.2613L66.7173 94.224H65.2773L64.8213 95.808Z" fill="black"/>
        <circle cx="113" cy="55" r="8.75" fill="white" stroke="black" stroke-width="1.5"/>
        <path d="M110.318 58L112.414 52.04H113.582L115.678 58H114.67L114.214 56.664H111.79L111.326 58H110.318ZM112.062 55.824H113.926L112.87 52.704H113.134L112.062 55.824Z" fill="black"/>
    </g>
    <defs>
        <clipPath id="clip0_1403_669">
            <rect width="130" height="130" fill="white"/>
        </clipPath>
    </defs>
</svg>
