<svg width="117" height="126" viewBox="0 0 117 126" fill="none" xmlns="http://www.w3.org/2000/svg">
    <mask id="mask0_1408_704" style="mask-type:alpha" maskUnits="userSpaceOnUse" x="15" y="68" width="89" height="30">
        <rect x="15" y="68" width="89" height="30" fill="#D9D9D9"/>
    </mask>
    <g mask="url(#mask0_1408_704)">
        <path d="M71.5 118.5C60.3 120.5 48.8333 119 44.5 118C38.8333 116 27.5 108.6 27.5 95C27.5 78 36 72.5 39.5 68C43 63.5 71.5 64 81 69C90.5 74 89.5 93.5 89.5 105.5C89.5 115.1 77.5 118.167 71.5 118.5Z" fill="white" stroke="#262626" stroke-width="3"/>
    </g>
    <path d="M27.4999 93C21.4999 83.8 29.9999 72.1667 34.9999 67.5L46 73.5C44.3333 77.3333 40 85 47.5 91C54.9325 96.946 55.9815 105.347 56.4864 109.391L56.5 109.5C56.9 112.7 53.5479 110.024 52.5 109.5C51.5 109 50.6 108.9 51 110.5C51.4 112.1 50 113 48.5 112C47.5117 111.341 46.3 108.7 45.5 111.5C44.7 114.3 42.1667 113 41 112C39 109.5 33.4999 102.2 27.4999 93Z" fill="#8C969E" stroke="#262626" stroke-width="3" stroke-linecap="round"/>
    <path d="M89.033 91.5C95.033 82.3 86.533 70.6667 81.533 66L70.533 72C72.1996 75.8333 76.533 83.5 69.033 89.5C61.6005 95.446 60.5515 103.847 60.0466 107.891L60.033 108C59.633 111.2 62.9851 108.524 64.033 108C65.033 107.5 65.933 107.4 65.533 109C65.133 110.6 66.533 111.5 68.033 110.5C69.0212 109.841 70.233 107.2 71.033 110C71.833 112.8 74.3663 111.5 75.533 110.5C77.533 108 83.033 100.7 89.033 91.5Z" fill="#8C969E" stroke="#262626" stroke-width="3" stroke-linecap="round"/>
    <circle cx="27" cy="27" r="22.5" fill="#8C969E" stroke="#262626" stroke-width="3"/>
    <circle cx="90" cy="27" r="22.5" fill="#8C969E" stroke="#262626" stroke-width="3"/>
    <path d="M59 7.5C78.01 7.5 93.5 22.4553 93.5 41C93.5 59.5447 78.01 74.5 59 74.5C39.99 74.5 24.5 59.5447 24.5 41C24.5 22.4553 39.99 7.5 59 7.5Z" fill="#8C969E" stroke="#262626" stroke-width="3"/>
    <circle cx="27" cy="27" r="21" fill="#8C969E"/>
    <circle cx="90" cy="27" r="21" fill="#8C969E"/>
    <circle cx="88.5" cy="28.5" r="15.5" fill="#9CA6AD"/>
    <circle cx="27.5" cy="27.5" r="15.5" fill="#9CA6AD"/>
    <ellipse cx="59" cy="41" rx="33" ry="32" fill="#8C969E"/>
    <circle cx="48" cy="32" r="5" fill="#262626"/>
    <circle cx="69" cy="32" r="5" fill="#262626"/>
    <circle cx="58.5" cy="46.5" r="8.5" fill="#262626"/>
    <path d="M42 55C42 55 45 60.5 53 62.5C61.976 64.744 67.5 60 67.5 60" stroke="#262626" stroke-width="3" stroke-linecap="round"/>
</svg>