<svg width="117" height="126" viewBox="0 0 117 126" fill="none" xmlns="http://www.w3.org/2000/svg">
    <path d="M71.5 117.5C60.3 119.5 48.8333 118 44.5 117C38.8333 115 27.5 107.6 27.5 94C27.5 77 36 71.5 39.5 67C43 62.5 71.5 63 81 68C90.5 73 89.5 92.5 89.5 104.5C89.5 114.1 77.5 117.167 71.5 117.5Z" fill="white" stroke="#262626" stroke-width="3"/>
    <path d="M34.5 99.5C40.1667 104.167 49.6 114.8 42 120C39.5 122.5 31.8 125.1 21 115.5C10.2 105.9 13.5 100.833 16.5 99.5C16.1667 97.6667 16.2 94 19 94C19.8457 93.8792 21.5147 94.0912 22.9785 95.436C22.1222 94.2872 22.9302 92.0616 23.5 91C25 88.5 26 90.5 27.5 93.5C28.7 95.9 32.6667 98.5 34.5 99.5Z" fill="#8C969E"/>
    <path d="M16.5 99.5C13.5 100.833 10.2 105.9 21 115.5C31.8 125.1 39.5 122.5 42 120C49.6 114.8 40.1667 104.167 34.5 99.5C32.6667 98.5 28.7 95.9 27.5 93.5C26 90.5 25 88.5 23.5 91C22.8703 92.1731 21.9499 94.7674 23.3055 95.7597M16.5 99.5L19.5 102.5M16.5 99.5C16.1667 97.6667 16.2 94 19 94C19.9095 93.8701 21.771 94.125 23.3055 95.7597M24.5 97.5C24.1473 96.7945 23.7395 96.2219 23.3055 95.7597" stroke="#262626" stroke-width="3" stroke-linecap="round"/>
    <path d="M81.3407 99.6324C75.674 104.299 66.2407 114.932 73.8407 120.132C76.3407 122.632 84.0407 125.232 94.8407 115.632C105.641 106.032 102.341 100.966 99.3407 99.6324C99.674 97.7991 99.6407 94.1324 96.8407 94.1324C95.995 94.0116 94.326 94.2236 92.8622 95.5684C93.7185 94.4195 92.9105 92.194 92.3407 91.1324C90.8407 88.6324 89.8407 90.6324 88.3407 93.6324C87.1407 96.0324 83.174 98.6324 81.3407 99.6324Z" fill="#8C969E"/>
    <path d="M99.3407 99.6324C102.341 100.966 105.641 106.032 94.8407 115.632C84.0407 125.232 76.3407 122.632 73.8407 120.132C66.2407 114.932 75.674 104.299 81.3407 99.6324C83.174 98.6324 87.1407 96.0324 88.3407 93.6324C89.8407 90.6324 90.8407 88.6324 92.3407 91.1324C92.9704 92.3055 93.8908 94.8998 92.5352 95.892M99.3407 99.6324L96.3407 102.632M99.3407 99.6324C99.674 97.7991 99.6407 94.1324 96.8407 94.1324C95.9312 94.0025 94.0697 94.2574 92.5352 95.892M91.3407 97.6324C91.6934 96.9269 92.1012 96.3543 92.5352 95.892" stroke="#262626" stroke-width="3" stroke-linecap="round"/>
    <path d="M27.4999 92C21.4999 82.8 29.9999 71.1667 34.9999 66.5L46 72.5C44.3333 76.3333 40 84 47.5 90C54.9325 95.946 55.9815 104.347 56.4864 108.391L56.5 108.5C56.9 111.7 53.5479 109.024 52.5 108.5C51.5 108 50.6 107.9 51 109.5C51.4 111.1 50 112 48.5 111C47.5117 110.341 46.3 107.7 45.5 110.5C44.7 113.3 42.1667 112 41 111C39 108.5 33.4999 101.2 27.4999 92Z" fill="#8C969E" stroke="#262626" stroke-width="3" stroke-linecap="round"/>
    <path d="M89.033 90.5C95.033 81.3 86.533 69.6667 81.533 65L70.533 71C72.1996 74.8333 76.533 82.5 69.033 88.5C61.6005 94.446 60.5515 102.847 60.0466 106.891L60.033 107C59.633 110.2 62.9851 107.524 64.033 107C65.033 106.5 65.933 106.4 65.533 108C65.133 109.6 66.533 110.5 68.033 109.5C69.0212 108.841 70.233 106.2 71.033 109C71.833 111.8 74.3663 110.5 75.533 109.5C77.533 107 83.033 99.7 89.033 90.5Z" fill="#8C969E" stroke="#262626" stroke-width="3" stroke-linecap="round"/>
    <circle cx="27" cy="26" r="22.5" fill="#8C969E" stroke="#262626" stroke-width="3"/>
    <circle cx="90" cy="26" r="22.5" fill="#8C969E" stroke="#262626" stroke-width="3"/>
    <path d="M59 6.5C78.01 6.5 93.5 21.4553 93.5 40C93.5 58.5447 78.01 73.5 59 73.5C39.99 73.5 24.5 58.5447 24.5 40C24.5 21.4553 39.99 6.5 59 6.5Z" fill="#8C969E" stroke="#262626" stroke-width="3"/>
    <circle cx="27" cy="26" r="21" fill="#8C969E"/>
    <circle cx="90" cy="26" r="21" fill="#8C969E"/>
    <circle cx="88.5" cy="27.5" r="15.5" fill="#9CA6AD"/>
    <circle cx="27.5" cy="26.5" r="15.5" fill="#9CA6AD"/>
    <ellipse cx="59" cy="40" rx="33" ry="32" fill="#8C969E"/>
    <circle cx="48" cy="31" r="5" fill="#262626"/>
    <circle cx="69" cy="31" r="5" fill="#262626"/>
    <circle cx="58.5" cy="45.5" r="8.5" fill="#262626"/>
    <path d="M42 54C42 54 45 59.5 53 61.5C61.976 63.744 67.5 59 67.5 59" stroke="#262626" stroke-width="3" stroke-linecap="round"/>
</svg>
