<svg width="152" height="134" viewBox="0 0 152 134" fill="none" xmlns="http://www.w3.org/2000/svg">
    <g clip-path="url(#clip0_1402_229)">
        <path d="M81.5 116.5C70.3 118.5 58.8333 117 54.5 116C48.8333 114 37.5 106.6 37.5 93C37.5 76 46 70.5 49.5 66C53 61.5 81.5 62 91 67C100.5 72 99.5 91.5 99.5 103.5C99.5 113.1 87.5 116.167 81.5 116.5Z" fill="white" stroke="#262626" stroke-width="3"/>
        <path d="M44.5 98.5C50.1667 103.167 59.6 113.8 52 119C49.5 121.5 41.8 124.1 31 114.5C20.2 104.9 23.5 99.8333 26.5 98.5C26.1667 96.6667 26.2 93 29 93C29.8457 92.8792 31.5147 93.0912 32.9785 94.436C32.1222 93.2872 32.9302 91.0616 33.5 90C35 87.5 36 89.5 37.5 92.5C38.7 94.9 42.6667 97.5 44.5 98.5Z" fill="#8C969E"/>
        <path d="M26.5 98.5C23.5 99.8333 20.2 104.9 31 114.5C41.8 124.1 49.5 121.5 52 119C59.6 113.8 50.1667 103.167 44.5 98.5C42.6667 97.5 38.7 94.9 37.5 92.5C36 89.5 35 87.5 33.5 90C32.8703 91.1731 31.9499 93.7674 33.3055 94.7597M26.5 98.5L29.5 101.5M26.5 98.5C26.1667 96.6667 26.2 93 29 93C29.9095 92.8701 31.771 93.125 33.3055 94.7597M34.5 96.5C34.1473 95.7945 33.7395 95.2219 33.3055 94.7597" stroke="#262626" stroke-width="3" stroke-linecap="round"/>
        <path d="M91.3407 98.6324C85.674 103.299 76.2407 113.932 83.8407 119.132C86.3407 121.632 94.0407 124.232 104.841 114.632C115.641 105.032 112.341 99.9657 109.341 98.6324C109.674 96.7991 109.641 93.1324 106.841 93.1324C105.995 93.0116 104.326 93.2236 102.862 94.5684C103.718 93.4195 102.911 91.194 102.341 90.1324C100.841 87.6324 99.8407 89.6324 98.3407 92.6324C97.1407 95.0324 93.174 97.6324 91.3407 98.6324Z" fill="#8C969E"/>
        <path d="M109.341 98.6324C112.341 99.9657 115.641 105.032 104.841 114.632C94.0407 124.232 86.3407 121.632 83.8407 119.132C76.2407 113.932 85.674 103.299 91.3407 98.6324C93.174 97.6324 97.1407 95.0324 98.3407 92.6324C99.8407 89.6324 100.841 87.6324 102.341 90.1324C102.97 91.3055 103.891 93.8998 102.535 94.892M109.341 98.6324L106.341 101.632M109.341 98.6324C109.674 96.7991 109.641 93.1324 106.841 93.1324C105.931 93.0025 104.07 93.2574 102.535 94.892M101.341 96.6324C101.693 95.9269 102.101 95.3543 102.535 94.892" stroke="#262626" stroke-width="3" stroke-linecap="round"/>
        <path d="M110.477 65.0275C107.92 54.3457 93.6281 52.5224 86.8018 52.9459L83.5981 65.0594C87.5278 66.484 96.0747 68.6068 95.2769 78.1783C94.4863 87.6637 99.8668 94.2005 102.457 97.3468L102.527 97.4317C104.576 99.9219 104.936 95.6478 105.276 94.5266C105.6 93.4566 106.146 92.7342 107.033 94.1246C107.921 95.5149 109.537 95.1168 109.841 93.34C110.042 92.1693 108.957 89.4737 111.54 90.8174C114.124 92.1611 114.921 89.4276 114.997 87.8928C114.556 84.7218 113.035 75.7092 110.477 65.0275Z" fill="#8C969E" stroke="#262626" stroke-width="3" stroke-linecap="round"/>
        <path d="M125.227 76.6038C125.823 76.4727 126.563 76.4085 127.379 76.3874C129.022 76.3449 131.143 76.473 133.411 76.6902C137.955 77.1254 143.212 77.9339 146.666 78.5457C148.178 78.8138 149.298 79.3548 149.884 80.3289C150.461 81.2892 150.339 82.3804 150.12 83.2754C149.756 84.765 148.393 85.451 147.26 85.684C146.127 85.9168 144.764 85.8057 143.872 85.2349C143.426 84.9496 143.136 84.8844 142.937 84.8873C142.742 84.8901 142.5 84.96 142.151 85.2048C140.479 86.3752 139.401 86.9229 138.481 87.1881C138.017 87.3215 137.621 87.3755 137.256 87.4129C136.879 87.4516 136.594 87.4692 136.222 87.5268L136.183 87.5326L136.143 87.5362C133.775 87.7122 132.553 87.248 129.958 86.5923C128.993 86.3482 128.407 86.4191 127.656 86.6338C126.905 86.8486 125.724 87.3138 124.057 87.6806L124.059 87.6814L55.4949 103.675L55.4825 103.678C55.076 103.767 54.4629 103.782 53.8672 103.525C53.2137 103.242 52.6621 102.663 52.4604 101.744L51.2082 96.0389C51.1257 95.6633 51.1614 95.157 51.4484 94.6874C51.7539 94.1879 52.2771 93.8367 52.9738 93.6837C53.9412 93.4714 99.3795 84.1239 122.105 79.4508C122.161 79.4055 122.252 79.3256 122.376 79.1944C122.657 78.8951 123.072 78.3768 123.612 77.5334L123.693 77.4184C123.892 77.1634 124.147 76.9975 124.371 76.8878C124.634 76.7588 124.93 76.6694 125.227 76.6038Z" fill="#D8AC88" stroke="#2D241D" stroke-width="2"/>
        <path d="M48.6942 94.2615C49.4238 94.1013 50.145 94.563 50.3052 95.2926L52.019 103.1C52.1791 103.829 51.7175 104.551 50.9879 104.711C50.2583 104.871 49.537 104.409 49.3768 103.68L47.6631 95.8725C47.503 95.143 47.9647 94.4217 48.6942 94.2615Z" stroke="#E83434" stroke-width="0.245933"/>
        <path d="M32.7791 98.085C33.5253 98.1191 34.1025 98.7518 34.0684 99.498L33.7031 107.483C33.6689 108.229 33.0364 108.806 32.2902 108.772C31.544 108.738 30.9668 108.105 31.0009 107.359L31.3662 99.3743C31.4004 98.6282 32.033 98.051 32.7791 98.085Z" stroke="#E83434" stroke-width="0.245933"/>
        <path d="M14.6734 82.6564C0.992922 86.2888 2.59672 97.8967 4.80106 109.373C6.51474 117.18 7.85487 127.587 16.9508 130.311C25.9412 133.004 33.1872 126.852 37.7425 123.229C43.7596 117.376 48.1567 117.621 50.7932 118.161C56.7253 119.377 61.7274 119.223 65.0669 117.231C68.4065 115.239 67.8499 111.27 63.1482 111.358C57.8916 111.456 55.8319 108.138 55.4584 106.436C54.8908 103.85 56.8591 102.643 58.7246 101.877L61.7421 92.9082L60.0651 91.5768C61.3028 90.0461 61.5908 86.1012 61.5518 84.0115C60.9835 76.8344 55.1592 77.2316 51.7309 77.9841C46.0258 79.2364 41.384 87.0536 33.041 84.6045C24.698 82.1555 19.4777 81.6018 14.6734 82.6564Z" fill="url(#paint0_linear_1402_229)" stroke="#333333" stroke-width="3"/>
        <path d="M62.013 111.922C56.8705 112.011 54.9254 108.31 54.5576 106.634C54.2662 105.307 54.7085 104.327 55.4785 103.599L55.268 102.701C54.0669 102.965 53.547 102.03 53.4371 101.53L52.1848 95.8244C52.0266 95.1038 52.7878 94.7479 53.1882 94.66L58.593 93.4736C58.2634 91.9723 57.4359 89.636 49.0357 88.6473C38.7628 87.4381 33.6928 90.4415 32.4551 91.9721L33.4437 96.4761L34.6448 96.2125L34.6448 96.2125C35.2453 96.0807 35.2453 96.0807 35.4431 96.9815L38.0136 108.692C38.1454 109.292 38.1454 109.292 37.5449 109.424L36.3438 109.688L37.4122 114.555C37.4122 114.555 39.5573 114.291 40.0275 116.433C40.4889 118.535 38.412 119.11 38.412 119.11L38.5968 119.952C38.6628 120.252 38.7166 120.498 39.0828 120.732C39.4489 120.966 40.2432 120.316 40.5182 120.102C46.1647 115.715 49.9429 117.155 51.2619 117.429C57.0672 118.634 60.9291 118.454 64.3346 116.763C67.74 115.071 67.3432 111.829 62.013 111.922Z" fill="url(#paint1_linear_1402_229)"/>
        <path d="M16.113 121.619C15.8218 120.293 16.6612 118.981 17.9878 118.69L37.205 114.472C38.5317 114.18 39.8432 115.02 40.1344 116.347C40.4771 117.908 39.5862 118.985 38.2596 119.276L19.0424 123.494C17.7157 123.785 16.4042 122.946 16.113 121.619Z" fill="url(#paint2_linear_1402_229)"/>
        <g filter="url(#filter0_d_1402_229)">
            <path d="M18.0421 120.944C17.8601 120.115 18.3847 119.295 19.2139 119.113C20.043 118.931 20.8627 119.456 21.0448 120.285C21.2268 121.114 20.7021 121.934 19.873 122.116C19.0438 122.298 18.2241 121.773 18.0421 120.944Z" fill="url(#paint3_linear_1402_229)"/>
        </g>
        <g filter="url(#filter1_d_1402_229)">
            <path d="M27.0501 118.967C26.8681 118.138 27.3928 117.318 28.2219 117.136C29.0511 116.954 29.8708 117.479 30.0528 118.308C30.2348 119.137 29.7102 119.957 28.881 120.139C28.0519 120.321 27.2321 119.796 27.0501 118.967Z" fill="url(#paint4_linear_1402_229)"/>
        </g>
        <path d="M35.043 117.527L36.8446 117.132" stroke="#8B8B8B" stroke-width="0.245933"/>
        <path d="M32.4006 118.107L33.6017 117.843" stroke="#8B8B8B" stroke-width="0.245933"/>
        <rect x="33.2239" y="116.982" width="1.8445" height="1.8445" rx="0.92225" transform="rotate(-12.3804 33.2239 116.982)" fill="#262626"/>
        <path d="M21.868 101.094C21.737 100.497 22.1147 99.9071 22.7117 99.7761L34.4822 97.1924C34.6812 97.1487 34.8779 97.2746 34.9216 97.4736L37.268 108.163C37.3117 108.362 37.1858 108.559 36.9868 108.603L25.2163 111.186C24.6193 111.317 24.0291 110.94 23.8981 110.343L21.868 101.094Z" fill="url(#paint5_linear_1402_229)"/>
        <path d="M53.1882 94.66C52.2274 94.871 52.119 95.5242 52.1849 95.8245L52.9758 99.4277L53.4372 101.53C53.7008 102.731 54.7676 102.811 55.2681 102.701L123.832 86.707C127.135 85.982 127.871 85.0336 130.203 85.6232C132.869 86.297 133.902 86.6998 136.069 86.5386C137.693 86.2872 138.303 86.6778 141.577 84.3855C142.485 83.7498 143.313 83.6898 144.411 84.3929C145.61 85.1603 148.693 84.9076 149.149 83.038C149.557 81.3682 149.301 80.0278 146.491 79.53C139.614 78.3118 125.579 76.3148 124.454 78.0725C123.329 79.8301 122.648 80.3574 122.448 80.4014C99.7615 85.0664 54.1491 94.4491 53.1882 94.66Z" fill="#D8AC88"/>
        <path d="M116.431 81.6683L117.838 88.0795M111.31 82.7152L112.754 89.2899M106.506 83.7697L107.949 90.3445M101.978 84.6488L103.479 91.4892M97.4595 85.5717L98.9755 92.4778M93.556 86.4285L95.072 93.3347M89.6299 87.1821L91.1917 94.2971M86.0158 87.9234L87.5885 95.088M82.5369 88.6547L84.1422 95.9679M79.3775 89.226L81.0084 96.6558M76.3749 89.8852L78.0226 97.3919M73.3722 90.5443L75.0199 98.051M70.6698 91.1375L72.3175 98.6442M54.0891 94.4623L55.8687 102.57M55.5905 94.1327L57.3493 102.146M57.3921 93.7373L59.1509 101.75M59.2134 93.4315L60.9526 101.355M61.309 92.9418L63.0544 100.893M63.4322 92.5775L65.1563 100.432M65.8433 92.0911L67.551 99.8707M68.2455 91.5638L69.9382 99.2753" stroke="#8F8F8F" stroke-opacity="0.6" stroke-width="0.18445"/>
        <path d="M109.306 89.0805C110.205 86.3107 112.691 87.6997 113.821 88.7405C114.329 89.4237 115.072 90.455 115.997 91.7778C111.963 96.6367 103.036 96.9971 99.0758 96.5699C98.5493 94.2273 98.3731 92.1566 98.2423 90.6891C97.9561 87.4769 101.211 90.2702 102.24 90.831C103.221 91.3661 104.117 91.498 103.774 89.8848C103.431 88.2716 104.862 87.4218 106.326 88.4744C107.29 89.1679 108.408 91.8504 109.306 89.0805Z" fill="#8C969E" stroke="#262626" stroke-width="3" stroke-linecap="round"/>
        <path d="M33.7359 73.4905C35.9986 62.7424 50.235 60.5268 57.0704 60.7625L60.606 72.7834C56.7169 74.3155 48.2316 76.6725 49.2923 86.2184C50.3434 95.6784 45.1446 102.361 42.6423 105.577L42.5747 105.664C40.5948 108.209 40.1168 103.947 39.7463 102.835C39.3928 101.775 38.8271 101.068 37.9786 102.482C37.13 103.896 35.5037 103.543 35.1501 101.775C34.9172 100.61 35.9279 97.8857 33.3824 99.2999C30.8368 100.714 29.9647 98.0035 29.8468 96.4715C30.2004 93.2895 31.4731 84.2385 33.7359 73.4905Z" fill="#8C969E" stroke="#262626" stroke-width="3" stroke-linecap="round"/>
        <circle cx="37" cy="25" r="22.5" fill="#8C969E" stroke="#262626" stroke-width="3"/>
        <circle cx="100" cy="25" r="22.5" fill="#8C969E" stroke="#262626" stroke-width="3"/>
        <path d="M69 5.5C88.01 5.5 103.5 20.4553 103.5 39C103.5 57.5447 88.01 72.5 69 72.5C49.99 72.5 34.5 57.5447 34.5 39C34.5 20.4553 49.99 5.5 69 5.5Z" fill="#8C969E" stroke="#262626" stroke-width="3"/>
        <circle cx="37" cy="25" r="21" fill="#8C969E"/>
        <circle cx="100" cy="25" r="21" fill="#8C969E"/>
        <circle cx="98.5001" cy="26.5" r="15.5" fill="#9CA6AD"/>
        <circle cx="37.5" cy="25.5" r="15.5" fill="#9CA6AD"/>
        <ellipse cx="69" cy="39" rx="33" ry="32" fill="#8C969E"/>
        <circle cx="58" cy="30" r="5" fill="#262626"/>
        <circle cx="79" cy="30" r="5" fill="#262626"/>
        <circle cx="68.5" cy="44.5" r="8.5" fill="#262626"/>
        <circle cx="59" cy="60" r="4.5" fill="black" fill-opacity="0.22" stroke="#262626" stroke-width="3"/>
    </g>
    <defs>
        <filter id="filter0_d_1402_229" x="18.006" y="119.077" width="3.07483" height="3.3207" filterUnits="userSpaceOnUse" color-interpolation-filters="sRGB">
            <feFlood flood-opacity="0" result="BackgroundImageFix"/>
            <feColorMatrix in="SourceAlpha" type="matrix" values="0 0 0 0 0 0 0 0 0 0 0 0 0 0 0 0 0 0 127 0" result="hardAlpha"/>
            <feOffset dy="0.245933"/>
            <feComposite in2="hardAlpha" operator="out"/>
            <feColorMatrix type="matrix" values="0 0 0 0 0 0 0 0 0 0 0 0 0 0 0 0 0 0 0.28 0"/>
            <feBlend mode="normal" in2="BackgroundImageFix" result="effect1_dropShadow_1402_229"/>
            <feBlend mode="normal" in="SourceGraphic" in2="effect1_dropShadow_1402_229" result="shape"/>
        </filter>
        <filter id="filter1_d_1402_229" x="27.014" y="117.1" width="3.07483" height="3.3207" filterUnits="userSpaceOnUse" color-interpolation-filters="sRGB">
            <feFlood flood-opacity="0" result="BackgroundImageFix"/>
            <feColorMatrix in="SourceAlpha" type="matrix" values="0 0 0 0 0 0 0 0 0 0 0 0 0 0 0 0 0 0 127 0" result="hardAlpha"/>
            <feOffset dy="0.245933"/>
            <feComposite in2="hardAlpha" operator="out"/>
            <feColorMatrix type="matrix" values="0 0 0 0 0 0 0 0 0 0 0 0 0 0 0 0 0 0 0.28 0"/>
            <feBlend mode="normal" in2="BackgroundImageFix" result="effect1_dropShadow_1402_229"/>
            <feBlend mode="normal" in="SourceGraphic" in2="effect1_dropShadow_1402_229" result="shape"/>
        </filter>
        <linearGradient id="paint0_linear_1402_229" x1="29.426" y1="79.4181" x2="39.9316" y2="127.279" gradientUnits="userSpaceOnUse">
            <stop stop-color="white"/>
            <stop offset="1" stop-color="#E1E1E1"/>
        </linearGradient>
        <linearGradient id="paint1_linear_1402_229" x1="46.0555" y1="87.3267" x2="53.146" y2="119.629" gradientUnits="userSpaceOnUse">
            <stop stop-color="#2F2F2F"/>
            <stop offset="1"/>
        </linearGradient>
        <linearGradient id="paint2_linear_1402_229" x1="27.5964" y1="116.581" x2="28.651" y2="121.385" gradientUnits="userSpaceOnUse">
            <stop stop-color="#D9D9D9"/>
            <stop offset="1" stop-color="#D9D9D9"/>
        </linearGradient>
        <linearGradient id="paint3_linear_1402_229" x1="19.2139" y1="119.113" x2="19.873" y2="122.116" gradientUnits="userSpaceOnUse">
            <stop stop-color="#ACACAC"/>
            <stop offset="1" stop-color="#6C6C6C"/>
        </linearGradient>
        <linearGradient id="paint4_linear_1402_229" x1="28.2219" y1="117.136" x2="28.881" y2="120.139" gradientUnits="userSpaceOnUse">
            <stop stop-color="#ACACAC"/>
            <stop offset="1" stop-color="#6C6C6C"/>
        </linearGradient>
        <linearGradient id="paint5_linear_1402_229" x1="28.2366" y1="98.5633" x2="30.7412" y2="109.974" gradientUnits="userSpaceOnUse">
            <stop stop-color="#D9D9D9"/>
            <stop offset="1" stop-color="#B4B4B4"/>
        </linearGradient>
        <clipPath id="clip0_1402_229">
            <rect width="152" height="134" fill="white"/>
        </clipPath>
    </defs>
</svg>
