<svg xmlns="http://www.w3.org/2000/svg" width="100%" height="100%" fill="none" viewBox="0 0 831 120">
    <g class="Fretboard Per note">
        <g class="Fretboard">
            <g class="Group 7">
                <g class="Group 6">
                    <g class="Group 3">
                        <g class="Rectangle 1">
                            <mask id="a" width="806" height="102" x="25" y="9" fill="#000" class="a" maskUnits="userSpaceOnUse">
                                <path fill="#fff" d="M25 9h806v102H25z"/>
                                <path d="M29 10h800v100H29V10Z"/>
                            </mask>
                            <path fill="#fff" d="M29 10h800v100H29V10Z"/>
                            <path fill="#000" d="M29 10V9h-4v1h4Zm800 0h2V9h-2v1Zm0 100v1h2v-1h-2Zm-800 0h-4v1h4v-1Zm0-99h800V9H29v2Zm798-1v100h4V10h-4Zm2 99H29v2h800v-2Zm-796 1V10h-8v100h8Z" mask="url(#a)"/>
                        </g>
                        <g class="Group 1">
                            <path fill="#D9D9D9" fill-opacity=".01" stroke="#000" d="M28.5 9.5h51v101h-51z" class="Rectangle 8"/>
                            <path fill="#D9D9D9" fill-opacity=".01" stroke="#000" d="M78.5 9.5h51v101h-51z" class="Rectangle 9"/>
                            <path fill="#D9D9D9" fill-opacity=".01" stroke="#000" d="M128.5 9.5h51v101h-51z" class="Rectangle 10"/>
                            <path fill="#D9D9D9" fill-opacity=".01" stroke="#000" d="M178.5 9.5h51v101h-51z" class="Rectangle 11"/>
                            <path fill="#D9D9D9" fill-opacity=".01" stroke="#000" d="M228.5 9.5h51v101h-51z" class="Rectangle 12"/>
                            <path fill="#D9D9D9" fill-opacity=".01" stroke="#000" d="M278.5 9.5h51v101h-51z" class="Rectangle 13"/>
                            <path fill="#D9D9D9" fill-opacity=".01" stroke="#000" d="M328.5 9.5h51v101h-51z" class="Rectangle 14"/>
                            <path fill="#D9D9D9" fill-opacity=".01" stroke="#000" d="M378.5 9.5h51v101h-51z" class="Rectangle 15"/>
                            <path fill="#D9D9D9" fill-opacity=".01" stroke="#000" d="M428.5 9.5h51v101h-51z" class="Rectangle 16"/>
                            <path fill="#D9D9D9" fill-opacity=".01" stroke="#000" d="M478.5 9.5h51v101h-51z" class="Rectangle 17"/>
                            <path fill="#D9D9D9" fill-opacity=".01" stroke="#000" d="M528.5 9.5h51v101h-51z" class="Rectangle 18"/>
                            <path fill="#D9D9D9" fill-opacity=".01" stroke="#000" d="M578.5 9.5h51v101h-51z" class="Rectangle 19"/>
                            <path fill="#D9D9D9" fill-opacity=".01" stroke="#000" d="M628.5 9.5h51v101h-51z" class="Rectangle 20"/>
                            <path fill="#D9D9D9" fill-opacity=".01" stroke="#000" d="M678.5 9.5h51v101h-51z" class="Rectangle 21"/>
                            <path fill="#D9D9D9" fill-opacity=".01" stroke="#000" d="M728.5 9.5h51v101h-51z" class="Rectangle 22"/>
                            <path fill="#D9D9D9" fill-opacity=".01" stroke="#000" d="M778.5 9.5h51v101h-51z" class="Rectangle 23"/>
                        </g>
                        <g class="Group 2">
                            <path fill="#fff" fill-opacity=".01" stroke="#000" d="M28.5 9.5h801v21h-801z" class="Rectangle 2"/>
                            <path fill="#fff" fill-opacity=".01" stroke="#000" d="M28.5 29.5h801v21h-801z" class="Rectangle 3"/>
                            <path fill="#fff" fill-opacity=".01" stroke="#000" d="M28.5 49.5h801v21h-801z" class="Rectangle 4"/>
                            <path fill="#fff" fill-opacity=".01" stroke="#000" d="M28.5 69.5h801v21h-801z" class="Rectangle 5"/>
                            <path fill="#fff" fill-opacity=".01" stroke="#000" d="M28.5 89.5h801v21h-801z" class="Rectangle 6"/>
                        </g>
                    </g>
                    <g class="Side-Notes">
                        <path fill="#000" d="M6.27 34v-8.94h3.768c.56 0 1.044.1 1.452.3.408.192.72.472.936.84.216.36.324.788.324 1.284 0 .432-.112.828-.336 1.188-.216.352-.556.632-1.02.84v-.6c.408.16.74.364.996.612.256.24.44.512.552.816.12.304.18.624.18.96 0 .84-.276 1.5-.828 1.98-.544.48-1.292.72-2.244.72H6.27Zm1.416-1.26h2.472c.472 0 .848-.128 1.128-.384.28-.264.42-.612.42-1.044 0-.44-.14-.788-.42-1.044-.28-.264-.656-.396-1.128-.396H7.686v2.868Zm0-4.116h2.388c.384 0 .692-.108.924-.324.232-.224.348-.516.348-.876s-.116-.64-.348-.84c-.232-.2-.54-.3-.924-.3H7.686v2.34Z" class="B"/>
                        <path fill="#000" d="M6.82 14V5.06h5.893v1.26H8.236v2.568h4.236v1.26H8.236v2.592h4.476V14H6.82Z" class="E"/>
                        <path fill="#000" d="M9.731 54.144a4.45 4.45 0 0 1-1.764-.348 4.526 4.526 0 0 1-1.416-.96 4.498 4.498 0 0 1-.936-1.464 4.933 4.933 0 0 1-.336-1.848c0-.664.108-1.276.324-1.836a4.335 4.335 0 0 1 .936-1.464c.4-.416.868-.736 1.404-.96a4.394 4.394 0 0 1 1.764-.348c.632 0 1.196.108 1.692.324.504.216.928.5 1.272.852.344.344.592.72.744 1.128l-1.26.612a2.46 2.46 0 0 0-.912-1.176c-.424-.304-.936-.456-1.536-.456-.592 0-1.116.14-1.572.42a2.89 2.89 0 0 0-1.068 1.164c-.248.496-.372 1.076-.372 1.74 0 .664.128 1.248.384 1.752.264.496.624.884 1.08 1.164.456.272.98.408 1.572.408.496 0 .948-.1 1.356-.3.416-.208.748-.496.996-.864a2.32 2.32 0 0 0 .372-1.308v-.612l.636.576H9.707v-1.2h4.152v.84c0 .656-.112 1.244-.336 1.764a3.925 3.925 0 0 1-.912 1.308c-.384.36-.824.632-1.32.816a4.449 4.449 0 0 1-1.56.276Z" class="G"/>
                        <path fill="#000" d="M5.977 74v-8.94h2.928c.928 0 1.732.188 2.412.564.688.368 1.22.888 1.596 1.56.376.672.564 1.452.564 2.34 0 .88-.188 1.66-.564 2.34a3.972 3.972 0 0 1-1.596 1.572c-.68.376-1.484.564-2.412.564H5.977Zm1.416-1.26h1.536c.632 0 1.18-.132 1.644-.396a2.718 2.718 0 0 0 1.092-1.116c.256-.48.384-1.048.384-1.704 0-.656-.132-1.22-.396-1.692a2.739 2.739 0 0 0-1.08-1.116c-.464-.264-1.012-.396-1.644-.396H7.393v6.42Z" class="D"/>
                        <path fill="#000" d="m5.478 94 3.144-8.94h1.752L13.518 94h-1.512l-.684-2.004H7.686L6.99 94H5.478Zm2.616-3.264h2.796l-1.584-4.68h.396l-1.608 4.68Z" class="A"/>
                        <path fill="#000" d="M6.82 114v-8.94h5.893v1.26H8.236v2.568h4.236v1.26H8.236v2.592h4.476V114H6.82Z" class="E"/>
                    </g>
                </g>
                <g class="dots">
                    <circle cx="154" cy="60" r="5.5" fill="#212121" stroke="#000" class="Ellipse 1"/>
                    <circle cx="254" cy="60" r="5.5" fill="#212121" stroke="#000" class="Ellipse 2"/>
                    <circle cx="354" cy="60" r="5.5" fill="#212121" stroke="#000" class="Ellipse 3"/>
                    <circle cx="454" cy="60" r="5.5" fill="#212121" stroke="#000" class="Ellipse 4"/>
                    <circle cx="604" cy="40" r="5.5" fill="#212121" stroke="#000" class="Ellipse 5"/>
                    <circle cx="604" cy="80" r="5.5" fill="#212121" stroke="#000" class="Ellipse 6"/>
                    <circle cx="754" cy="60" r="5.5" fill="#212121" stroke="#000" class="Ellipse 7"/>
                </g>
            </g>
        </g>
        <path fill="#000" d="M29 11h800V9H29v2Zm800 98H29v2h800v-2Z" class="Rectangle 2"/>
        <g class="Notes">
            <g class="G#">
                <g class="G#-Note row-1 row-e row-e-1">
                    <circle cx="204" cy="110" r="8.75" fill="#fff" stroke="#000" stroke-width="1.5" class="Ellipse 8"/>
                    <path fill="#000" d="M200.662 113.096c-.421 0-.813-.077-1.176-.232a3.027 3.027 0 0 1-.944-.64 2.988 2.988 0 0 1-.624-.976 3.294 3.294 0 0 1-.224-1.232c0-.443.072-.851.216-1.224a2.877 2.877 0 0 1 2.736-1.848c.421 0 .797.072 1.128.216.336.144.619.333.848.568.229.229.395.48.496.752l-.84.408a1.64 1.64 0 0 0-.608-.784c-.283-.203-.624-.304-1.024-.304-.395 0-.744.093-1.048.28a1.929 1.929 0 0 0-.712.776c-.165.331-.248.717-.248 1.16 0 .443.085.832.256 1.168.176.331.416.589.72.776.304.181.653.272 1.048.272.331 0 .632-.067.904-.2.277-.139.499-.331.664-.576a1.55 1.55 0 0 0 .248-.872v-.408l.424.384h-2.256v-.8h2.768v.56c0 .437-.075.829-.224 1.176a2.594 2.594 0 0 1-1.488 1.416 2.958 2.958 0 0 1-1.04.184Zm4.1-.096.4-1.392h-.96v-.8h1.184l.456-1.584h-.96v-.8h1.192l.4-1.384h.92l-.4 1.384h1.44l.392-1.384h.92l-.392 1.384h.96v.8h-1.192l-.456 1.584h.96v.8h-1.192l-.392 1.392h-.92l.392-1.392h-1.432l-.4 1.392h-.92Zm1.544-2.192h1.44l.456-1.584h-1.44l-.456 1.584Z" class="G#"/>
                </g>
                <g class="G#-Note row-1 row-e row-e-1">
                    <circle cx="804" cy="110" r="8.75" fill="#fff" stroke="#000" stroke-width="1.5" class="Ellipse 8"/>
                    <path fill="#000" d="M800.662 113.096c-.421 0-.813-.077-1.176-.232a3.027 3.027 0 0 1-.944-.64 2.988 2.988 0 0 1-.624-.976 3.294 3.294 0 0 1-.224-1.232c0-.443.072-.851.216-1.224a2.877 2.877 0 0 1 2.736-1.848c.421 0 .797.072 1.128.216.336.144.619.333.848.568.229.229.395.48.496.752l-.84.408a1.64 1.64 0 0 0-.608-.784c-.283-.203-.624-.304-1.024-.304-.395 0-.744.093-1.048.28a1.929 1.929 0 0 0-.712.776c-.165.331-.248.717-.248 1.16 0 .443.085.832.256 1.168.176.331.416.589.72.776.304.181.653.272 1.048.272.331 0 .632-.067.904-.2.277-.139.499-.331.664-.576a1.55 1.55 0 0 0 .248-.872v-.408l.424.384h-2.256v-.8h2.768v.56c0 .437-.075.829-.224 1.176a2.594 2.594 0 0 1-1.488 1.416 2.958 2.958 0 0 1-1.04.184Zm4.1-.096.4-1.392h-.96v-.8h1.184l.456-1.584h-.96v-.8h1.192l.4-1.384h.92l-.4 1.384h1.44l.392-1.384h.92l-.392 1.384h.96v.8h-1.192l-.456 1.584h.96v.8h-1.192l-.392 1.392h-.92l.392-1.392h-1.432l-.4 1.392h-.92Zm1.544-2.192h1.44l.456-1.584h-1.44l-.456 1.584Z" class="G#"/>
                </g>
                <g class="G#-Note row-4 row-g">
                    <circle cx="54" cy="50" r="8.75" fill="#fff" stroke="#000" stroke-width="1.5" class="Ellipse 8"/>
                    <path fill="#000" d="M50.662 53.096c-.421 0-.813-.077-1.176-.232a3.018 3.018 0 0 1-.944-.64 2.998 2.998 0 0 1-.624-.976 3.289 3.289 0 0 1-.224-1.232c0-.443.072-.85.216-1.224.15-.379.357-.704.624-.976.267-.277.579-.49.936-.64.357-.155.75-.232 1.176-.232a2.8 2.8 0 0 1 1.128.216 2.6 2.6 0 0 1 .848.568c.23.23.395.48.496.752l-.84.408a1.64 1.64 0 0 0-.608-.784c-.283-.203-.624-.304-1.024-.304-.395 0-.744.093-1.048.28a1.927 1.927 0 0 0-.712.776c-.165.33-.248.717-.248 1.16 0 .443.085.832.256 1.168.176.33.416.59.72.776.304.181.653.272 1.048.272.33 0 .632-.067.904-.2.277-.139.499-.33.664-.576.165-.25.248-.541.248-.872v-.408l.424.384h-2.256v-.8h2.768v.56c0 .437-.075.83-.224 1.176a2.592 2.592 0 0 1-1.488 1.416c-.33.123-.677.184-1.04.184Zm4.1-.096.4-1.392h-.96v-.8h1.184l.456-1.584h-.96v-.8h1.192l.4-1.384h.92l-.4 1.384h1.44l.392-1.384h.92l-.392 1.384h.96v.8h-1.192l-.456 1.584h.96v.8h-1.192L58.042 53h-.92l.392-1.392h-1.432l-.4 1.392h-.92Zm1.544-2.192h1.44l.456-1.584h-1.44l-.456 1.584Z" class="G#"/>
                </g>
                <g class="G#-Note row-4 row-g">
                    <circle cx="654" cy="50" r="8.75" fill="#fff" stroke="#000" stroke-width="1.5" class="Ellipse 8"/>
                    <path fill="#000" d="M650.662 53.096c-.421 0-.813-.077-1.176-.232a3.022 3.022 0 0 1-.944-.64 2.988 2.988 0 0 1-.624-.976 3.295 3.295 0 0 1-.224-1.232c0-.443.072-.85.216-1.224a2.88 2.88 0 0 1 2.736-1.848c.421 0 .797.072 1.128.216.336.144.619.333.848.568.229.23.395.48.496.752l-.84.408a1.64 1.64 0 0 0-.608-.784c-.283-.203-.624-.304-1.024-.304a1.96 1.96 0 0 0-1.048.28 1.929 1.929 0 0 0-.712.776c-.165.33-.248.717-.248 1.16 0 .443.085.832.256 1.168.176.33.416.59.72.776.304.181.653.272 1.048.272.331 0 .632-.067.904-.2.277-.139.499-.33.664-.576a1.55 1.55 0 0 0 .248-.872v-.408l.424.384h-2.256v-.8h2.768v.56c0 .437-.075.83-.224 1.176a2.589 2.589 0 0 1-1.488 1.416 2.965 2.965 0 0 1-1.04.184Zm4.1-.096.4-1.392h-.96v-.8h1.184l.456-1.584h-.96v-.8h1.192l.4-1.384h.92l-.4 1.384h1.44l.392-1.384h.92l-.392 1.384h.96v.8h-1.192l-.456 1.584h.96v.8h-1.192L658.042 53h-.92l.392-1.392h-1.432l-.4 1.392h-.92Zm1.544-2.192h1.44l.456-1.584h-1.44l-.456 1.584Z" class="G#"/>
                </g>
                <g class="G#-Note row-2 row-a">
                    <circle cx="554" cy="90" r="8.75" fill="#fff" stroke="#000" stroke-width="1.5" class="Ellipse 8"/>
                    <path fill="#000" d="M550.662 93.096c-.421 0-.813-.077-1.176-.232a3.022 3.022 0 0 1-.944-.64 2.988 2.988 0 0 1-.624-.976 3.295 3.295 0 0 1-.224-1.232c0-.443.072-.85.216-1.224a2.88 2.88 0 0 1 2.736-1.848c.421 0 .797.072 1.128.216.336.144.619.333.848.568.229.23.395.48.496.752l-.84.408a1.64 1.64 0 0 0-.608-.784c-.283-.203-.624-.304-1.024-.304a1.96 1.96 0 0 0-1.048.28 1.929 1.929 0 0 0-.712.776c-.165.33-.248.717-.248 1.16 0 .443.085.832.256 1.168.176.33.416.59.72.776.304.181.653.272 1.048.272.331 0 .632-.067.904-.2.277-.139.499-.33.664-.576a1.55 1.55 0 0 0 .248-.872v-.408l.424.384h-2.256v-.8h2.768v.56c0 .437-.075.83-.224 1.176a2.589 2.589 0 0 1-1.488 1.416 2.965 2.965 0 0 1-1.04.184Zm4.1-.096.4-1.392h-.96v-.8h1.184l.456-1.584h-.96v-.8h1.192l.4-1.384h.92l-.4 1.384h1.44l.392-1.384h.92l-.392 1.384h.96v.8h-1.192l-.456 1.584h.96v.8h-1.192L558.042 93h-.92l.392-1.392h-1.432l-.4 1.392h-.92Zm1.544-2.192h1.44l.456-1.584h-1.44l-.456 1.584Z" class="G#"/>
                </g>
                <g class="G#-Note row-5 row-b">
                    <circle cx="454" cy="30" r="8.75" fill="#fff" stroke="#000" stroke-width="1.5" class="Ellipse 8"/>
                    <path fill="#000" d="M450.662 33.096c-.421 0-.813-.077-1.176-.232a3.022 3.022 0 0 1-.944-.64 2.988 2.988 0 0 1-.624-.976 3.295 3.295 0 0 1-.224-1.232c0-.443.072-.85.216-1.224a2.88 2.88 0 0 1 2.736-1.848c.421 0 .797.072 1.128.216.336.144.619.333.848.568.229.23.395.48.496.752l-.84.408a1.64 1.64 0 0 0-.608-.784c-.283-.203-.624-.304-1.024-.304a1.96 1.96 0 0 0-1.048.28 1.929 1.929 0 0 0-.712.776c-.165.33-.248.717-.248 1.16 0 .443.085.832.256 1.168.176.33.416.59.72.776.304.181.653.272 1.048.272.331 0 .632-.067.904-.2.277-.139.499-.33.664-.576a1.55 1.55 0 0 0 .248-.872v-.408l.424.384h-2.256v-.8h2.768v.56c0 .437-.075.83-.224 1.176a2.589 2.589 0 0 1-1.488 1.416 2.965 2.965 0 0 1-1.04.184Zm4.1-.096.4-1.392h-.96v-.8h1.184l.456-1.584h-.96v-.8h1.192l.4-1.384h.92l-.4 1.384h1.44l.392-1.384h.92l-.392 1.384h.96v.8h-1.192l-.456 1.584h.96v.8h-1.192L458.042 33h-.92l.392-1.392h-1.432l-.4 1.392h-.92Zm1.544-2.192h1.44l.456-1.584h-1.44l-.456 1.584Z" class="G#"/>
                </g>
                <g class="G#-Note row-3 row-d">
                    <circle cx="304" cy="70" r="8.75" fill="#fff" stroke="#000" stroke-width="1.5" class="Ellipse 8"/>
                    <path fill="#000" d="M300.662 73.096c-.421 0-.813-.077-1.176-.232a3.022 3.022 0 0 1-.944-.64 2.988 2.988 0 0 1-.624-.976 3.295 3.295 0 0 1-.224-1.232c0-.443.072-.85.216-1.224a2.88 2.88 0 0 1 2.736-1.848c.421 0 .797.072 1.128.216.336.144.619.333.848.568.229.23.395.48.496.752l-.84.408a1.64 1.64 0 0 0-.608-.784c-.283-.203-.624-.304-1.024-.304a1.96 1.96 0 0 0-1.048.28 1.929 1.929 0 0 0-.712.776c-.165.33-.248.717-.248 1.16 0 .443.085.832.256 1.168.176.33.416.59.72.776.304.181.653.272 1.048.272.331 0 .632-.067.904-.2.277-.139.499-.33.664-.576a1.55 1.55 0 0 0 .248-.872v-.408l.424.384h-2.256v-.8h2.768v.56c0 .437-.075.83-.224 1.176a2.589 2.589 0 0 1-1.488 1.416 2.965 2.965 0 0 1-1.04.184Zm4.1-.096.4-1.392h-.96v-.8h1.184l.456-1.584h-.96v-.8h1.192l.4-1.384h.92l-.4 1.384h1.44l.392-1.384h.92l-.392 1.384h.96v.8h-1.192l-.456 1.584h.96v.8h-1.192L308.042 73h-.92l.392-1.392h-1.432l-.4 1.392h-.92Zm1.544-2.192h1.44l.456-1.584h-1.44l-.456 1.584Z" class="G#"/>
                </g>
                <g class="G#-Note row-6 row-e row-e-2">
                    <circle cx="204" cy="10" r="8.75" fill="#fff" stroke="#000" stroke-width="1.5" class="Ellipse 8"/>
                    <path fill="#000" d="M200.662 13.096c-.421 0-.813-.077-1.176-.232a3.022 3.022 0 0 1-.944-.64 2.988 2.988 0 0 1-.624-.976 3.295 3.295 0 0 1-.224-1.232c0-.443.072-.85.216-1.224a2.88 2.88 0 0 1 2.736-1.848c.421 0 .797.072 1.128.216.336.144.619.333.848.568.229.23.395.48.496.752l-.84.408a1.64 1.64 0 0 0-.608-.784c-.283-.203-.624-.304-1.024-.304-.395 0-.744.093-1.048.28a1.929 1.929 0 0 0-.712.776c-.165.33-.248.717-.248 1.16 0 .443.085.832.256 1.168.176.33.416.59.72.776.304.181.653.272 1.048.272.331 0 .632-.067.904-.2.277-.139.499-.33.664-.576a1.55 1.55 0 0 0 .248-.872v-.408l.424.384h-2.256v-.8h2.768v.56c0 .437-.075.83-.224 1.176a2.589 2.589 0 0 1-1.488 1.416 2.965 2.965 0 0 1-1.04.184Zm4.1-.096.4-1.392h-.96v-.8h1.184l.456-1.584h-.96v-.8h1.192l.4-1.384h.92l-.4 1.384h1.44l.392-1.384h.92l-.392 1.384h.96v.8h-1.192l-.456 1.584h.96v.8h-1.192L208.042 13h-.92l.392-1.392h-1.432l-.4 1.392h-.92Zm1.544-2.192h1.44l.456-1.584h-1.44l-.456 1.584Z" class="G#"/>
                </g>
                <g class="G#-Note row-6 row-e row-e-2">
                    <circle cx="804" cy="10" r="8.75" fill="#fff" stroke="#000" stroke-width="1.5" class="Ellipse 8"/>
                    <path fill="#000" d="M800.662 13.096c-.421 0-.813-.077-1.176-.232a3.022 3.022 0 0 1-.944-.64 2.988 2.988 0 0 1-.624-.976 3.295 3.295 0 0 1-.224-1.232c0-.443.072-.85.216-1.224a2.88 2.88 0 0 1 2.736-1.848c.421 0 .797.072 1.128.216.336.144.619.333.848.568.229.23.395.48.496.752l-.84.408a1.64 1.64 0 0 0-.608-.784c-.283-.203-.624-.304-1.024-.304-.395 0-.744.093-1.048.28a1.929 1.929 0 0 0-.712.776c-.165.33-.248.717-.248 1.16 0 .443.085.832.256 1.168.176.33.416.59.72.776.304.181.653.272 1.048.272.331 0 .632-.067.904-.2.277-.139.499-.33.664-.576a1.55 1.55 0 0 0 .248-.872v-.408l.424.384h-2.256v-.8h2.768v.56c0 .437-.075.83-.224 1.176a2.589 2.589 0 0 1-1.488 1.416 2.965 2.965 0 0 1-1.04.184Zm4.1-.096.4-1.392h-.96v-.8h1.184l.456-1.584h-.96v-.8h1.192l.4-1.384h.92l-.4 1.384h1.44l.392-1.384h.92l-.392 1.384h.96v.8h-1.192l-.456 1.584h.96v.8h-1.192L808.042 13h-.92l.392-1.392h-1.432l-.4 1.392h-.92Zm1.544-2.192h1.44l.456-1.584h-1.44l-.456 1.584Z" class="G#"/>
                </g>
            </g>
            <g class="G">
                <g class="G-Note row-1 row-e row-e-1">
                    <circle cx="154" cy="110" r="8.75" fill="#fff" stroke="#000" stroke-width="1.5" class="Ellipse 8"/>
                    <path fill="#000" d="M154.154 113.096c-.421 0-.813-.077-1.176-.232a3.027 3.027 0 0 1-.944-.64 2.988 2.988 0 0 1-.624-.976 3.294 3.294 0 0 1-.224-1.232c0-.443.072-.851.216-1.224a2.877 2.877 0 0 1 2.736-1.848c.421 0 .797.072 1.128.216.336.144.619.333.848.568.229.229.395.48.496.752l-.84.408a1.64 1.64 0 0 0-.608-.784c-.283-.203-.624-.304-1.024-.304-.395 0-.744.093-1.048.28a1.929 1.929 0 0 0-.712.776c-.165.331-.248.717-.248 1.16 0 .443.085.832.256 1.168.176.331.416.589.72.776.304.181.653.272 1.048.272.331 0 .632-.067.904-.2.277-.139.499-.331.664-.576a1.55 1.55 0 0 0 .248-.872v-.408l.424.384h-2.256v-.8h2.768v.56c0 .437-.075.829-.224 1.176a2.594 2.594 0 0 1-1.488 1.416 2.958 2.958 0 0 1-1.04.184Z" class="G"/>
                </g>
                <g class="G-Note row-1 row-e row-e-1">
                    <circle cx="754" cy="110" r="8.75" fill="#fff" stroke="#000" stroke-width="1.5" class="Ellipse 8"/>
                    <path fill="#000" d="M754.154 113.096c-.421 0-.813-.077-1.176-.232a3.027 3.027 0 0 1-.944-.64 2.988 2.988 0 0 1-.624-.976 3.294 3.294 0 0 1-.224-1.232c0-.443.072-.851.216-1.224a2.877 2.877 0 0 1 2.736-1.848c.421 0 .797.072 1.128.216.336.144.619.333.848.568.229.229.395.48.496.752l-.84.408a1.64 1.64 0 0 0-.608-.784c-.283-.203-.624-.304-1.024-.304-.395 0-.744.093-1.048.28a1.929 1.929 0 0 0-.712.776c-.165.331-.248.717-.248 1.16 0 .443.085.832.256 1.168.176.331.416.589.72.776.304.181.653.272 1.048.272.331 0 .632-.067.904-.2.277-.139.499-.331.664-.576a1.55 1.55 0 0 0 .248-.872v-.408l.424.384h-2.256v-.8h2.768v.56c0 .437-.075.829-.224 1.176a2.594 2.594 0 0 1-1.488 1.416 2.958 2.958 0 0 1-1.04.184Z" class="G"/>
                </g>
                <g class="G-Note row-4 row-g">
                    <circle cx="604" cy="50" r="8.75" fill="#fff" stroke="#000" stroke-width="1.5" class="Ellipse 8"/>
                    <path fill="#000" d="M604.154 53.096c-.421 0-.813-.077-1.176-.232a3.022 3.022 0 0 1-.944-.64 2.988 2.988 0 0 1-.624-.976 3.295 3.295 0 0 1-.224-1.232c0-.443.072-.85.216-1.224a2.88 2.88 0 0 1 2.736-1.848c.421 0 .797.072 1.128.216.336.144.619.333.848.568.229.23.395.48.496.752l-.84.408a1.64 1.64 0 0 0-.608-.784c-.283-.203-.624-.304-1.024-.304a1.96 1.96 0 0 0-1.048.28 1.929 1.929 0 0 0-.712.776c-.165.33-.248.717-.248 1.16 0 .443.085.832.256 1.168.176.33.416.59.72.776.304.181.653.272 1.048.272.331 0 .632-.067.904-.2.277-.139.499-.33.664-.576a1.55 1.55 0 0 0 .248-.872v-.408l.424.384h-2.256v-.8h2.768v.56c0 .437-.075.83-.224 1.176a2.589 2.589 0 0 1-1.488 1.416 2.965 2.965 0 0 1-1.04.184Z" class="G"/>
                </g>
                <g class="G-Note row-2 row-a">
                    <circle cx="504" cy="90" r="8.75" fill="#fff" stroke="#000" stroke-width="1.5" class="Ellipse 8"/>
                    <path fill="#000" d="M504.154 93.096c-.421 0-.813-.077-1.176-.232a3.022 3.022 0 0 1-.944-.64 2.988 2.988 0 0 1-.624-.976 3.295 3.295 0 0 1-.224-1.232c0-.443.072-.85.216-1.224a2.88 2.88 0 0 1 2.736-1.848c.421 0 .797.072 1.128.216.336.144.619.333.848.568.229.23.395.48.496.752l-.84.408a1.64 1.64 0 0 0-.608-.784c-.283-.203-.624-.304-1.024-.304a1.96 1.96 0 0 0-1.048.28 1.929 1.929 0 0 0-.712.776c-.165.33-.248.717-.248 1.16 0 .443.085.832.256 1.168.176.33.416.59.72.776.304.181.653.272 1.048.272.331 0 .632-.067.904-.2.277-.139.499-.33.664-.576a1.55 1.55 0 0 0 .248-.872v-.408l.424.384h-2.256v-.8h2.768v.56c0 .437-.075.83-.224 1.176a2.589 2.589 0 0 1-1.488 1.416 2.965 2.965 0 0 1-1.04.184Z" class="G"/>
                </g>
                <g class="G-Note row-5 row-b">
                    <circle cx="404" cy="30" r="8.75" fill="#fff" stroke="#000" stroke-width="1.5" class="Ellipse 8"/>
                    <path fill="#000" d="M404.154 33.096c-.421 0-.813-.077-1.176-.232a3.022 3.022 0 0 1-.944-.64 2.988 2.988 0 0 1-.624-.976 3.295 3.295 0 0 1-.224-1.232c0-.443.072-.85.216-1.224a2.88 2.88 0 0 1 2.736-1.848c.421 0 .797.072 1.128.216.336.144.619.333.848.568.229.23.395.48.496.752l-.84.408a1.64 1.64 0 0 0-.608-.784c-.283-.203-.624-.304-1.024-.304a1.96 1.96 0 0 0-1.048.28 1.929 1.929 0 0 0-.712.776c-.165.33-.248.717-.248 1.16 0 .443.085.832.256 1.168.176.33.416.59.72.776.304.181.653.272 1.048.272.331 0 .632-.067.904-.2.277-.139.499-.33.664-.576a1.55 1.55 0 0 0 .248-.872v-.408l.424.384h-2.256v-.8h2.768v.56c0 .437-.075.83-.224 1.176a2.589 2.589 0 0 1-1.488 1.416 2.965 2.965 0 0 1-1.04.184Z" class="G"/>
                </g>
                <g class="G-Note row-3 row-d">
                    <circle cx="254" cy="70" r="8.75" fill="#fff" stroke="#000" stroke-width="1.5" class="Ellipse 8"/>
                    <path fill="#000" d="M254.154 73.096c-.421 0-.813-.077-1.176-.232a3.022 3.022 0 0 1-.944-.64 2.988 2.988 0 0 1-.624-.976 3.295 3.295 0 0 1-.224-1.232c0-.443.072-.85.216-1.224a2.88 2.88 0 0 1 2.736-1.848c.421 0 .797.072 1.128.216.336.144.619.333.848.568.229.23.395.48.496.752l-.84.408a1.64 1.64 0 0 0-.608-.784c-.283-.203-.624-.304-1.024-.304a1.96 1.96 0 0 0-1.048.28 1.929 1.929 0 0 0-.712.776c-.165.33-.248.717-.248 1.16 0 .443.085.832.256 1.168.176.33.416.59.72.776.304.181.653.272 1.048.272.331 0 .632-.067.904-.2.277-.139.499-.33.664-.576a1.55 1.55 0 0 0 .248-.872v-.408l.424.384h-2.256v-.8h2.768v.56c0 .437-.075.83-.224 1.176a2.589 2.589 0 0 1-1.488 1.416 2.965 2.965 0 0 1-1.04.184Z" class="G"/>
                </g>
                <g class="G-Note row-6 row-e row-e-2">
                    <circle cx="154" cy="10" r="8.75" fill="#fff" stroke="#000" stroke-width="1.5" class="Ellipse 8"/>
                    <path fill="#000" d="M154.154 13.096c-.421 0-.813-.077-1.176-.232a3.022 3.022 0 0 1-.944-.64 2.988 2.988 0 0 1-.624-.976 3.295 3.295 0 0 1-.224-1.232c0-.443.072-.85.216-1.224a2.88 2.88 0 0 1 2.736-1.848c.421 0 .797.072 1.128.216.336.144.619.333.848.568.229.23.395.48.496.752l-.84.408a1.64 1.64 0 0 0-.608-.784c-.283-.203-.624-.304-1.024-.304-.395 0-.744.093-1.048.28a1.929 1.929 0 0 0-.712.776c-.165.33-.248.717-.248 1.16 0 .443.085.832.256 1.168.176.33.416.59.72.776.304.181.653.272 1.048.272.331 0 .632-.067.904-.2.277-.139.499-.33.664-.576a1.55 1.55 0 0 0 .248-.872v-.408l.424.384h-2.256v-.8h2.768v.56c0 .437-.075.83-.224 1.176a2.589 2.589 0 0 1-1.488 1.416 2.965 2.965 0 0 1-1.04.184Z" class="G"/>
                </g>
                <g class="G-Note row-6 row-e row-e-2">
                    <circle cx="754" cy="10" r="8.75" fill="#fff" stroke="#000" stroke-width="1.5" class="Ellipse 8"/>
                    <path fill="#000" d="M754.154 13.096c-.421 0-.813-.077-1.176-.232a3.022 3.022 0 0 1-.944-.64 2.988 2.988 0 0 1-.624-.976 3.295 3.295 0 0 1-.224-1.232c0-.443.072-.85.216-1.224a2.88 2.88 0 0 1 2.736-1.848c.421 0 .797.072 1.128.216.336.144.619.333.848.568.229.23.395.48.496.752l-.84.408a1.64 1.64 0 0 0-.608-.784c-.283-.203-.624-.304-1.024-.304-.395 0-.744.093-1.048.28a1.929 1.929 0 0 0-.712.776c-.165.33-.248.717-.248 1.16 0 .443.085.832.256 1.168.176.33.416.59.72.776.304.181.653.272 1.048.272.331 0 .632-.067.904-.2.277-.139.499-.33.664-.576a1.55 1.55 0 0 0 .248-.872v-.408l.424.384h-2.256v-.8h2.768v.56c0 .437-.075.83-.224 1.176a2.589 2.589 0 0 1-1.488 1.416 2.965 2.965 0 0 1-1.04.184Z" class="G"/>
                </g>
            </g>
            <g class="F#">
                <g class="F#-Note row-1 row-e row-e-1">
                    <circle cx="104" cy="110" r="8.75" fill="#fff" stroke="#000" stroke-width="1.5" class="Ellipse 8"/>
                    <path fill="#000" d="M98.788 113v-5.96h3.88v.84h-2.936v1.792h2.616v.84h-2.616V113h-.944Zm5.056 0 .4-1.392h-.96v-.8h1.184l.456-1.584h-.96v-.8h1.192l.4-1.384h.92l-.4 1.384h1.44l.392-1.384h.92l-.392 1.384h.96v.8h-1.192l-.456 1.584h.96v.8h-1.192l-.392 1.392h-.92l.392-1.392h-1.432l-.4 1.392h-.92Zm1.544-2.192h1.44l.456-1.584h-1.44l-.456 1.584Z" class="F#"/>
                </g>
                <g class="F#-Note row-1 row-e row-e-1">
                    <circle cx="704" cy="110" r="8.75" fill="#fff" stroke="#000" stroke-width="1.5" class="Ellipse 8"/>
                    <path fill="#000" d="M698.788 113v-5.96h3.88v.84h-2.936v1.792h2.616v.84h-2.616V113h-.944Zm5.056 0 .4-1.392h-.96v-.8h1.184l.456-1.584h-.96v-.8h1.192l.4-1.384h.92l-.4 1.384h1.44l.392-1.384h.92l-.392 1.384h.96v.8h-1.192l-.456 1.584h.96v.8h-1.192l-.392 1.392h-.92l.392-1.392h-1.432l-.4 1.392h-.92Zm1.544-2.192h1.44l.456-1.584h-1.44l-.456 1.584Z" class="F#"/>
                </g>
                <g class="F#-Note row-4 row-g">
                    <circle cx="554" cy="50" r="8.75" fill="#fff" stroke="#000" stroke-width="1.5" class="Ellipse 8"/>
                    <path fill="#000" d="M548.788 53v-5.96h3.88v.84h-2.936v1.792h2.616v.84h-2.616V53h-.944Zm5.056 0 .4-1.392h-.96v-.8h1.184l.456-1.584h-.96v-.8h1.192l.4-1.384h.92l-.4 1.384h1.44l.392-1.384h.92l-.392 1.384h.96v.8h-1.192l-.456 1.584h.96v.8h-1.192L557.124 53h-.92l.392-1.392h-1.432l-.4 1.392h-.92Zm1.544-2.192h1.44l.456-1.584h-1.44l-.456 1.584Z" class="F#"/>
                </g>
                <g class="F#-Note row-2 row-a">
                    <circle cx="454" cy="90" r="8.75" fill="#fff" stroke="#000" stroke-width="1.5" class="Ellipse 8"/>
                    <path fill="#000" d="M448.788 93v-5.96h3.88v.84h-2.936v1.792h2.616v.84h-2.616V93h-.944Zm5.056 0 .4-1.392h-.96v-.8h1.184l.456-1.584h-.96v-.8h1.192l.4-1.384h.92l-.4 1.384h1.44l.392-1.384h.92l-.392 1.384h.96v.8h-1.192l-.456 1.584h.96v.8h-1.192L457.124 93h-.92l.392-1.392h-1.432l-.4 1.392h-.92Zm1.544-2.192h1.44l.456-1.584h-1.44l-.456 1.584Z" class="F#"/>
                </g>
                <g class="F#-Note row-5 row-b">
                    <circle cx="354" cy="30" r="8.75" fill="#fff" stroke="#000" stroke-width="1.5" class="Ellipse 8"/>
                    <path fill="#000" d="M348.788 33v-5.96h3.88v.84h-2.936v1.792h2.616v.84h-2.616V33h-.944Zm5.056 0 .4-1.392h-.96v-.8h1.184l.456-1.584h-.96v-.8h1.192l.4-1.384h.92l-.4 1.384h1.44l.392-1.384h.92l-.392 1.384h.96v.8h-1.192l-.456 1.584h.96v.8h-1.192L357.124 33h-.92l.392-1.392h-1.432l-.4 1.392h-.92Zm1.544-2.192h1.44l.456-1.584h-1.44l-.456 1.584Z" class="F#"/>
                </g>
                <g class="F#-Note row-3 row-d">
                    <circle cx="204" cy="70" r="8.75" fill="#fff" stroke="#000" stroke-width="1.5" class="Ellipse 8"/>
                    <path fill="#000" d="M198.788 73v-5.96h3.88v.84h-2.936v1.792h2.616v.84h-2.616V73h-.944Zm5.056 0 .4-1.392h-.96v-.8h1.184l.456-1.584h-.96v-.8h1.192l.4-1.384h.92l-.4 1.384h1.44l.392-1.384h.92l-.392 1.384h.96v.8h-1.192l-.456 1.584h.96v.8h-1.192L207.124 73h-.92l.392-1.392h-1.432l-.4 1.392h-.92Zm1.544-2.192h1.44l.456-1.584h-1.44l-.456 1.584Z" class="F#"/>
                </g>
                <g class="F#-Note row-3 row-d">
                    <circle cx="804" cy="70" r="8.75" fill="#fff" stroke="#000" stroke-width="1.5" class="Ellipse 8"/>
                    <path fill="#000" d="M798.788 73v-5.96h3.88v.84h-2.936v1.792h2.616v.84h-2.616V73h-.944Zm5.056 0 .4-1.392h-.96v-.8h1.184l.456-1.584h-.96v-.8h1.192l.4-1.384h.92l-.4 1.384h1.44l.392-1.384h.92l-.392 1.384h.96v.8h-1.192l-.456 1.584h.96v.8h-1.192L807.124 73h-.92l.392-1.392h-1.432l-.4 1.392h-.92Zm1.544-2.192h1.44l.456-1.584h-1.44l-.456 1.584Z" class="F#"/>
                </g>
                <g class="F#-Note row-6 row-e row-e-2">
                    <circle cx="104" cy="10" r="8.75" fill="#fff" stroke="#000" stroke-width="1.5" class="Ellipse 8"/>
                    <path fill="#000" d="M98.788 13V7.04h3.88v.84h-2.936v1.792h2.616v.84h-2.616V13h-.944Zm5.056 0 .4-1.392h-.96v-.8h1.184l.456-1.584h-.96v-.8h1.192l.4-1.384h.92l-.4 1.384h1.44l.392-1.384h.92l-.392 1.384h.96v.8h-1.192l-.456 1.584h.96v.8h-1.192L107.124 13h-.92l.392-1.392h-1.432l-.4 1.392h-.92Zm1.544-2.192h1.44l.456-1.584h-1.44l-.456 1.584Z" class="F#"/>
                </g>
                <g class="F#-Note row-6 row-e row-e-2">
                    <circle cx="704" cy="10" r="8.75" fill="#fff" stroke="#000" stroke-width="1.5" class="Ellipse 8"/>
                    <path fill="#000" d="M698.788 13V7.04h3.88v.84h-2.936v1.792h2.616v.84h-2.616V13h-.944Zm5.056 0 .4-1.392h-.96v-.8h1.184l.456-1.584h-.96v-.8h1.192l.4-1.384h.92l-.4 1.384h1.44l.392-1.384h.92l-.392 1.384h.96v.8h-1.192l-.456 1.584h.96v.8h-1.192L707.124 13h-.92l.392-1.392h-1.432l-.4 1.392h-.92Zm1.544-2.192h1.44l.456-1.584h-1.44l-.456 1.584Z" class="F#"/>
                </g>
            </g>
            <g class="F">
                <g class="F-Note row-1 row-e row-e-1">
                    <circle cx="54" cy="110" r="8.75" fill="#fff" stroke="#000" stroke-width="1.5" class="Ellipse 8"/>
                    <path fill="#000" d="M52.28 113v-5.96h3.88v.84h-2.936v1.792h2.616v.84h-2.616V113h-.944Z" class="F"/>
                </g>
                <g class="F-Note row-1 row-e row-e-1">
                    <circle cx="654" cy="110" r="8.75" fill="#fff" stroke="#000" stroke-width="1.5" class="Ellipse 8"/>
                    <path fill="#000" d="M652.28 113v-5.96h3.88v.84h-2.936v1.792h2.616v.84h-2.616V113h-.944Z" class="F"/>
                </g>
                <g class="F-Note row-4 row-g">
                    <circle cx="504" cy="50" r="8.75" fill="#fff" stroke="#000" stroke-width="1.5" class="Ellipse 8"/>
                    <path fill="#000" d="M502.28 53v-5.96h3.88v.84h-2.936v1.792h2.616v.84h-2.616V53h-.944Z" class="F"/>
                </g>
                <g class="F-Note row-2 row-a">
                    <circle cx="404" cy="90" r="8.75" fill="#fff" stroke="#000" stroke-width="1.5" class="Ellipse 8"/>
                    <path fill="#000" d="M402.28 93v-5.96h3.88v.84h-2.936v1.792h2.616v.84h-2.616V93h-.944Z" class="F"/>
                </g>
                <g class="F-Note row-5 row-b">
                    <circle cx="304" cy="30" r="8.75" fill="#fff" stroke="#000" stroke-width="1.5" class="Ellipse 8"/>
                    <path fill="#000" d="M302.28 33v-5.96h3.88v.84h-2.936v1.792h2.616v.84h-2.616V33h-.944Z" class="F"/>
                </g>
                <g class="F-Note row-3 row-d">
                    <circle cx="154" cy="70" r="8.75" fill="#fff" stroke="#000" stroke-width="1.5" class="Ellipse 8"/>
                    <path fill="#000" d="M152.28 73v-5.96h3.88v.84h-2.936v1.792h2.616v.84h-2.616V73h-.944Z" class="F"/>
                </g>
                <g class="F-Note row-3 row-d">
                    <circle cx="754" cy="70" r="8.75" fill="#fff" stroke="#000" stroke-width="1.5" class="Ellipse 8"/>
                    <path fill="#000" d="M752.28 73v-5.96h3.88v.84h-2.936v1.792h2.616v.84h-2.616V73h-.944Z" class="F"/>
                </g>
                <g class="F-Note row-6 row-e row-e-2">
                    <circle cx="54" cy="10" r="8.75" fill="#fff" stroke="#000" stroke-width="1.5" class="Ellipse 8"/>
                    <path fill="#000" d="M52.28 13V7.04h3.88v.84h-2.936v1.792h2.616v.84h-2.616V13h-.944Z" class="F"/>
                </g>
                <g class="F-Note row-6 row-e row-e-2">
                    <circle cx="654" cy="10" r="8.75" fill="#fff" stroke="#000" stroke-width="1.5" class="Ellipse 8"/>
                    <path fill="#000" d="M652.28 13V7.04h3.88v.84h-2.936v1.792h2.616v.84h-2.616V13h-.944Z" class="F"/>
                </g>
            </g>
            <g class="E">
                <g class="E-Note row-1 row-e row-e-1">
                    <circle cx="604" cy="110" r="8.75" fill="#fff" stroke="#000" stroke-width="1.5" class="Ellipse 8"/>
                    <path fill="#000" d="M602.214 113v-5.96h3.928v.84h-2.984v1.712h2.824v.84h-2.824v1.728h2.984v.84h-3.928Z" class="E"/>
                </g>
                <g class="E-Note row-4 row-g">
                    <circle cx="454" cy="50" r="8.75" fill="#fff" stroke="#000" stroke-width="1.5" class="Ellipse 8"/>
                    <path fill="#000" d="M452.214 53v-5.96h3.928v.84h-2.984v1.712h2.824v.84h-2.824v1.728h2.984V53h-3.928Z" class="E"/>
                </g>
                <g class="E-Note row-2 row-a">
                    <circle cx="354" cy="90" r="8.75" fill="#fff" stroke="#000" stroke-width="1.5" class="Ellipse 8"/>
                    <path fill="#000" d="M352.214 93v-5.96h3.928v.84h-2.984v1.712h2.824v.84h-2.824v1.728h2.984V93h-3.928Z" class="E"/>
                </g>
                <g class="E-Note row-5 row-b">
                    <circle cx="254" cy="30" r="8.75" fill="#fff" stroke="#000" stroke-width="1.5" class="Ellipse 8"/>
                    <path fill="#000" d="M252.214 33v-5.96h3.928v.84h-2.984v1.712h2.824v.84h-2.824v1.728h2.984V33h-3.928Z" class="E"/>
                </g>
                <g class="E-Note row-3 row-d">
                    <circle cx="104" cy="70" r="8.75" fill="#fff" stroke="#000" stroke-width="1.5" class="Ellipse 8"/>
                    <path fill="#000" d="M102.214 73v-5.96h3.928v.84h-2.984v1.712h2.824v.84h-2.824v1.728h2.984V73h-3.928Z" class="E"/>
                </g>
                <g class="E-Note row-3 row-d">
                    <circle cx="704" cy="70" r="8.75" fill="#fff" stroke="#000" stroke-width="1.5" class="Ellipse 8"/>
                    <path fill="#000" d="M702.214 73v-5.96h3.928v.84h-2.984v1.712h2.824v.84h-2.824v1.728h2.984V73h-3.928Z" class="E"/>
                </g>
                <g class="E-Note row-6 row-e row-e-2">
                    <circle cx="604" cy="10" r="8.75" fill="#fff" stroke="#000" stroke-width="1.5" class="Ellipse 8"/>
                    <path fill="#000" d="M602.214 13V7.04h3.928v.84h-2.984v1.712h2.824v.84h-2.824v1.728h2.984V13h-3.928Z" class="E"/>
                </g>
            </g>
            <g class="D#">
                <g class="D#-Note row-1 row-e row-e-1">
                    <circle cx="554" cy="110" r="8.75" fill="#fff" stroke="#000" stroke-width="1.5" class="Ellipse 8"/>
                    <path fill="#000" d="M548.159 113v-5.96h1.952c.619 0 1.155.125 1.608.376.459.245.813.592 1.064 1.04.251.448.376.968.376 1.56 0 .587-.125 1.107-.376 1.56a2.65 2.65 0 0 1-1.064 1.048c-.453.251-.989.376-1.608.376h-1.952Zm.944-.84h1.024c.421 0 .787-.088 1.096-.264.315-.176.557-.424.728-.744.171-.32.256-.699.256-1.136 0-.437-.088-.813-.264-1.128a1.83 1.83 0 0 0-.72-.744c-.309-.176-.675-.264-1.096-.264h-1.024v4.28Zm5.37.84.4-1.392h-.96v-.8h1.184l.456-1.584h-.96v-.8h1.192l.4-1.384h.92l-.4 1.384h1.44l.392-1.384h.92l-.392 1.384h.96v.8h-1.192l-.456 1.584h.96v.8h-1.192l-.392 1.392h-.92l.392-1.392h-1.432l-.4 1.392h-.92Zm1.544-2.192h1.44l.456-1.584h-1.44l-.456 1.584Z" class="D#"/>
                </g>
                <g class="D#-Note row-4 row-g">
                    <circle cx="404" cy="50" r="8.75" fill="#fff" stroke="#000" stroke-width="1.5" class="Ellipse 8"/>
                    <path fill="#000" d="M398.159 53v-5.96h1.952c.619 0 1.155.125 1.608.376.459.245.813.592 1.064 1.04.251.448.376.968.376 1.56 0 .587-.125 1.107-.376 1.56a2.648 2.648 0 0 1-1.064 1.048c-.453.25-.989.376-1.608.376h-1.952Zm.944-.84h1.024c.421 0 .787-.088 1.096-.264.315-.176.557-.424.728-.744.171-.32.256-.699.256-1.136 0-.437-.088-.813-.264-1.128a1.83 1.83 0 0 0-.72-.744c-.309-.176-.675-.264-1.096-.264h-1.024v4.28Zm5.37.84.4-1.392h-.96v-.8h1.184l.456-1.584h-.96v-.8h1.192l.4-1.384h.92l-.4 1.384h1.44l.392-1.384h.92l-.392 1.384h.96v.8h-1.192l-.456 1.584h.96v.8h-1.192L407.753 53h-.92l.392-1.392h-1.432l-.4 1.392h-.92Zm1.544-2.192h1.44l.456-1.584h-1.44l-.456 1.584Z" class="D#"/>
                </g>
                <g class="D#-Note row-2 row-a">
                    <circle cx="304" cy="90" r="8.75" fill="#fff" stroke="#000" stroke-width="1.5" class="Ellipse 8"/>
                    <path fill="#000" d="M298.159 93v-5.96h1.952c.619 0 1.155.125 1.608.376.459.245.813.592 1.064 1.04.251.448.376.968.376 1.56 0 .587-.125 1.107-.376 1.56a2.648 2.648 0 0 1-1.064 1.048c-.453.25-.989.376-1.608.376h-1.952Zm.944-.84h1.024c.421 0 .787-.088 1.096-.264.315-.176.557-.424.728-.744.171-.32.256-.699.256-1.136 0-.437-.088-.813-.264-1.128a1.83 1.83 0 0 0-.72-.744c-.309-.176-.675-.264-1.096-.264h-1.024v4.28Zm5.37.84.4-1.392h-.96v-.8h1.184l.456-1.584h-.96v-.8h1.192l.4-1.384h.92l-.4 1.384h1.44l.392-1.384h.92l-.392 1.384h.96v.8h-1.192l-.456 1.584h.96v.8h-1.192L307.753 93h-.92l.392-1.392h-1.432l-.4 1.392h-.92Zm1.544-2.192h1.44l.456-1.584h-1.44l-.456 1.584Z" class="D#"/>
                </g>
                <g class="D#-Note row-5 row-b">
                    <circle cx="204" cy="30" r="8.75" fill="#fff" stroke="#000" stroke-width="1.5" class="Ellipse 8"/>
                    <path fill="#000" d="M198.159 33v-5.96h1.952c.619 0 1.155.125 1.608.376.459.245.813.592 1.064 1.04.251.448.376.968.376 1.56 0 .587-.125 1.107-.376 1.56a2.648 2.648 0 0 1-1.064 1.048c-.453.25-.989.376-1.608.376h-1.952Zm.944-.84h1.024c.421 0 .787-.088 1.096-.264.315-.176.557-.424.728-.744.171-.32.256-.699.256-1.136 0-.437-.088-.813-.264-1.128a1.83 1.83 0 0 0-.72-.744c-.309-.176-.675-.264-1.096-.264h-1.024v4.28Zm5.37.84.4-1.392h-.96v-.8h1.184l.456-1.584h-.96v-.8h1.192l.4-1.384h.92l-.4 1.384h1.44l.392-1.384h.92l-.392 1.384h.96v.8h-1.192l-.456 1.584h.96v.8h-1.192L207.753 33h-.92l.392-1.392h-1.432l-.4 1.392h-.92Zm1.544-2.192h1.44l.456-1.584h-1.44l-.456 1.584Z" class="D#"/>
                </g>
                <g class="D#-Note row-5 row-b">
                    <circle cx="804" cy="30" r="8.75" fill="#fff" stroke="#000" stroke-width="1.5" class="Ellipse 8"/>
                    <path fill="#000" d="M798.159 33v-5.96h1.952c.619 0 1.155.125 1.608.376.459.245.813.592 1.064 1.04.251.448.376.968.376 1.56 0 .587-.125 1.107-.376 1.56a2.648 2.648 0 0 1-1.064 1.048c-.453.25-.989.376-1.608.376h-1.952Zm.944-.84h1.024c.421 0 .787-.088 1.096-.264.315-.176.557-.424.728-.744.171-.32.256-.699.256-1.136 0-.437-.088-.813-.264-1.128a1.83 1.83 0 0 0-.72-.744c-.309-.176-.675-.264-1.096-.264h-1.024v4.28Zm5.37.84.4-1.392h-.96v-.8h1.184l.456-1.584h-.96v-.8h1.192l.4-1.384h.92l-.4 1.384h1.44l.392-1.384h.92l-.392 1.384h.96v.8h-1.192l-.456 1.584h.96v.8h-1.192L807.753 33h-.92l.392-1.392h-1.432l-.4 1.392h-.92Zm1.544-2.192h1.44l.456-1.584h-1.44l-.456 1.584Z" class="D#"/>
                </g>
                <g class="D#-Note row-3 row-d">
                    <circle cx="54" cy="70" r="8.75" fill="#fff" stroke="#000" stroke-width="1.5" class="Ellipse 8"/>
                    <path fill="#000" d="M48.159 73v-5.96h1.952c.619 0 1.155.125 1.608.376.459.245.813.592 1.064 1.04.25.448.376.968.376 1.56 0 .587-.125 1.107-.376 1.56a2.65 2.65 0 0 1-1.064 1.048c-.453.25-.99.376-1.608.376h-1.952Zm.944-.84h1.024c.421 0 .787-.088 1.096-.264.315-.176.557-.424.728-.744.17-.32.256-.699.256-1.136 0-.437-.088-.813-.264-1.128-.17-.32-.41-.568-.72-.744-.31-.176-.675-.264-1.096-.264h-1.024v4.28Zm5.37.84.4-1.392h-.96v-.8h1.184l.456-1.584h-.96v-.8h1.192l.4-1.384h.92l-.4 1.384h1.44l.392-1.384h.92l-.392 1.384h.96v.8h-1.192l-.456 1.584h.96v.8h-1.192L57.753 73h-.92l.392-1.392h-1.432l-.4 1.392h-.92Zm1.544-2.192h1.44l.456-1.584h-1.44l-.456 1.584Z" class="D#"/>
                </g>
                <g class="D#-Note row-3 row-d">
                    <circle cx="654" cy="70" r="8.75" fill="#fff" stroke="#000" stroke-width="1.5" class="Ellipse 8"/>
                    <path fill="#000" d="M648.159 73v-5.96h1.952c.619 0 1.155.125 1.608.376.459.245.813.592 1.064 1.04.251.448.376.968.376 1.56 0 .587-.125 1.107-.376 1.56a2.648 2.648 0 0 1-1.064 1.048c-.453.25-.989.376-1.608.376h-1.952Zm.944-.84h1.024c.421 0 .787-.088 1.096-.264.315-.176.557-.424.728-.744.171-.32.256-.699.256-1.136 0-.437-.088-.813-.264-1.128a1.83 1.83 0 0 0-.72-.744c-.309-.176-.675-.264-1.096-.264h-1.024v4.28Zm5.37.84.4-1.392h-.96v-.8h1.184l.456-1.584h-.96v-.8h1.192l.4-1.384h.92l-.4 1.384h1.44l.392-1.384h.92l-.392 1.384h.96v.8h-1.192l-.456 1.584h.96v.8h-1.192L657.753 73h-.92l.392-1.392h-1.432l-.4 1.392h-.92Zm1.544-2.192h1.44l.456-1.584h-1.44l-.456 1.584Z" class="D#"/>
                </g>
                <g class="D#-Note row-6 row-e row-e-2">
                    <circle cx="554" cy="10" r="8.75" fill="#fff" stroke="#000" stroke-width="1.5" class="Ellipse 8"/>
                    <path fill="#000" d="M548.159 13V7.04h1.952c.619 0 1.155.125 1.608.376.459.245.813.592 1.064 1.04.251.448.376.968.376 1.56 0 .587-.125 1.107-.376 1.56a2.648 2.648 0 0 1-1.064 1.048c-.453.25-.989.376-1.608.376h-1.952Zm.944-.84h1.024c.421 0 .787-.088 1.096-.264.315-.176.557-.424.728-.744.171-.32.256-.699.256-1.136 0-.437-.088-.813-.264-1.128a1.83 1.83 0 0 0-.72-.744c-.309-.176-.675-.264-1.096-.264h-1.024v4.28Zm5.37.84.4-1.392h-.96v-.8h1.184l.456-1.584h-.96v-.8h1.192l.4-1.384h.92l-.4 1.384h1.44l.392-1.384h.92l-.392 1.384h.96v.8h-1.192l-.456 1.584h.96v.8h-1.192L557.753 13h-.92l.392-1.392h-1.432l-.4 1.392h-.92Zm1.544-2.192h1.44l.456-1.584h-1.44l-.456 1.584Z" class="D#"/>
                </g>
            </g>
            <g class="D">
                <g class="D-Note row-1 row-e row-e-1">
                    <circle cx="504" cy="110" r="8.75" fill="#fff" stroke="#000" stroke-width="1.5" class="Ellipse 8"/>
                    <path fill="#000" d="M501.651 113v-5.96h1.952c.619 0 1.155.125 1.608.376.459.245.813.592 1.064 1.04.251.448.376.968.376 1.56 0 .587-.125 1.107-.376 1.56a2.65 2.65 0 0 1-1.064 1.048c-.453.251-.989.376-1.608.376h-1.952Zm.944-.84h1.024c.421 0 .787-.088 1.096-.264.315-.176.557-.424.728-.744.171-.32.256-.699.256-1.136 0-.437-.088-.813-.264-1.128a1.83 1.83 0 0 0-.72-.744c-.309-.176-.675-.264-1.096-.264h-1.024v4.28Z" class="D"/>
                </g>
                <g class="D-Note row-4 row-g">
                    <circle cx="354" cy="50" r="8.75" fill="#fff" stroke="#000" stroke-width="1.5" class="Ellipse 8"/>
                    <path fill="#000" d="M351.651 53v-5.96h1.952c.619 0 1.155.125 1.608.376.459.245.813.592 1.064 1.04.251.448.376.968.376 1.56 0 .587-.125 1.107-.376 1.56a2.648 2.648 0 0 1-1.064 1.048c-.453.25-.989.376-1.608.376h-1.952Zm.944-.84h1.024c.421 0 .787-.088 1.096-.264.315-.176.557-.424.728-.744.171-.32.256-.699.256-1.136 0-.437-.088-.813-.264-1.128a1.83 1.83 0 0 0-.72-.744c-.309-.176-.675-.264-1.096-.264h-1.024v4.28Z" class="D"/>
                </g>
                <g class="D-Note row-2 row-a">
                    <circle cx="254" cy="90" r="8.75" fill="#fff" stroke="#000" stroke-width="1.5" class="Ellipse 8"/>
                    <path fill="#000" d="M251.651 93v-5.96h1.952c.619 0 1.155.125 1.608.376.459.245.813.592 1.064 1.04.251.448.376.968.376 1.56 0 .587-.125 1.107-.376 1.56a2.648 2.648 0 0 1-1.064 1.048c-.453.25-.989.376-1.608.376h-1.952Zm.944-.84h1.024c.421 0 .787-.088 1.096-.264.315-.176.557-.424.728-.744.171-.32.256-.699.256-1.136 0-.437-.088-.813-.264-1.128a1.83 1.83 0 0 0-.72-.744c-.309-.176-.675-.264-1.096-.264h-1.024v4.28Z" class="D"/>
                </g>
                <g class="D-Note row-5 row-b">
                    <circle cx="154" cy="30" r="8.75" fill="#fff" stroke="#000" stroke-width="1.5" class="Ellipse 8"/>
                    <path fill="#000" d="M151.651 33v-5.96h1.952c.619 0 1.155.125 1.608.376.459.245.813.592 1.064 1.04.251.448.376.968.376 1.56 0 .587-.125 1.107-.376 1.56a2.648 2.648 0 0 1-1.064 1.048c-.453.25-.989.376-1.608.376h-1.952Zm.944-.84h1.024c.421 0 .787-.088 1.096-.264.315-.176.557-.424.728-.744.171-.32.256-.699.256-1.136 0-.437-.088-.813-.264-1.128a1.83 1.83 0 0 0-.72-.744c-.309-.176-.675-.264-1.096-.264h-1.024v4.28Z" class="D"/>
                </g>
                <g class="D-Note row-5 row-b">
                    <circle cx="754" cy="30" r="8.75" fill="#fff" stroke="#000" stroke-width="1.5" class="Ellipse 8"/>
                    <path fill="#000" d="M751.651 33v-5.96h1.952c.619 0 1.155.125 1.608.376.459.245.813.592 1.064 1.04.251.448.376.968.376 1.56 0 .587-.125 1.107-.376 1.56a2.648 2.648 0 0 1-1.064 1.048c-.453.25-.989.376-1.608.376h-1.952Zm.944-.84h1.024c.421 0 .787-.088 1.096-.264.315-.176.557-.424.728-.744.171-.32.256-.699.256-1.136 0-.437-.088-.813-.264-1.128a1.83 1.83 0 0 0-.72-.744c-.309-.176-.675-.264-1.096-.264h-1.024v4.28Z" class="D"/>
                </g>
                <g class="D-Note row-3 row-d">
                    <circle cx="604" cy="70" r="8.75" fill="#fff" stroke="#000" stroke-width="1.5" class="Ellipse 8"/>
                    <path fill="#000" d="M601.651 73v-5.96h1.952c.619 0 1.155.125 1.608.376.459.245.813.592 1.064 1.04.251.448.376.968.376 1.56 0 .587-.125 1.107-.376 1.56a2.648 2.648 0 0 1-1.064 1.048c-.453.25-.989.376-1.608.376h-1.952Zm.944-.84h1.024c.421 0 .787-.088 1.096-.264.315-.176.557-.424.728-.744.171-.32.256-.699.256-1.136 0-.437-.088-.813-.264-1.128a1.83 1.83 0 0 0-.72-.744c-.309-.176-.675-.264-1.096-.264h-1.024v4.28Z" class="D"/>
                </g>
                <g class="D-Note row-6 row-e row-e-2">
                    <circle cx="504" cy="10" r="8.75" fill="#fff" stroke="#000" stroke-width="1.5" class="Ellipse 8"/>
                    <path fill="#000" d="M501.651 13V7.04h1.952c.619 0 1.155.125 1.608.376.459.245.813.592 1.064 1.04.251.448.376.968.376 1.56 0 .587-.125 1.107-.376 1.56a2.648 2.648 0 0 1-1.064 1.048c-.453.25-.989.376-1.608.376h-1.952Zm.944-.84h1.024c.421 0 .787-.088 1.096-.264.315-.176.557-.424.728-.744.171-.32.256-.699.256-1.136 0-.437-.088-.813-.264-1.128a1.83 1.83 0 0 0-.72-.744c-.309-.176-.675-.264-1.096-.264h-1.024v4.28Z" class="D"/>
                </g>
            </g>
            <g class="C#">
                <g class="C#-Note row-1 row-e row-e-1">
                    <circle cx="454" cy="110" r="8.75" fill="#fff" stroke="#000" stroke-width="1.5" class="Ellipse 8"/>
                    <path fill="#000" d="M450.79 113.096c-.421 0-.813-.077-1.176-.232a2.935 2.935 0 0 1-.936-.64 3.087 3.087 0 0 1-.616-.976 3.294 3.294 0 0 1-.224-1.232c0-.443.072-.851.216-1.224.15-.379.358-.704.624-.976.267-.277.579-.491.936-.64.358-.155.75-.232 1.176-.232.422 0 .798.072 1.128.216.336.144.619.333.848.568.23.229.395.48.496.752l-.848.4a1.69 1.69 0 0 0-.616-.776c-.277-.203-.613-.304-1.008-.304a1.96 1.96 0 0 0-1.048.28 1.929 1.929 0 0 0-.712.776c-.165.331-.248.717-.248 1.16 0 .443.083.832.248 1.168.171.331.408.589.712.776.304.181.654.272 1.048.272.395 0 .731-.099 1.008-.296a1.69 1.69 0 0 0 .616-.776l.848.4a2.18 2.18 0 0 1-.496.752 2.593 2.593 0 0 1-.848.568c-.33.144-.706.216-1.128.216Zm3.827-.096.4-1.392h-.96v-.8h1.184l.456-1.584h-.96v-.8h1.192l.4-1.384h.92l-.4 1.384h1.44l.392-1.384h.92l-.392 1.384h.96v.8h-1.192l-.456 1.584h.96v.8h-1.192l-.392 1.392h-.92l.392-1.392h-1.432l-.4 1.392h-.92Zm1.544-2.192h1.44l.456-1.584h-1.44l-.456 1.584Z" class="C#"/>
                </g>
                <g class="C#-Note row-4 row-g">
                    <circle cx="304" cy="50" r="8.75" fill="#fff" stroke="#000" stroke-width="1.5" class="Ellipse 8"/>
                    <path fill="#000" d="M300.79 53.096c-.421 0-.813-.077-1.176-.232a2.93 2.93 0 0 1-.936-.64 3.087 3.087 0 0 1-.616-.976 3.295 3.295 0 0 1-.224-1.232c0-.443.072-.85.216-1.224a2.91 2.91 0 0 1 .624-.976c.267-.277.579-.49.936-.64.358-.155.75-.232 1.176-.232.422 0 .798.072 1.128.216.336.144.619.333.848.568.23.23.395.48.496.752l-.848.4a1.692 1.692 0 0 0-.616-.776c-.277-.203-.613-.304-1.008-.304a1.96 1.96 0 0 0-1.048.28 1.929 1.929 0 0 0-.712.776c-.165.33-.248.717-.248 1.16 0 .443.083.832.248 1.168.171.33.408.59.712.776.304.181.654.272 1.048.272.395 0 .731-.099 1.008-.296a1.69 1.69 0 0 0 .616-.776l.848.4a2.18 2.18 0 0 1-.496.752 2.597 2.597 0 0 1-.848.568c-.33.144-.706.216-1.128.216Zm3.827-.096.4-1.392h-.96v-.8h1.184l.456-1.584h-.96v-.8h1.192l.4-1.384h.92l-.4 1.384h1.44l.392-1.384h.92l-.392 1.384h.96v.8h-1.192l-.456 1.584h.96v.8h-1.192L307.897 53h-.92l.392-1.392h-1.432l-.4 1.392h-.92Zm1.544-2.192h1.44l.456-1.584h-1.44l-.456 1.584Z" class="C#"/>
                </g>
                <g class="C#-Note row-2 row-a">
                    <circle cx="204" cy="90" r="8.75" fill="#fff" stroke="#000" stroke-width="1.5" class="Ellipse 8"/>
                    <path fill="#000" d="M200.79 93.096c-.421 0-.813-.077-1.176-.232a2.93 2.93 0 0 1-.936-.64 3.087 3.087 0 0 1-.616-.976 3.295 3.295 0 0 1-.224-1.232c0-.443.072-.85.216-1.224a2.91 2.91 0 0 1 .624-.976c.267-.277.579-.49.936-.64.358-.155.75-.232 1.176-.232.422 0 .798.072 1.128.216.336.144.619.333.848.568.23.23.395.48.496.752l-.848.4a1.692 1.692 0 0 0-.616-.776c-.277-.203-.613-.304-1.008-.304a1.96 1.96 0 0 0-1.048.28 1.929 1.929 0 0 0-.712.776c-.165.33-.248.717-.248 1.16 0 .443.083.832.248 1.168.171.33.408.59.712.776.304.181.654.272 1.048.272.395 0 .731-.099 1.008-.296a1.69 1.69 0 0 0 .616-.776l.848.4a2.18 2.18 0 0 1-.496.752 2.597 2.597 0 0 1-.848.568c-.33.144-.706.216-1.128.216Zm3.827-.096.4-1.392h-.96v-.8h1.184l.456-1.584h-.96v-.8h1.192l.4-1.384h.92l-.4 1.384h1.44l.392-1.384h.92l-.392 1.384h.96v.8h-1.192l-.456 1.584h.96v.8h-1.192L207.897 93h-.92l.392-1.392h-1.432l-.4 1.392h-.92Zm1.544-2.192h1.44l.456-1.584h-1.44l-.456 1.584Z" class="C#"/>
                </g>
                <g class="C#-Note row-2 row-a">
                    <circle cx="804" cy="90" r="8.75" fill="#fff" stroke="#000" stroke-width="1.5" class="Ellipse 8"/>
                    <path fill="#000" d="M800.79 93.096c-.421 0-.813-.077-1.176-.232a2.93 2.93 0 0 1-.936-.64 3.087 3.087 0 0 1-.616-.976 3.295 3.295 0 0 1-.224-1.232c0-.443.072-.85.216-1.224a2.91 2.91 0 0 1 .624-.976c.267-.277.579-.49.936-.64.358-.155.75-.232 1.176-.232.422 0 .798.072 1.128.216.336.144.619.333.848.568.23.23.395.48.496.752l-.848.4a1.692 1.692 0 0 0-.616-.776c-.277-.203-.613-.304-1.008-.304a1.96 1.96 0 0 0-1.048.28 1.929 1.929 0 0 0-.712.776c-.165.33-.248.717-.248 1.16 0 .443.083.832.248 1.168.171.33.408.59.712.776.304.181.654.272 1.048.272.395 0 .731-.099 1.008-.296a1.69 1.69 0 0 0 .616-.776l.848.4a2.18 2.18 0 0 1-.496.752 2.597 2.597 0 0 1-.848.568c-.33.144-.706.216-1.128.216Zm3.827-.096.4-1.392h-.96v-.8h1.184l.456-1.584h-.96v-.8h1.192l.4-1.384h.92l-.4 1.384h1.44l.392-1.384h.92l-.392 1.384h.96v.8h-1.192l-.456 1.584h.96v.8h-1.192L807.897 93h-.92l.392-1.392h-1.432l-.4 1.392h-.92Zm1.544-2.192h1.44l.456-1.584h-1.44l-.456 1.584Z" class="C#"/>
                </g>
                <g class="C#-Note row-5 row-b">
                    <circle cx="104" cy="30" r="8.75" fill="#fff" stroke="#000" stroke-width="1.5" class="Ellipse 8"/>
                    <path fill="#000" d="M100.79 33.096c-.421 0-.813-.077-1.176-.232a2.924 2.924 0 0 1-.936-.64 3.07 3.07 0 0 1-.616-.976 3.289 3.289 0 0 1-.224-1.232c0-.443.072-.85.216-1.224.15-.379.358-.704.624-.976.267-.277.58-.49.936-.64a2.93 2.93 0 0 1 1.176-.232c.422 0 .798.072 1.128.216.336.144.619.333.848.568.23.23.395.48.496.752l-.848.4a1.692 1.692 0 0 0-.616-.776c-.277-.203-.613-.304-1.008-.304a1.96 1.96 0 0 0-1.048.28 1.927 1.927 0 0 0-.712.776c-.165.33-.248.717-.248 1.16 0 .443.083.832.248 1.168.171.33.408.59.712.776.304.181.654.272 1.048.272.395 0 .731-.099 1.008-.296a1.69 1.69 0 0 0 .616-.776l.848.4a2.18 2.18 0 0 1-.496.752 2.597 2.597 0 0 1-.848.568c-.33.144-.706.216-1.128.216Zm3.827-.096.4-1.392h-.96v-.8h1.184l.456-1.584h-.96v-.8h1.192l.4-1.384h.92l-.4 1.384h1.44l.392-1.384h.92l-.392 1.384h.96v.8h-1.192l-.456 1.584h.96v.8h-1.192L107.897 33h-.92l.392-1.392h-1.432l-.4 1.392h-.92Zm1.544-2.192h1.44l.456-1.584h-1.44l-.456 1.584Z" class="C#"/>
                </g>
                <g class="C#-Note row-5 row-b">
                    <circle cx="704" cy="30" r="8.75" fill="#fff" stroke="#000" stroke-width="1.5" class="Ellipse 8"/>
                    <path fill="#000" d="M700.79 33.096c-.421 0-.813-.077-1.176-.232a2.93 2.93 0 0 1-.936-.64 3.087 3.087 0 0 1-.616-.976 3.295 3.295 0 0 1-.224-1.232c0-.443.072-.85.216-1.224a2.91 2.91 0 0 1 .624-.976c.267-.277.579-.49.936-.64.358-.155.75-.232 1.176-.232.422 0 .798.072 1.128.216.336.144.619.333.848.568.23.23.395.48.496.752l-.848.4a1.692 1.692 0 0 0-.616-.776c-.277-.203-.613-.304-1.008-.304a1.96 1.96 0 0 0-1.048.28 1.929 1.929 0 0 0-.712.776c-.165.33-.248.717-.248 1.16 0 .443.083.832.248 1.168.171.33.408.59.712.776.304.181.654.272 1.048.272.395 0 .731-.099 1.008-.296a1.69 1.69 0 0 0 .616-.776l.848.4a2.18 2.18 0 0 1-.496.752 2.597 2.597 0 0 1-.848.568c-.33.144-.706.216-1.128.216Zm3.827-.096.4-1.392h-.96v-.8h1.184l.456-1.584h-.96v-.8h1.192l.4-1.384h.92l-.4 1.384h1.44l.392-1.384h.92l-.392 1.384h.96v.8h-1.192l-.456 1.584h.96v.8h-1.192L707.897 33h-.92l.392-1.392h-1.432l-.4 1.392h-.92Zm1.544-2.192h1.44l.456-1.584h-1.44l-.456 1.584Z" class="C#"/>
                </g>
                <g class="C#-Note row-3 row-d">
                    <circle cx="554" cy="70" r="8.75" fill="#fff" stroke="#000" stroke-width="1.5" class="Ellipse 8"/>
                    <path fill="#000" d="M550.79 73.096c-.421 0-.813-.077-1.176-.232a2.93 2.93 0 0 1-.936-.64 3.087 3.087 0 0 1-.616-.976 3.295 3.295 0 0 1-.224-1.232c0-.443.072-.85.216-1.224a2.91 2.91 0 0 1 .624-.976c.267-.277.579-.49.936-.64.358-.155.75-.232 1.176-.232.422 0 .798.072 1.128.216.336.144.619.333.848.568.23.23.395.48.496.752l-.848.4a1.692 1.692 0 0 0-.616-.776c-.277-.203-.613-.304-1.008-.304a1.96 1.96 0 0 0-1.048.28 1.929 1.929 0 0 0-.712.776c-.165.33-.248.717-.248 1.16 0 .443.083.832.248 1.168.171.33.408.59.712.776.304.181.654.272 1.048.272.395 0 .731-.099 1.008-.296a1.69 1.69 0 0 0 .616-.776l.848.4a2.18 2.18 0 0 1-.496.752 2.597 2.597 0 0 1-.848.568c-.33.144-.706.216-1.128.216Zm3.827-.096.4-1.392h-.96v-.8h1.184l.456-1.584h-.96v-.8h1.192l.4-1.384h.92l-.4 1.384h1.44l.392-1.384h.92l-.392 1.384h.96v.8h-1.192l-.456 1.584h.96v.8h-1.192L557.897 73h-.92l.392-1.392h-1.432l-.4 1.392h-.92Zm1.544-2.192h1.44l.456-1.584h-1.44l-.456 1.584Z" class="C#"/>
                </g>
                <g class="C#-Note row-6 row-e row-e-2">
                    <circle cx="454" cy="10" r="8.75" fill="#fff" stroke="#000" stroke-width="1.5" class="Ellipse 8"/>
                    <path fill="#000" d="M450.79 13.096c-.421 0-.813-.077-1.176-.232a2.93 2.93 0 0 1-.936-.64 3.087 3.087 0 0 1-.616-.976 3.295 3.295 0 0 1-.224-1.232c0-.443.072-.85.216-1.224a2.91 2.91 0 0 1 .624-.976c.267-.277.579-.49.936-.64.358-.155.75-.232 1.176-.232.422 0 .798.072 1.128.216.336.144.619.333.848.568.23.23.395.48.496.752l-.848.4a1.692 1.692 0 0 0-.616-.776c-.277-.203-.613-.304-1.008-.304a1.96 1.96 0 0 0-1.048.28 1.929 1.929 0 0 0-.712.776c-.165.33-.248.717-.248 1.16 0 .443.083.832.248 1.168.171.33.408.59.712.776.304.181.654.272 1.048.272.395 0 .731-.099 1.008-.296a1.69 1.69 0 0 0 .616-.776l.848.4a2.18 2.18 0 0 1-.496.752 2.597 2.597 0 0 1-.848.568c-.33.144-.706.216-1.128.216Zm3.827-.096.4-1.392h-.96v-.8h1.184l.456-1.584h-.96v-.8h1.192l.4-1.384h.92l-.4 1.384h1.44l.392-1.384h.92l-.392 1.384h.96v.8h-1.192l-.456 1.584h.96v.8h-1.192L457.897 13h-.92l.392-1.392h-1.432l-.4 1.392h-.92Zm1.544-2.192h1.44l.456-1.584h-1.44l-.456 1.584Z" class="C#"/>
                </g>
            </g>
            <g class="C">
                <g class="C-Note row-1 row-e row-e-1">
                    <circle cx="404" cy="110" r="8.75" fill="#fff" stroke="#000" stroke-width="1.5" class="Ellipse 8"/>
                    <path fill="#000" d="M404.283 113.096c-.422 0-.814-.077-1.176-.232a2.914 2.914 0 0 1-.936-.64 3.052 3.052 0 0 1-.616-.976 3.274 3.274 0 0 1-.224-1.232c0-.443.072-.851.216-1.224a2.877 2.877 0 0 1 2.736-1.848c.421 0 .797.072 1.128.216.336.144.618.333.848.568.229.229.394.48.496.752l-.848.4a1.697 1.697 0 0 0-.616-.776c-.278-.203-.614-.304-1.008-.304-.395 0-.744.093-1.048.28a1.922 1.922 0 0 0-.712.776c-.166.331-.248.717-.248 1.16 0 .443.082.832.248 1.168.17.331.408.589.712.776.304.181.653.272 1.048.272.394 0 .73-.099 1.008-.296.282-.197.488-.456.616-.776l.848.4a2.208 2.208 0 0 1-.496.752c-.23.235-.512.424-.848.568a2.802 2.802 0 0 1-1.128.216Z" class="C"/>
                </g>
                <g class="C-Note row-4 row-g">
                    <circle cx="254" cy="50" r="8.75" fill="#fff" stroke="#000" stroke-width="1.5" class="Ellipse 8"/>
                    <path fill="#000" d="M254.283 53.096c-.422 0-.814-.077-1.176-.232a2.909 2.909 0 0 1-.936-.64 3.052 3.052 0 0 1-.616-.976 3.275 3.275 0 0 1-.224-1.232c0-.443.072-.85.216-1.224a2.88 2.88 0 0 1 2.736-1.848c.421 0 .797.072 1.128.216.336.144.618.333.848.568.229.23.394.48.496.752l-.848.4a1.699 1.699 0 0 0-.616-.776c-.278-.203-.614-.304-1.008-.304a1.96 1.96 0 0 0-1.048.28 1.922 1.922 0 0 0-.712.776c-.166.33-.248.717-.248 1.16 0 .443.082.832.248 1.168.17.33.408.59.712.776.304.181.653.272 1.048.272.394 0 .73-.099 1.008-.296.282-.197.488-.456.616-.776l.848.4a2.208 2.208 0 0 1-.496.752c-.23.235-.512.424-.848.568a2.802 2.802 0 0 1-1.128.216Z" class="C"/>
                </g>
                <g class="C-Note row-2 row-a">
                    <circle cx="154" cy="90" r="8.75" fill="#fff" stroke="#000" stroke-width="1.5" class="Ellipse 8"/>
                    <path fill="#000" d="M154.283 93.096c-.422 0-.814-.077-1.176-.232a2.909 2.909 0 0 1-.936-.64 3.052 3.052 0 0 1-.616-.976 3.275 3.275 0 0 1-.224-1.232c0-.443.072-.85.216-1.224a2.88 2.88 0 0 1 2.736-1.848c.421 0 .797.072 1.128.216.336.144.618.333.848.568.229.23.394.48.496.752l-.848.4a1.699 1.699 0 0 0-.616-.776c-.278-.203-.614-.304-1.008-.304a1.96 1.96 0 0 0-1.048.28 1.922 1.922 0 0 0-.712.776c-.166.33-.248.717-.248 1.16 0 .443.082.832.248 1.168.17.33.408.59.712.776.304.181.653.272 1.048.272.394 0 .73-.099 1.008-.296.282-.197.488-.456.616-.776l.848.4a2.208 2.208 0 0 1-.496.752c-.23.235-.512.424-.848.568a2.802 2.802 0 0 1-1.128.216Z" class="C"/>
                </g>
                <g class="C-Note row-2 row-a">
                    <circle cx="754" cy="90" r="8.75" fill="#fff" stroke="#000" stroke-width="1.5" class="Ellipse 8"/>
                    <path fill="#000" d="M754.283 93.096c-.422 0-.814-.077-1.176-.232a2.909 2.909 0 0 1-.936-.64 3.052 3.052 0 0 1-.616-.976 3.275 3.275 0 0 1-.224-1.232c0-.443.072-.85.216-1.224a2.88 2.88 0 0 1 2.736-1.848c.421 0 .797.072 1.128.216.336.144.618.333.848.568.229.23.394.48.496.752l-.848.4a1.699 1.699 0 0 0-.616-.776c-.278-.203-.614-.304-1.008-.304a1.96 1.96 0 0 0-1.048.28 1.922 1.922 0 0 0-.712.776c-.166.33-.248.717-.248 1.16 0 .443.082.832.248 1.168.17.33.408.59.712.776.304.181.653.272 1.048.272.394 0 .73-.099 1.008-.296.282-.197.488-.456.616-.776l.848.4a2.208 2.208 0 0 1-.496.752c-.23.235-.512.424-.848.568a2.802 2.802 0 0 1-1.128.216Z" class="C"/>
                </g>
                <g class="C-Note row-5 row-b">
                    <circle cx="54" cy="30" r="8.75" fill="#fff" stroke="#000" stroke-width="1.5" class="Ellipse 8"/>
                    <path fill="#000" d="M54.283 33.096c-.422 0-.814-.077-1.176-.232a2.924 2.924 0 0 1-.936-.64 3.07 3.07 0 0 1-.616-.976 3.289 3.289 0 0 1-.224-1.232c0-.443.072-.85.216-1.224a2.877 2.877 0 0 1 2.736-1.848 2.8 2.8 0 0 1 1.128.216 2.6 2.6 0 0 1 .848.568c.229.23.394.48.496.752l-.848.4a1.694 1.694 0 0 0-.616-.776c-.278-.203-.614-.304-1.008-.304-.395 0-.744.093-1.048.28a1.927 1.927 0 0 0-.712.776c-.166.33-.248.717-.248 1.16 0 .443.082.832.248 1.168.17.33.408.59.712.776.304.181.653.272 1.048.272.394 0 .73-.099 1.008-.296.282-.197.488-.456.616-.776l.848.4a2.192 2.192 0 0 1-.496.752 2.6 2.6 0 0 1-.848.568 2.8 2.8 0 0 1-1.128.216Z" class="C"/>
                </g>
                <g class="C-Note row-5 row-b">
                    <circle cx="654" cy="30" r="8.75" fill="#fff" stroke="#000" stroke-width="1.5" class="Ellipse 8"/>
                    <path fill="#000" d="M654.283 33.096c-.422 0-.814-.077-1.176-.232a2.909 2.909 0 0 1-.936-.64 3.052 3.052 0 0 1-.616-.976 3.275 3.275 0 0 1-.224-1.232c0-.443.072-.85.216-1.224a2.88 2.88 0 0 1 2.736-1.848c.421 0 .797.072 1.128.216.336.144.618.333.848.568.229.23.394.48.496.752l-.848.4a1.699 1.699 0 0 0-.616-.776c-.278-.203-.614-.304-1.008-.304a1.96 1.96 0 0 0-1.048.28 1.922 1.922 0 0 0-.712.776c-.166.33-.248.717-.248 1.16 0 .443.082.832.248 1.168.17.33.408.59.712.776.304.181.653.272 1.048.272.394 0 .73-.099 1.008-.296.282-.197.488-.456.616-.776l.848.4a2.208 2.208 0 0 1-.496.752c-.23.235-.512.424-.848.568a2.802 2.802 0 0 1-1.128.216Z" class="C"/>
                </g>
                <g class="C-Note row-3 row-d">
                    <circle cx="504" cy="70" r="8.75" fill="#fff" stroke="#000" stroke-width="1.5" class="Ellipse 8"/>
                    <path fill="#000" d="M504.283 73.096c-.422 0-.814-.077-1.176-.232a2.909 2.909 0 0 1-.936-.64 3.052 3.052 0 0 1-.616-.976 3.275 3.275 0 0 1-.224-1.232c0-.443.072-.85.216-1.224a2.88 2.88 0 0 1 2.736-1.848c.421 0 .797.072 1.128.216.336.144.618.333.848.568.229.23.394.48.496.752l-.848.4a1.699 1.699 0 0 0-.616-.776c-.278-.203-.614-.304-1.008-.304a1.96 1.96 0 0 0-1.048.28 1.922 1.922 0 0 0-.712.776c-.166.33-.248.717-.248 1.16 0 .443.082.832.248 1.168.17.33.408.59.712.776.304.181.653.272 1.048.272.394 0 .73-.099 1.008-.296.282-.197.488-.456.616-.776l.848.4a2.208 2.208 0 0 1-.496.752c-.23.235-.512.424-.848.568a2.802 2.802 0 0 1-1.128.216Z" class="C"/>
                </g>
                <g class="C-Note row-6 row-e row-e-2">
                    <circle cx="404" cy="10" r="8.75" fill="#fff" stroke="#000" stroke-width="1.5" class="Ellipse 8"/>
                    <path fill="#000" d="M404.283 13.096c-.422 0-.814-.077-1.176-.232a2.909 2.909 0 0 1-.936-.64 3.052 3.052 0 0 1-.616-.976 3.275 3.275 0 0 1-.224-1.232c0-.443.072-.85.216-1.224a2.88 2.88 0 0 1 2.736-1.848c.421 0 .797.072 1.128.216.336.144.618.333.848.568.229.23.394.48.496.752l-.848.4a1.699 1.699 0 0 0-.616-.776c-.278-.203-.614-.304-1.008-.304-.395 0-.744.093-1.048.28a1.922 1.922 0 0 0-.712.776c-.166.33-.248.717-.248 1.16 0 .443.082.832.248 1.168.17.33.408.59.712.776.304.181.653.272 1.048.272.394 0 .73-.099 1.008-.296.282-.197.488-.456.616-.776l.848.4a2.208 2.208 0 0 1-.496.752c-.23.235-.512.424-.848.568a2.802 2.802 0 0 1-1.128.216Z" class="C"/>
                </g>
            </g>
            <g class="B">
                <g class="B-Note row-1 row-e row-e-1">
                    <circle cx="354" cy="110" r="8.75" fill="#fff" stroke="#000" stroke-width="1.5" class="Ellipse 8"/>
                    <path fill="#000" d="M351.846 113v-5.96h2.512c.374 0 .696.067.968.2.272.128.48.315.624.56.144.24.216.525.216.856 0 .288-.074.552-.224.792-.144.235-.37.421-.68.56v-.4c.272.107.494.243.664.408.171.16.294.341.368.544.08.203.12.416.12.64 0 .56-.184 1-.552 1.32-.362.32-.861.48-1.496.48h-2.52Zm.944-.84h1.648c.315 0 .566-.085.752-.256.187-.176.28-.408.28-.696 0-.293-.093-.525-.28-.696-.186-.176-.437-.264-.752-.264h-1.648v1.912Zm0-2.744h1.592c.256 0 .462-.072.616-.216a.774.774 0 0 0 .232-.584c0-.24-.077-.427-.232-.56-.154-.133-.36-.2-.616-.2h-1.592v1.56Z" class="B"/>
                </g>
                <g class="B-Note row-4 row-g">
                    <circle cx="204" cy="50" r="8.75" fill="#fff" stroke="#000" stroke-width="1.5" class="Ellipse 8"/>
                    <path fill="#000" d="M201.846 53v-5.96h2.512c.374 0 .696.067.968.2.272.128.48.315.624.56.144.24.216.525.216.856 0 .288-.074.552-.224.792-.144.235-.37.421-.68.56v-.4c.272.107.494.243.664.408.171.16.294.341.368.544.08.203.12.416.12.64 0 .56-.184 1-.552 1.32-.362.32-.861.48-1.496.48h-2.52Zm.944-.84h1.648c.315 0 .566-.085.752-.256.187-.176.28-.408.28-.696 0-.293-.093-.525-.28-.696-.186-.176-.437-.264-.752-.264h-1.648v1.912Zm0-2.744h1.592c.256 0 .462-.072.616-.216a.774.774 0 0 0 .232-.584c0-.24-.077-.427-.232-.56-.154-.133-.36-.2-.616-.2h-1.592v1.56Z" class="B"/>
                </g>
                <g class="B-Note row-4 row-g">
                    <circle cx="804" cy="50" r="8.75" fill="#fff" stroke="#000" stroke-width="1.5" class="Ellipse 8"/>
                    <path fill="#000" d="M801.846 53v-5.96h2.512c.374 0 .696.067.968.2.272.128.48.315.624.56.144.24.216.525.216.856 0 .288-.074.552-.224.792-.144.235-.37.421-.68.56v-.4c.272.107.494.243.664.408.171.16.294.341.368.544.08.203.12.416.12.64 0 .56-.184 1-.552 1.32-.362.32-.861.48-1.496.48h-2.52Zm.944-.84h1.648c.315 0 .566-.085.752-.256.187-.176.28-.408.28-.696 0-.293-.093-.525-.28-.696-.186-.176-.437-.264-.752-.264h-1.648v1.912Zm0-2.744h1.592c.256 0 .462-.072.616-.216a.774.774 0 0 0 .232-.584c0-.24-.077-.427-.232-.56-.154-.133-.36-.2-.616-.2h-1.592v1.56Z" class="B"/>
                </g>
                <g class="B-Note row-2 row-a">
                    <circle cx="104" cy="90" r="8.75" fill="#fff" stroke="#000" stroke-width="1.5" class="Ellipse 8"/>
                    <path fill="#000" d="M101.846 93v-5.96h2.512c.374 0 .696.067.968.2.272.128.48.315.624.56.144.24.216.525.216.856 0 .288-.074.552-.224.792-.144.235-.37.421-.68.56v-.4c.272.107.494.243.664.408.171.16.294.341.368.544.08.203.12.416.12.64 0 .56-.184 1-.552 1.32-.362.32-.861.48-1.496.48h-2.52Zm.944-.84h1.648c.315 0 .566-.085.752-.256.187-.176.28-.408.28-.696 0-.293-.093-.525-.28-.696-.186-.176-.437-.264-.752-.264h-1.648v1.912Zm0-2.744h1.592c.256 0 .462-.072.616-.216a.774.774 0 0 0 .232-.584c0-.24-.077-.427-.232-.56-.154-.133-.36-.2-.616-.2h-1.592v1.56Z" class="B"/>
                </g>
                <g class="B-Note row-2 row-a">
                    <circle cx="704" cy="90" r="8.75" fill="#fff" stroke="#000" stroke-width="1.5" class="Ellipse 8"/>
                    <path fill="#000" d="M701.846 93v-5.96h2.512c.374 0 .696.067.968.2.272.128.48.315.624.56.144.24.216.525.216.856 0 .288-.074.552-.224.792-.144.235-.37.421-.68.56v-.4c.272.107.494.243.664.408.171.16.294.341.368.544.08.203.12.416.12.64 0 .56-.184 1-.552 1.32-.362.32-.861.48-1.496.48h-2.52Zm.944-.84h1.648c.315 0 .566-.085.752-.256.187-.176.28-.408.28-.696 0-.293-.093-.525-.28-.696-.186-.176-.437-.264-.752-.264h-1.648v1.912Zm0-2.744h1.592c.256 0 .462-.072.616-.216a.774.774 0 0 0 .232-.584c0-.24-.077-.427-.232-.56-.154-.133-.36-.2-.616-.2h-1.592v1.56Z" class="B"/>
                </g>
                <g class="B-Note row-5 row-b">
                    <circle cx="604" cy="30" r="8.75" fill="#fff" stroke="#000" stroke-width="1.5" class="Ellipse 8"/>
                    <path fill="#000" d="M601.846 33v-5.96h2.512c.374 0 .696.067.968.2.272.128.48.315.624.56.144.24.216.525.216.856 0 .288-.074.552-.224.792-.144.235-.37.421-.68.56v-.4c.272.107.494.243.664.408.171.16.294.341.368.544.08.203.12.416.12.64 0 .56-.184 1-.552 1.32-.362.32-.861.48-1.496.48h-2.52Zm.944-.84h1.648c.315 0 .566-.085.752-.256.187-.176.28-.408.28-.696 0-.293-.093-.525-.28-.696-.186-.176-.437-.264-.752-.264h-1.648v1.912Zm0-2.744h1.592c.256 0 .462-.072.616-.216a.774.774 0 0 0 .232-.584c0-.24-.077-.427-.232-.56-.154-.133-.36-.2-.616-.2h-1.592v1.56Z" class="B"/>
                </g>
                <g class="B-Note row-3 row-d">
                    <circle cx="454" cy="70" r="8.75" fill="#fff" stroke="#000" stroke-width="1.5" class="Ellipse 8"/>
                    <path fill="#000" d="M451.846 73v-5.96h2.512c.374 0 .696.067.968.2.272.128.48.315.624.56.144.24.216.525.216.856 0 .288-.074.552-.224.792-.144.235-.37.421-.68.56v-.4c.272.107.494.243.664.408.171.16.294.341.368.544.08.203.12.416.12.64 0 .56-.184 1-.552 1.32-.362.32-.861.48-1.496.48h-2.52Zm.944-.84h1.648c.315 0 .566-.085.752-.256.187-.176.28-.408.28-.696 0-.293-.093-.525-.28-.696-.186-.176-.437-.264-.752-.264h-1.648v1.912Zm0-2.744h1.592c.256 0 .462-.072.616-.216a.774.774 0 0 0 .232-.584c0-.24-.077-.427-.232-.56-.154-.133-.36-.2-.616-.2h-1.592v1.56Z" class="B"/>
                </g>
                <g class="B-Note row-6 row-e row-e-2">
                    <circle cx="354" cy="10" r="8.75" fill="#fff" stroke="#000" stroke-width="1.5" class="Ellipse 8"/>
                    <path fill="#000" d="M351.846 13V7.04h2.512c.374 0 .696.067.968.2.272.128.48.315.624.56.144.24.216.525.216.856 0 .288-.074.552-.224.792-.144.235-.37.421-.68.56v-.4c.272.107.494.243.664.408.171.16.294.341.368.544.08.203.12.416.12.64 0 .56-.184 1-.552 1.32-.362.32-.861.48-1.496.48h-2.52Zm.944-.84h1.648c.315 0 .566-.085.752-.256.187-.176.28-.408.28-.696 0-.293-.093-.525-.28-.696-.186-.176-.437-.264-.752-.264h-1.648v1.912Zm0-2.744h1.592c.256 0 .462-.072.616-.216a.774.774 0 0 0 .232-.584c0-.24-.077-.427-.232-.56-.154-.133-.36-.2-.616-.2h-1.592v1.56Z" class="B"/>
                </g>
            </g>
            <g class="A#">
                <g class="A#-Note row-1 row-e row-e-1">
                    <circle cx="304" cy="110" r="8.75" fill="#fff" stroke="#000" stroke-width="1.5" class="Ellipse 8"/>
                    <path fill="#000" d="m297.826 113 2.096-5.96h1.168l2.096 5.96h-1.008l-.456-1.336h-2.424l-.464 1.336h-1.008Zm1.744-2.176h1.864l-1.056-3.12h.264l-1.072 3.12Zm4.707 2.176.4-1.392h-.96v-.8h1.184l.456-1.584h-.96v-.8h1.192l.4-1.384h.92l-.4 1.384h1.44l.392-1.384h.92l-.392 1.384h.96v.8h-1.192l-.456 1.584h.96v.8h-1.192l-.392 1.392h-.92l.392-1.392h-1.432l-.4 1.392h-.92Zm1.544-2.192h1.44l.456-1.584h-1.44l-.456 1.584Z" class="A#"/>
                </g>
                <g class="A#-Note row-4 row-g">
                    <circle cx="154" cy="50" r="8.75" fill="#fff" stroke="#000" stroke-width="1.5" class="Ellipse 8"/>
                    <path fill="#000" d="m147.826 53 2.096-5.96h1.168l2.096 5.96h-1.008l-.456-1.336h-2.424L148.834 53h-1.008Zm1.744-2.176h1.864l-1.056-3.12h.264l-1.072 3.12ZM154.277 53l.4-1.392h-.96v-.8h1.184l.456-1.584h-.96v-.8h1.192l.4-1.384h.92l-.4 1.384h1.44l.392-1.384h.92l-.392 1.384h.96v.8h-1.192l-.456 1.584h.96v.8h-1.192L157.557 53h-.92l.392-1.392h-1.432l-.4 1.392h-.92Zm1.544-2.192h1.44l.456-1.584h-1.44l-.456 1.584Z" class="A#"/>
                </g>
                <g class="A#-Note row-4 row-g">
                    <circle cx="754" cy="50" r="8.75" fill="#fff" stroke="#000" stroke-width="1.5" class="Ellipse 8"/>
                    <path fill="#000" d="m747.826 53 2.096-5.96h1.168l2.096 5.96h-1.008l-.456-1.336h-2.424L748.834 53h-1.008Zm1.744-2.176h1.864l-1.056-3.12h.264l-1.072 3.12ZM754.277 53l.4-1.392h-.96v-.8h1.184l.456-1.584h-.96v-.8h1.192l.4-1.384h.92l-.4 1.384h1.44l.392-1.384h.92l-.392 1.384h.96v.8h-1.192l-.456 1.584h.96v.8h-1.192L757.557 53h-.92l.392-1.392h-1.432l-.4 1.392h-.92Zm1.544-2.192h1.44l.456-1.584h-1.44l-.456 1.584Z" class="A#"/>
                </g>
                <g class="A#-Note row-2 row-a">
                    <circle cx="54" cy="90" r="8.75" fill="#fff" stroke="#000" stroke-width="1.5" class="Ellipse 8"/>
                    <path fill="#000" d="m47.826 93 2.096-5.96h1.168L53.186 93h-1.008l-.456-1.336h-2.424L48.834 93h-1.008Zm1.744-2.176h1.864l-1.056-3.12h.264l-1.072 3.12ZM54.277 93l.4-1.392h-.96v-.8h1.184l.456-1.584h-.96v-.8h1.192l.4-1.384h.92l-.4 1.384h1.44l.392-1.384h.92l-.392 1.384h.96v.8h-1.192l-.456 1.584h.96v.8H57.95L57.557 93h-.92l.392-1.392h-1.432l-.4 1.392h-.92Zm1.544-2.192h1.44l.456-1.584h-1.44l-.456 1.584Z" class="A#"/>
                </g>
                <g class="A#-Note row-2 row-a">
                    <circle cx="654" cy="90" r="8.75" fill="#fff" stroke="#000" stroke-width="1.5" class="Ellipse 8"/>
                    <path fill="#000" d="m647.826 93 2.096-5.96h1.168l2.096 5.96h-1.008l-.456-1.336h-2.424L648.834 93h-1.008Zm1.744-2.176h1.864l-1.056-3.12h.264l-1.072 3.12ZM654.277 93l.4-1.392h-.96v-.8h1.184l.456-1.584h-.96v-.8h1.192l.4-1.384h.92l-.4 1.384h1.44l.392-1.384h.92l-.392 1.384h.96v.8h-1.192l-.456 1.584h.96v.8h-1.192L657.557 93h-.92l.392-1.392h-1.432l-.4 1.392h-.92Zm1.544-2.192h1.44l.456-1.584h-1.44l-.456 1.584Z" class="A#"/>
                </g>
                <g class="A#-Note row-5 row-b">
                    <circle cx="554" cy="30" r="8.75" fill="#fff" stroke="#000" stroke-width="1.5" class="Ellipse 8"/>
                    <path fill="#000" d="m547.826 33 2.096-5.96h1.168l2.096 5.96h-1.008l-.456-1.336h-2.424L548.834 33h-1.008Zm1.744-2.176h1.864l-1.056-3.12h.264l-1.072 3.12ZM554.277 33l.4-1.392h-.96v-.8h1.184l.456-1.584h-.96v-.8h1.192l.4-1.384h.92l-.4 1.384h1.44l.392-1.384h.92l-.392 1.384h.96v.8h-1.192l-.456 1.584h.96v.8h-1.192L557.557 33h-.92l.392-1.392h-1.432l-.4 1.392h-.92Zm1.544-2.192h1.44l.456-1.584h-1.44l-.456 1.584Z" class="A#"/>
                </g>
                <g class="A#-Note row-3 row-d">
                    <circle cx="404" cy="70" r="8.75" fill="#fff" stroke="#000" stroke-width="1.5" class="Ellipse 8"/>
                    <path fill="#000" d="m397.826 73 2.096-5.96h1.168l2.096 5.96h-1.008l-.456-1.336h-2.424L398.834 73h-1.008Zm1.744-2.176h1.864l-1.056-3.12h.264l-1.072 3.12ZM404.277 73l.4-1.392h-.96v-.8h1.184l.456-1.584h-.96v-.8h1.192l.4-1.384h.92l-.4 1.384h1.44l.392-1.384h.92l-.392 1.384h.96v.8h-1.192l-.456 1.584h.96v.8h-1.192L407.557 73h-.92l.392-1.392h-1.432l-.4 1.392h-.92Zm1.544-2.192h1.44l.456-1.584h-1.44l-.456 1.584Z" class="A#"/>
                </g>
                <g class="A#-Note row-6 row-e row-e-2">
                    <circle cx="304" cy="10" r="8.75" fill="#fff" stroke="#000" stroke-width="1.5" class="Ellipse 8"/>
                    <path fill="#000" d="m297.826 13 2.096-5.96h1.168l2.096 5.96h-1.008l-.456-1.336h-2.424L298.834 13h-1.008Zm1.744-2.176h1.864l-1.056-3.12h.264l-1.072 3.12ZM304.277 13l.4-1.392h-.96v-.8h1.184l.456-1.584h-.96v-.8h1.192l.4-1.384h.92l-.4 1.384h1.44l.392-1.384h.92l-.392 1.384h.96v.8h-1.192l-.456 1.584h.96v.8h-1.192L307.557 13h-.92l.392-1.392h-1.432l-.4 1.392h-.92Zm1.544-2.192h1.44l.456-1.584h-1.44l-.456 1.584Z" class="A#"/>
                </g>
            </g>
            <g class="A">
                <g class="A-Note row-1 row-e row-e-1">
                    <circle cx="254" cy="110" r="8.75" fill="#fff" stroke="#000" stroke-width="1.5" class="Ellipse 8"/>
                    <path fill="#000" d="m251.318 113 2.096-5.96h1.168l2.096 5.96h-1.008l-.456-1.336h-2.424l-.464 1.336h-1.008Zm1.744-2.176h1.864l-1.056-3.12h.264l-1.072 3.12Z" class="A"/>
                </g>
                <g class="A-Note row-4 row-g">
                    <circle cx="104" cy="50" r="8.75" fill="#fff" stroke="#000" stroke-width="1.5" class="Ellipse 8"/>
                    <path fill="#000" d="m101.318 53 2.096-5.96h1.168l2.096 5.96h-1.008l-.456-1.336h-2.424L102.326 53h-1.008Zm1.744-2.176h1.864l-1.056-3.12h.264l-1.072 3.12Z" class="A"/>
                </g>
                <g class="A-Note row-4 row-g">
                    <circle cx="704" cy="50" r="8.75" fill="#fff" stroke="#000" stroke-width="1.5" class="Ellipse 8"/>
                    <path fill="#000" d="m701.318 53 2.096-5.96h1.168l2.096 5.96h-1.008l-.456-1.336h-2.424L702.326 53h-1.008Zm1.744-2.176h1.864l-1.056-3.12h.264l-1.072 3.12Z" class="A"/>
                </g>
                <g class="A-Note row-2 row-a">
                    <circle cx="604" cy="90" r="8.75" fill="#fff" stroke="#000" stroke-width="1.5" class="Ellipse 8"/>
                    <path fill="#000" d="m601.318 93 2.096-5.96h1.168l2.096 5.96h-1.008l-.456-1.336h-2.424L602.326 93h-1.008Zm1.744-2.176h1.864l-1.056-3.12h.264l-1.072 3.12Z" class="A"/>
                </g>
                <g class="A-Note row-5 row-b">
                    <circle cx="504" cy="30" r="8.75" fill="#fff" stroke="#000" stroke-width="1.5" class="Ellipse 8"/>
                    <path fill="#000" d="m501.318 33 2.096-5.96h1.168l2.096 5.96h-1.008l-.456-1.336h-2.424L502.326 33h-1.008Zm1.744-2.176h1.864l-1.056-3.12h.264l-1.072 3.12Z" class="A"/>
                </g>
                <g class="A-Note row-3 row-d">
                    <circle cx="354" cy="70" r="8.75" fill="#fff" stroke="#000" stroke-width="1.5" class="Ellipse 8"/>
                    <path fill="#000" d="m351.318 73 2.096-5.96h1.168l2.096 5.96h-1.008l-.456-1.336h-2.424L352.326 73h-1.008Zm1.744-2.176h1.864l-1.056-3.12h.264l-1.072 3.12Z" class="A"/>
                </g>
                <g class="A-Note row-6 row-e row-e-2">
                    <circle cx="254" cy="10" r="8.75" fill="#fff" stroke="#000" stroke-width="1.5" class="Ellipse 8"/>
                    <path fill="#000" d="m251.318 13 2.096-5.96h1.168l2.096 5.96h-1.008l-.456-1.336h-2.424L252.326 13h-1.008Zm1.744-2.176h1.864l-1.056-3.12h.264l-1.072 3.12Z" class="A"/>
                </g>
            </g>
        </g>
    </g>
</svg>