<svg xmlns="http://www.w3.org/2000/svg" width="100%" height="100%" fill="none" viewBox="0 0 547 104">
    <g class="Piano">
        <path fill="#fff" stroke="#000" stroke-width="2" d="M1 1h545v102H1z" class="Rectangle 31"/>
        <g class="White-Notes">
            <path fill="#fff" stroke="#000" stroke-width="2" d="M1 1h27v102H1z" class="C"/>
            <path fill="#fff" stroke="#000" stroke-width="2" d="M27 1h27v102H27z" class="D"/>
            <path fill="#fff" stroke="#000" stroke-width="2" d="M53 1h27v102H53z" class="E"/>
            <path fill="#fff" stroke="#000" stroke-width="2" d="M79 1h27v102H79z" class="F"/>
            <path fill="#fff" stroke="#000" stroke-width="2" d="M105 1h27v102h-27z" class="G"/>
            <path fill="#fff" stroke="#000" stroke-width="2" d="M131 1h27v102h-27z" class="A"/>
            <path fill="#fff" stroke="#000" stroke-width="2" d="M157 1h27v102h-27z" class="B"/>
            <path fill="#fff" stroke="#000" stroke-width="2" d="M182 1h27v102h-27z" class="C"/>
            <path fill="#fff" stroke="#000" stroke-width="2" d="M208 1h27v102h-27z" class="D"/>
            <path fill="#fff" stroke="#000" stroke-width="2" d="M234 1h27v102h-27z" class="E"/>
            <path fill="#fff" stroke="#000" stroke-width="2" d="M260 1h27v102h-27z" class="F"/>
            <path fill="#fff" stroke="#000" stroke-width="2" d="M286 1h27v102h-27z" class="G"/>
            <path fill="#fff" stroke="#000" stroke-width="2" d="M312 1h27v102h-27z" class="A"/>
            <path fill="#fff" stroke="#000" stroke-width="2" d="M338 1h27v102h-27z" class="B"/>
            <path fill="#fff" stroke="#000" stroke-width="2" d="M363 1h27v102h-27z" class="C"/>
            <path fill="#fff" stroke="#000" stroke-width="2" d="M389 1h27v102h-27z" class="D"/>
            <path fill="#fff" stroke="#000" stroke-width="2" d="M415 1h27v102h-27z" class="E"/>
            <path fill="#fff" stroke="#000" stroke-width="2" d="M441 1h27v102h-27z" class="F"/>
            <path fill="#fff" stroke="#000" stroke-width="2" d="M467 1h27v102h-27z" class="G"/>
            <path fill="#fff" stroke="#000" stroke-width="2" d="M493 1h27v102h-27z" class="A"/>
            <path fill="#fff" stroke="#000" stroke-width="2" d="M519 1h27v102h-27z" class="B"/>
        </g>
        <g class="Black-Notes">
            <path fill="#212121" stroke="#000" stroke-width="2" d="M18 1h18v62H18z" class="C#"/>
            <path fill="#212121" stroke="#000" stroke-width="2" d="M44 1h18v62H44z" class="D#"/>
            <path fill="#212121" stroke="#000" stroke-width="2" d="M96 1h18v62H96z" class="F#"/>
            <path fill="#212121" stroke="#000" stroke-width="2" d="M122 1h18v62h-18z" class="G#"/>
            <path fill="#212121" stroke="#000" stroke-width="2" d="M148 1h18v62h-18z" class="B#"/>
            <path fill="#212121" stroke="#000" stroke-width="2" d="M199 1h18v62h-18z" class="C#"/>
            <path fill="#212121" stroke="#000" stroke-width="2" d="M225 1h18v62h-18z" class="D#"/>
            <path fill="#212121" stroke="#000" stroke-width="2" d="M277 1h18v62h-18z" class="F#"/>
            <path fill="#212121" stroke="#000" stroke-width="2" d="M303 1h18v62h-18z" class="G#"/>
            <path fill="#212121" stroke="#000" stroke-width="2" d="M329 1h18v62h-18z" class="B#"/>
            <path fill="#212121" stroke="#000" stroke-width="2" d="M380 1h18v62h-18z" class="C#"/>
            <path fill="#212121" stroke="#000" stroke-width="2" d="M406 1h18v62h-18z" class="D#"/>
            <path fill="#212121" stroke="#000" stroke-width="2" d="M458 1h18v62h-18z" class="F#"/>
            <path fill="#212121" stroke="#000" stroke-width="2" d="M484 1h18v62h-18z" class="G#"/>
            <path fill="#212121" stroke="#000" stroke-width="2" d="M510 1h18v62h-18z" class="B#"/>
        </g>
        <g class="Notes">
            <g class="G#">
                <g class="G#-Note">
                    <circle cx="131" cy="53" r="7.375" fill="#fff" stroke="#000" stroke-width=".75" class="Ellipse 8"/>
                    <path fill="#000" d="M127.871 56.09c-.395 0-.763-.073-1.103-.218a2.829 2.829 0 0 1-.885-.6 2.811 2.811 0 0 1-.585-.914c-.14-.35-.21-.735-.21-1.155 0-.416.068-.798.203-1.148.14-.355.335-.66.585-.915.25-.26.542-.46.877-.6a2.749 2.749 0 0 1 1.103-.218c.395 0 .747.068 1.057.203.315.135.58.313.795.532.215.215.37.45.465.706l-.787.382a1.537 1.537 0 0 0-.57-.735c-.265-.19-.585-.285-.96-.285-.37 0-.698.087-.983.263a1.805 1.805 0 0 0-.667.727 2.4 2.4 0 0 0-.233 1.087c0 .416.08.78.24 1.096.165.31.39.552.675.727.285.17.613.255.983.255.31 0 .592-.063.847-.188.26-.13.468-.31.623-.54a1.45 1.45 0 0 0 .232-.817v-.383l.398.36h-2.115v-.75h2.595v.525c0 .41-.07.778-.21 1.103a2.43 2.43 0 0 1-1.395 1.327 2.78 2.78 0 0 1-.975.173Zm3.843-.09.375-1.305h-.9v-.75h1.11l.428-1.485h-.9v-.75h1.117l.375-1.297h.863l-.375 1.297h1.35l.367-1.297h.863l-.368 1.297h.9v.75h-1.117l-.428 1.485h.9v.75h-1.117L134.789 56h-.862l.367-1.305h-1.342L132.577 56h-.863Zm1.448-2.055h1.35l.427-1.485h-1.35l-.427 1.485Z" class="G#"/>
                </g>
                <g class="G#-Note">
                    <circle cx="312" cy="53" r="7.375" fill="#fff" stroke="#000" stroke-width=".75" class="Ellipse 8"/>
                    <path fill="#000" d="M308.871 56.09c-.395 0-.763-.073-1.103-.218a2.829 2.829 0 0 1-.885-.6 2.811 2.811 0 0 1-.585-.914c-.14-.35-.21-.735-.21-1.155 0-.416.068-.798.203-1.148.14-.355.335-.66.585-.915.25-.26.542-.46.877-.6a2.749 2.749 0 0 1 1.103-.218c.395 0 .747.068 1.057.203.315.135.58.313.795.532.215.215.37.45.465.706l-.787.382a1.537 1.537 0 0 0-.57-.735c-.265-.19-.585-.285-.96-.285-.37 0-.698.087-.983.263a1.805 1.805 0 0 0-.667.727 2.4 2.4 0 0 0-.233 1.087c0 .416.08.78.24 1.096.165.31.39.552.675.727.285.17.613.255.983.255.31 0 .592-.063.847-.188.26-.13.468-.31.623-.54a1.45 1.45 0 0 0 .232-.817v-.383l.398.36h-2.115v-.75h2.595v.525c0 .41-.07.778-.21 1.103a2.43 2.43 0 0 1-1.395 1.327 2.78 2.78 0 0 1-.975.173Zm3.843-.09.375-1.305h-.9v-.75h1.11l.428-1.485h-.9v-.75h1.117l.375-1.297h.863l-.375 1.297h1.35l.367-1.297h.863l-.368 1.297h.9v.75h-1.117l-.428 1.485h.9v.75h-1.117L315.789 56h-.862l.367-1.305h-1.342L313.577 56h-.863Zm1.448-2.055h1.35l.427-1.485h-1.35l-.427 1.485Z" class="G#"/>
                </g>
                <g class="G#-Note">
                    <circle cx="493" cy="53" r="7.375" fill="#fff" stroke="#000" stroke-width=".75" class="Ellipse 8"/>
                    <path fill="#000" d="M489.871 56.09c-.395 0-.763-.073-1.103-.218a2.829 2.829 0 0 1-.885-.6 2.811 2.811 0 0 1-.585-.914c-.14-.35-.21-.735-.21-1.155 0-.416.068-.798.203-1.148.14-.355.335-.66.585-.915.25-.26.542-.46.877-.6a2.749 2.749 0 0 1 1.103-.218c.395 0 .747.068 1.057.203.315.135.58.313.795.532.215.215.37.45.465.706l-.787.382a1.537 1.537 0 0 0-.57-.735c-.265-.19-.585-.285-.96-.285-.37 0-.698.087-.983.263a1.805 1.805 0 0 0-.667.727 2.4 2.4 0 0 0-.233 1.087c0 .416.08.78.24 1.096.165.31.39.552.675.727.285.17.613.255.983.255.31 0 .592-.063.847-.188.26-.13.468-.31.623-.54a1.45 1.45 0 0 0 .232-.817v-.383l.398.36h-2.115v-.75h2.595v.525c0 .41-.07.778-.21 1.103a2.43 2.43 0 0 1-1.395 1.327 2.78 2.78 0 0 1-.975.173Zm3.843-.09.375-1.305h-.9v-.75h1.11l.428-1.485h-.9v-.75h1.117l.375-1.297h.863l-.375 1.297h1.35l.367-1.297h.863l-.368 1.297h.9v.75h-1.117l-.428 1.485h.9v.75h-1.117L496.789 56h-.862l.367-1.305h-1.342L494.577 56h-.863Zm1.448-2.055h1.35l.427-1.485h-1.35l-.427 1.485Z" class="G#"/>
                </g>
            </g>
            <g class="G">
                <g class="G-Note">
                    <circle cx="119" cy="90" r="8.75" fill="#fff" stroke="#000" stroke-width="1.5" class="Ellipse 8"/>
                    <path fill="#000" d="M119.154 93.096c-.421 0-.813-.077-1.176-.232a3.022 3.022 0 0 1-.944-.64 2.988 2.988 0 0 1-.624-.976 3.295 3.295 0 0 1-.224-1.232c0-.443.072-.85.216-1.224a2.88 2.88 0 0 1 2.736-1.848c.421 0 .797.072 1.128.216.336.144.619.333.848.568.229.23.395.48.496.752l-.84.408a1.64 1.64 0 0 0-.608-.784c-.283-.203-.624-.304-1.024-.304a1.96 1.96 0 0 0-1.048.28 1.929 1.929 0 0 0-.712.776c-.165.33-.248.717-.248 1.16 0 .443.085.832.256 1.168.176.33.416.59.72.776.304.181.653.272 1.048.272.331 0 .632-.067.904-.2.277-.139.499-.33.664-.576a1.55 1.55 0 0 0 .248-.872v-.408l.424.384h-2.256v-.8h2.768v.56c0 .437-.075.83-.224 1.176a2.589 2.589 0 0 1-1.488 1.416 2.965 2.965 0 0 1-1.04.184Z" class="G"/>
                </g>
                <g class="G-Note">
                    <circle cx="300" cy="90" r="8.75" fill="#fff" stroke="#000" stroke-width="1.5" class="Ellipse 8"/>
                    <path fill="#000" d="M300.154 93.096c-.421 0-.813-.077-1.176-.232a3.022 3.022 0 0 1-.944-.64 2.988 2.988 0 0 1-.624-.976 3.295 3.295 0 0 1-.224-1.232c0-.443.072-.85.216-1.224a2.88 2.88 0 0 1 2.736-1.848c.421 0 .797.072 1.128.216.336.144.619.333.848.568.229.23.395.48.496.752l-.84.408a1.64 1.64 0 0 0-.608-.784c-.283-.203-.624-.304-1.024-.304a1.96 1.96 0 0 0-1.048.28 1.929 1.929 0 0 0-.712.776c-.165.33-.248.717-.248 1.16 0 .443.085.832.256 1.168.176.33.416.59.72.776.304.181.653.272 1.048.272.331 0 .632-.067.904-.2.277-.139.499-.33.664-.576a1.55 1.55 0 0 0 .248-.872v-.408l.424.384h-2.256v-.8h2.768v.56c0 .437-.075.83-.224 1.176a2.589 2.589 0 0 1-1.488 1.416 2.965 2.965 0 0 1-1.04.184Z" class="G"/>
                </g>
                <g class="G-Note">
                    <circle cx="481" cy="90" r="8.75" fill="#fff" stroke="#000" stroke-width="1.5" class="Ellipse 8"/>
                    <path fill="#000" d="M481.154 93.096c-.421 0-.813-.077-1.176-.232a3.022 3.022 0 0 1-.944-.64 2.988 2.988 0 0 1-.624-.976 3.295 3.295 0 0 1-.224-1.232c0-.443.072-.85.216-1.224a2.88 2.88 0 0 1 2.736-1.848c.421 0 .797.072 1.128.216.336.144.619.333.848.568.229.23.395.48.496.752l-.84.408a1.64 1.64 0 0 0-.608-.784c-.283-.203-.624-.304-1.024-.304a1.96 1.96 0 0 0-1.048.28 1.929 1.929 0 0 0-.712.776c-.165.33-.248.717-.248 1.16 0 .443.085.832.256 1.168.176.33.416.59.72.776.304.181.653.272 1.048.272.331 0 .632-.067.904-.2.277-.139.499-.33.664-.576a1.55 1.55 0 0 0 .248-.872v-.408l.424.384h-2.256v-.8h2.768v.56c0 .437-.075.83-.224 1.176a2.589 2.589 0 0 1-1.488 1.416 2.965 2.965 0 0 1-1.04.184Z" class="G"/>
                </g>
            </g>
            <g class="F#">
                <g class="F#-Note">
                    <circle cx="105" cy="53" r="7.375" fill="#fff" stroke="#000" stroke-width=".75" class="Ellipse 8"/>
                    <path fill="#000" d="M100.114 56v-5.587h3.637v.787h-2.752v1.68h2.452v.787h-2.452V56h-.885Zm4.74 0 .375-1.305h-.9v-.75h1.11l.427-1.485h-.9v-.75h1.118l.375-1.297h.862l-.375 1.297h1.35l.368-1.297h.862l-.367 1.297h.9v.75h-1.118l-.427 1.485h.9v.75h-1.118L107.929 56h-.863l.368-1.305h-1.343L105.716 56h-.862Zm1.447-2.055h1.35l.428-1.485h-1.35l-.428 1.485Z" class="F#"/>
                </g>
                <g class="F#-Note">
                    <circle cx="286" cy="53" r="7.375" fill="#fff" stroke="#000" stroke-width=".75" class="Ellipse 8"/>
                    <path fill="#000" d="M281.114 56v-5.587h3.637v.787h-2.752v1.68h2.452v.787h-2.452V56h-.885Zm4.74 0 .375-1.305h-.9v-.75h1.11l.427-1.485h-.9v-.75h1.118l.375-1.297h.862l-.375 1.297h1.35l.368-1.297h.862l-.367 1.297h.9v.75h-1.118l-.427 1.485h.9v.75h-1.118L288.929 56h-.863l.368-1.305h-1.343L286.716 56h-.862Zm1.447-2.055h1.35l.428-1.485h-1.35l-.428 1.485Z" class="F#"/>
                </g>
                <g class="F#-Note">
                    <circle cx="467" cy="53" r="7.375" fill="#fff" stroke="#000" stroke-width=".75" class="Ellipse 8"/>
                    <path fill="#000" d="M462.114 56v-5.587h3.637v.787h-2.752v1.68h2.452v.787h-2.452V56h-.885Zm4.74 0 .375-1.305h-.9v-.75h1.11l.427-1.485h-.9v-.75h1.118l.375-1.297h.862l-.375 1.297h1.35l.368-1.297h.862l-.367 1.297h.9v.75h-1.118l-.427 1.485h.9v.75h-1.118L469.929 56h-.863l.368-1.305h-1.343L467.716 56h-.862Zm1.447-2.055h1.35l.428-1.485h-1.35l-.428 1.485Z" class="F#"/>
                </g>
            </g>
            <g class="F">
                <g class="F-Note">
                    <circle cx="92" cy="90" r="8.75" fill="#fff" stroke="#000" stroke-width="1.5" class="Ellipse 8"/>
                    <path fill="#000" d="M90.28 93v-5.96h3.88v.84h-2.936v1.792h2.616v.84h-2.616V93h-.944Z" class="F"/>
                </g>
                <g class="F-Note">
                    <circle cx="273" cy="90" r="8.75" fill="#fff" stroke="#000" stroke-width="1.5" class="Ellipse 8"/>
                    <path fill="#000" d="M271.28 93v-5.96h3.88v.84h-2.936v1.792h2.616v.84h-2.616V93h-.944Z" class="F"/>
                </g>
                <g class="F-Note">
                    <circle cx="454" cy="90" r="8.75" fill="#fff" stroke="#000" stroke-width="1.5" class="Ellipse 8"/>
                    <path fill="#000" d="M452.28 93v-5.96h3.88v.84h-2.936v1.792h2.616v.84h-2.616V93h-.944Z" class="F"/>
                </g>
            </g>
            <g class="E">
                <g class="E-Note">
                    <circle cx="67" cy="90" r="8.75" fill="#fff" stroke="#000" stroke-width="1.5" class="Ellipse 8"/>
                    <path fill="#000" d="M65.214 93v-5.96h3.928v.84h-2.984v1.712h2.824v.84h-2.824v1.728h2.984V93h-3.928Z" class="E"/>
                </g>
                <g class="E-Note">
                    <circle cx="248" cy="90" r="8.75" fill="#fff" stroke="#000" stroke-width="1.5" class="Ellipse 8"/>
                    <path fill="#000" d="M246.214 93v-5.96h3.928v.84h-2.984v1.712h2.824v.84h-2.824v1.728h2.984V93h-3.928Z" class="E"/>
                </g>
                <g class="E-Note">
                    <circle cx="429" cy="90" r="8.75" fill="#fff" stroke="#000" stroke-width="1.5" class="Ellipse 8"/>
                    <path fill="#000" d="M427.214 93v-5.96h3.928v.84h-2.984v1.712h2.824v.84h-2.824v1.728h2.984V93h-3.928Z" class="E"/>
                </g>
            </g>
            <g class="D#">
                <g class="D#-Note">
                    <circle cx="53" cy="53" r="7.375" fill="#fff" stroke="#000" stroke-width=".75" class="Ellipse 8"/>
                    <path fill="#000" d="M47.524 56v-5.587h1.83c.58 0 1.083.117 1.508.352.43.23.762.555.997.975.235.42.352.907.352 1.462 0 .55-.117 1.038-.352 1.463-.235.42-.568.748-.998.983-.424.234-.927.352-1.507.352h-1.83Zm.885-.788h.96c.395 0 .737-.082 1.028-.247.294-.165.522-.398.682-.698.16-.3.24-.655.24-1.065 0-.41-.083-.762-.248-1.057a1.71 1.71 0 0 0-.674-.698c-.29-.165-.633-.247-1.028-.247h-.96v4.012Zm5.034.788.375-1.305h-.9v-.75h1.11l.428-1.485h-.9v-.75h1.117l.375-1.297h.863l-.375 1.297h1.35l.367-1.297h.863l-.368 1.297h.9v.75h-1.117l-.428 1.485h.9v.75h-1.117L56.518 56h-.862l.367-1.305h-1.342L54.306 56h-.863Zm1.448-2.055h1.35l.427-1.485h-1.35l-.427 1.485Z" class="D#"/>
                </g>
                <g class="D#-Note">
                    <circle cx="234" cy="53" r="7.375" fill="#fff" stroke="#000" stroke-width=".75" class="Ellipse 8"/>
                    <path fill="#000" d="M228.524 56v-5.587h1.83c.58 0 1.083.117 1.508.352.43.23.762.555.997.975.235.42.353.907.353 1.462 0 .55-.118 1.038-.353 1.463-.235.42-.567.748-.997.983-.425.234-.928.352-1.508.352h-1.83Zm.885-.788h.96c.395 0 .738-.082 1.028-.247.295-.165.522-.398.682-.698.16-.3.24-.655.24-1.065 0-.41-.082-.762-.247-1.057-.16-.3-.385-.533-.675-.698-.29-.165-.633-.247-1.028-.247h-.96v4.012Zm5.034.788.375-1.305h-.9v-.75h1.11l.428-1.485h-.9v-.75h1.117l.375-1.297h.863l-.375 1.297h1.35l.367-1.297h.863l-.368 1.297h.9v.75h-1.117l-.428 1.485h.9v.75h-1.117L237.518 56h-.862l.367-1.305h-1.342L235.306 56h-.863Zm1.448-2.055h1.35l.427-1.485h-1.35l-.427 1.485Z" class="D#"/>
                </g>
                <g class="D#-Note">
                    <circle cx="415" cy="53" r="7.375" fill="#fff" stroke="#000" stroke-width=".75" class="Ellipse 8"/>
                    <path fill="#000" d="M409.524 56v-5.587h1.83c.58 0 1.083.117 1.508.352.43.23.762.555.997.975.235.42.353.907.353 1.462 0 .55-.118 1.038-.353 1.463-.235.42-.567.748-.997.983-.425.234-.928.352-1.508.352h-1.83Zm.885-.788h.96c.395 0 .738-.082 1.028-.247.295-.165.522-.398.682-.698.16-.3.24-.655.24-1.065 0-.41-.082-.762-.247-1.057-.16-.3-.385-.533-.675-.698-.29-.165-.633-.247-1.028-.247h-.96v4.012Zm5.034.788.375-1.305h-.9v-.75h1.11l.428-1.485h-.9v-.75h1.117l.375-1.297h.863l-.375 1.297h1.35l.367-1.297h.863l-.368 1.297h.9v.75h-1.117l-.428 1.485h.9v.75h-1.117L418.518 56h-.862l.367-1.305h-1.342L416.306 56h-.863Zm1.448-2.055h1.35l.427-1.485h-1.35l-.427 1.485Z" class="D#"/>
                </g>
            </g>
            <g class="D">
                <g class="D-Note">
                    <circle cx="40" cy="90" r="8.75" fill="#fff" stroke="#000" stroke-width="1.5" class="Ellipse 8"/>
                    <path fill="#000" d="M37.651 93v-5.96h1.952c.619 0 1.155.125 1.608.376.459.245.814.592 1.064 1.04.25.448.376.968.376 1.56 0 .587-.125 1.107-.376 1.56a2.65 2.65 0 0 1-1.064 1.048c-.453.25-.99.376-1.608.376h-1.952Zm.944-.84h1.024c.422 0 .787-.088 1.096-.264.315-.176.557-.424.728-.744.17-.32.256-.699.256-1.136 0-.437-.088-.813-.264-1.128-.17-.32-.41-.568-.72-.744-.31-.176-.675-.264-1.096-.264h-1.024v4.28Z" class="D"/>
                </g>
                <g class="D-Note">
                    <circle cx="221" cy="90" r="8.75" fill="#fff" stroke="#000" stroke-width="1.5" class="Ellipse 8"/>
                    <path fill="#000" d="M218.651 93v-5.96h1.952c.619 0 1.155.125 1.608.376.459.245.813.592 1.064 1.04.251.448.376.968.376 1.56 0 .587-.125 1.107-.376 1.56a2.648 2.648 0 0 1-1.064 1.048c-.453.25-.989.376-1.608.376h-1.952Zm.944-.84h1.024c.421 0 .787-.088 1.096-.264.315-.176.557-.424.728-.744.171-.32.256-.699.256-1.136 0-.437-.088-.813-.264-1.128a1.83 1.83 0 0 0-.72-.744c-.309-.176-.675-.264-1.096-.264h-1.024v4.28Z" class="D"/>
                </g>
                <g class="D-Note">
                    <circle cx="402" cy="90" r="8.75" fill="#fff" stroke="#000" stroke-width="1.5" class="Ellipse 8"/>
                    <path fill="#000" d="M399.651 93v-5.96h1.952c.619 0 1.155.125 1.608.376.459.245.813.592 1.064 1.04.251.448.376.968.376 1.56 0 .587-.125 1.107-.376 1.56a2.648 2.648 0 0 1-1.064 1.048c-.453.25-.989.376-1.608.376h-1.952Zm.944-.84h1.024c.421 0 .787-.088 1.096-.264.315-.176.557-.424.728-.744.171-.32.256-.699.256-1.136 0-.437-.088-.813-.264-1.128a1.83 1.83 0 0 0-.72-.744c-.309-.176-.675-.264-1.096-.264h-1.024v4.28Z" class="D"/>
                </g>
            </g>
            <g class="C#">
                <g class="C#-Note">
                    <circle cx="27" cy="53" r="7.375" fill="#fff" stroke="#000" stroke-width=".75" class="Ellipse 8"/>
                    <path fill="#000" d="M23.991 56.09a2.78 2.78 0 0 1-1.102-.218 2.74 2.74 0 0 1-.878-.6 2.877 2.877 0 0 1-.578-.914c-.14-.35-.21-.735-.21-1.155 0-.416.068-.798.203-1.148.14-.355.335-.66.585-.915.25-.26.543-.46.878-.6a2.746 2.746 0 0 1 1.102-.218c.395 0 .747.068 1.058.203.314.135.58.313.794.532.215.215.37.45.465.706l-.794.375c-.12-.3-.313-.543-.578-.728-.26-.19-.575-.285-.945-.285s-.697.087-.982.263a1.806 1.806 0 0 0-.668.727 2.4 2.4 0 0 0-.233 1.087c0 .416.078.78.233 1.096.16.31.383.552.668.727.285.17.612.255.982.255s.685-.093.945-.278a1.59 1.59 0 0 0 .578-.727l.794.375c-.095.25-.25.485-.465.705-.215.22-.48.398-.794.533-.31.135-.663.202-1.058.202Zm3.588-.09.375-1.305h-.9v-.75h1.11l.427-1.485h-.9v-.75h1.118l.375-1.297h.862l-.375 1.297h1.35l.368-1.297h.862l-.367 1.297h.9v.75h-1.118l-.427 1.485h.9v.75H31.02L30.654 56h-.863l.368-1.305h-1.343L28.441 56h-.862Zm1.447-2.055h1.35l.428-1.485h-1.35l-.428 1.485Z" class="C#"/>
                </g>
                <g class="C#-Note">
                    <circle cx="208" cy="53" r="7.375" fill="#fff" stroke="#000" stroke-width=".75" class="Ellipse 8"/>
                    <path fill="#000" d="M204.991 56.09c-.395 0-.762-.073-1.102-.218a2.742 2.742 0 0 1-.878-.6 2.876 2.876 0 0 1-.577-.914c-.14-.35-.21-.735-.21-1.155 0-.416.067-.798.202-1.148.14-.355.335-.66.585-.915.25-.26.543-.46.878-.6a2.744 2.744 0 0 1 1.102-.218c.395 0 .748.068 1.058.203.315.135.58.313.795.532.215.215.37.45.465.706l-.795.375a1.59 1.59 0 0 0-.578-.728c-.26-.19-.575-.285-.945-.285s-.697.087-.982.263a1.807 1.807 0 0 0-.668.727c-.155.31-.232.672-.232 1.087 0 .416.077.78.232 1.096.16.31.383.552.668.727.285.17.612.255.982.255s.685-.093.945-.278a1.59 1.59 0 0 0 .578-.727l.795.375c-.095.25-.25.485-.465.705a2.44 2.44 0 0 1-.795.533c-.31.135-.663.202-1.058.202Zm3.588-.09.375-1.305h-.9v-.75h1.11l.427-1.485h-.9v-.75h1.118l.375-1.297h.862l-.375 1.297h1.35l.368-1.297h.862l-.367 1.297h.9v.75h-1.118l-.427 1.485h.9v.75h-1.118L211.654 56h-.863l.368-1.305h-1.343L209.441 56h-.862Zm1.447-2.055h1.35l.428-1.485h-1.35l-.428 1.485Z" class="C#"/>
                </g>
                <g class="C#-Note">
                    <circle cx="389" cy="53" r="7.375" fill="#fff" stroke="#000" stroke-width=".75" class="Ellipse 8"/>
                    <path fill="#000" d="M385.991 56.09c-.395 0-.762-.073-1.102-.218a2.742 2.742 0 0 1-.878-.6 2.876 2.876 0 0 1-.577-.914c-.14-.35-.21-.735-.21-1.155 0-.416.067-.798.202-1.148.14-.355.335-.66.585-.915.25-.26.543-.46.878-.6a2.744 2.744 0 0 1 1.102-.218c.395 0 .748.068 1.058.203.315.135.58.313.795.532.215.215.37.45.465.706l-.795.375a1.59 1.59 0 0 0-.578-.728c-.26-.19-.575-.285-.945-.285s-.697.087-.982.263a1.807 1.807 0 0 0-.668.727c-.155.31-.232.672-.232 1.087 0 .416.077.78.232 1.096.16.31.383.552.668.727.285.17.612.255.982.255s.685-.093.945-.278a1.59 1.59 0 0 0 .578-.727l.795.375c-.095.25-.25.485-.465.705a2.44 2.44 0 0 1-.795.533c-.31.135-.663.202-1.058.202Zm3.588-.09.375-1.305h-.9v-.75h1.11l.427-1.485h-.9v-.75h1.118l.375-1.297h.862l-.375 1.297h1.35l.368-1.297h.862l-.367 1.297h.9v.75h-1.118l-.427 1.485h.9v.75h-1.118L392.654 56h-.863l.368-1.305h-1.343L390.441 56h-.862Zm1.447-2.055h1.35l.428-1.485h-1.35l-.428 1.485Z" class="C#"/>
                </g>
            </g>
            <g class="C">
                <g class="C-Note">
                    <circle cx="14" cy="90" r="8.75" fill="#fff" stroke="#000" stroke-width="1.5" class="Ellipse 8"/>
                    <path fill="#000" d="M14.283 93.096c-.422 0-.814-.077-1.176-.232a2.924 2.924 0 0 1-.936-.64 3.07 3.07 0 0 1-.616-.976 3.289 3.289 0 0 1-.224-1.232c0-.443.072-.85.216-1.224a2.877 2.877 0 0 1 2.736-1.848 2.8 2.8 0 0 1 1.128.216 2.6 2.6 0 0 1 .848.568c.229.23.394.48.496.752l-.848.4a1.694 1.694 0 0 0-.616-.776c-.278-.203-.614-.304-1.008-.304-.395 0-.744.093-1.048.28a1.927 1.927 0 0 0-.712.776c-.166.33-.248.717-.248 1.16 0 .443.082.832.248 1.168.17.33.408.59.712.776.304.181.653.272 1.048.272.394 0 .73-.099 1.008-.296.282-.197.488-.456.616-.776l.848.4a2.192 2.192 0 0 1-.496.752 2.6 2.6 0 0 1-.848.568 2.8 2.8 0 0 1-1.128.216Z" class="C"/>
                </g>
                <g class="C-Note">
                    <circle cx="195" cy="90" r="8.75" fill="#fff" stroke="#000" stroke-width="1.5" class="Ellipse 8"/>
                    <path fill="#000" d="M195.283 93.096c-.422 0-.814-.077-1.176-.232a2.909 2.909 0 0 1-.936-.64 3.052 3.052 0 0 1-.616-.976 3.275 3.275 0 0 1-.224-1.232c0-.443.072-.85.216-1.224a2.88 2.88 0 0 1 2.736-1.848c.421 0 .797.072 1.128.216.336.144.618.333.848.568.229.23.394.48.496.752l-.848.4a1.699 1.699 0 0 0-.616-.776c-.278-.203-.614-.304-1.008-.304a1.96 1.96 0 0 0-1.048.28 1.922 1.922 0 0 0-.712.776c-.166.33-.248.717-.248 1.16 0 .443.082.832.248 1.168.17.33.408.59.712.776.304.181.653.272 1.048.272.394 0 .73-.099 1.008-.296.282-.197.488-.456.616-.776l.848.4a2.208 2.208 0 0 1-.496.752c-.23.235-.512.424-.848.568a2.802 2.802 0 0 1-1.128.216Z" class="C"/>
                </g>
                <g class="C-Note">
                    <circle cx="376" cy="90" r="8.75" fill="#fff" stroke="#000" stroke-width="1.5" class="Ellipse 8"/>
                    <path fill="#000" d="M376.283 93.096c-.422 0-.814-.077-1.176-.232a2.909 2.909 0 0 1-.936-.64 3.052 3.052 0 0 1-.616-.976 3.275 3.275 0 0 1-.224-1.232c0-.443.072-.85.216-1.224a2.88 2.88 0 0 1 2.736-1.848c.421 0 .797.072 1.128.216.336.144.618.333.848.568.229.23.394.48.496.752l-.848.4a1.699 1.699 0 0 0-.616-.776c-.278-.203-.614-.304-1.008-.304a1.96 1.96 0 0 0-1.048.28 1.922 1.922 0 0 0-.712.776c-.166.33-.248.717-.248 1.16 0 .443.082.832.248 1.168.17.33.408.59.712.776.304.181.653.272 1.048.272.394 0 .73-.099 1.008-.296.282-.197.488-.456.616-.776l.848.4a2.208 2.208 0 0 1-.496.752c-.23.235-.512.424-.848.568a2.802 2.802 0 0 1-1.128.216Z" class="C"/>
                </g>
            </g>
            <g class="A#">
                <g class="A#-Note">
                    <circle cx="157" cy="53" r="7.375" fill="#fff" stroke="#000" stroke-width=".75" class="Ellipse 8"/>
                    <path fill="#000" d="m151.212 56 1.965-5.587h1.095L156.237 56h-.945l-.427-1.252h-2.273L152.157 56h-.945Zm1.635-2.04h1.748l-.99-2.925h.247l-1.005 2.925ZM157.26 56l.375-1.305h-.9v-.75h1.11l.428-1.485h-.9v-.75h1.117l.375-1.297h.863l-.375 1.297h1.35l.367-1.297h.863l-.368 1.297h.9v.75h-1.117l-.428 1.485h.9v.75h-1.117L160.335 56h-.862l.367-1.305h-1.342L158.123 56h-.863Zm1.448-2.055h1.35l.427-1.485h-1.35l-.427 1.485Z" class="A#"/>
                </g>
                <g class="A#-Note">
                    <circle cx="338" cy="53" r="7.375" fill="#fff" stroke="#000" stroke-width=".75" class="Ellipse 8"/>
                    <path fill="#000" d="m332.212 56 1.965-5.587h1.095L337.237 56h-.945l-.427-1.252h-2.273L333.157 56h-.945Zm1.635-2.04h1.748l-.99-2.925h.247l-1.005 2.925ZM338.26 56l.375-1.305h-.9v-.75h1.11l.428-1.485h-.9v-.75h1.117l.375-1.297h.863l-.375 1.297h1.35l.367-1.297h.863l-.368 1.297h.9v.75h-1.117l-.428 1.485h.9v.75h-1.117L341.335 56h-.862l.367-1.305h-1.342L339.123 56h-.863Zm1.448-2.055h1.35l.427-1.485h-1.35l-.427 1.485Z" class="A#"/>
                </g>
                <g class="A#-Note">
                    <circle cx="519" cy="53" r="7.375" fill="#fff" stroke="#000" stroke-width=".75" class="Ellipse 8"/>
                    <path fill="#000" d="m513.212 56 1.965-5.587h1.095L518.237 56h-.945l-.427-1.252h-2.273L514.157 56h-.945Zm1.635-2.04h1.748l-.99-2.925h.247l-1.005 2.925ZM519.26 56l.375-1.305h-.9v-.75h1.11l.428-1.485h-.9v-.75h1.117l.375-1.297h.863l-.375 1.297h1.35l.367-1.297h.863l-.368 1.297h.9v.75h-1.117l-.428 1.485h.9v.75h-1.117L522.335 56h-.862l.367-1.305h-1.342L520.123 56h-.863Zm1.448-2.055h1.35l.427-1.485h-1.35l-.427 1.485Z" class="A#"/>
                </g>
            </g>
            <g class="B">
                <g class="B-Note">
                    <circle cx="171" cy="90" r="8.75" fill="#fff" stroke="#000" stroke-width="1.5" class="Ellipse 8"/>
                    <path fill="#000" d="M168.846 93v-5.96h2.512c.374 0 .696.067.968.2.272.128.48.315.624.56.144.24.216.525.216.856 0 .288-.074.552-.224.792-.144.235-.37.421-.68.56v-.4c.272.107.494.243.664.408.171.16.294.341.368.544.08.203.12.416.12.64 0 .56-.184 1-.552 1.32-.362.32-.861.48-1.496.48h-2.52Zm.944-.84h1.648c.315 0 .566-.085.752-.256.187-.176.28-.408.28-.696 0-.293-.093-.525-.28-.696-.186-.176-.437-.264-.752-.264h-1.648v1.912Zm0-2.744h1.592c.256 0 .462-.072.616-.216a.774.774 0 0 0 .232-.584c0-.24-.077-.427-.232-.56-.154-.133-.36-.2-.616-.2h-1.592v1.56Z" class="B"/>
                </g>
                <g class="B-Note">
                    <circle cx="352" cy="90" r="8.75" fill="#fff" stroke="#000" stroke-width="1.5" class="Ellipse 8"/>
                    <path fill="#000" d="M349.846 93v-5.96h2.512c.374 0 .696.067.968.2.272.128.48.315.624.56.144.24.216.525.216.856 0 .288-.074.552-.224.792-.144.235-.37.421-.68.56v-.4c.272.107.494.243.664.408.171.16.294.341.368.544.08.203.12.416.12.64 0 .56-.184 1-.552 1.32-.362.32-.861.48-1.496.48h-2.52Zm.944-.84h1.648c.315 0 .566-.085.752-.256.187-.176.28-.408.28-.696 0-.293-.093-.525-.28-.696-.186-.176-.437-.264-.752-.264h-1.648v1.912Zm0-2.744h1.592c.256 0 .462-.072.616-.216a.774.774 0 0 0 .232-.584c0-.24-.077-.427-.232-.56-.154-.133-.36-.2-.616-.2h-1.592v1.56Z" class="B"/>
                </g>
                <g class="B-Note">
                    <circle cx="533" cy="90" r="8.75" fill="#fff" stroke="#000" stroke-width="1.5" class="Ellipse 8"/>
                    <path fill="#000" d="M530.846 93v-5.96h2.512c.374 0 .696.067.968.2.272.128.48.315.624.56.144.24.216.525.216.856 0 .288-.074.552-.224.792-.144.235-.37.421-.68.56v-.4c.272.107.494.243.664.408.171.16.294.341.368.544.08.203.12.416.12.64 0 .56-.184 1-.552 1.32-.362.32-.861.48-1.496.48h-2.52Zm.944-.84h1.648c.315 0 .566-.085.752-.256.187-.176.28-.408.28-.696 0-.293-.093-.525-.28-.696-.186-.176-.437-.264-.752-.264h-1.648v1.912Zm0-2.744h1.592c.256 0 .462-.072.616-.216a.774.774 0 0 0 .232-.584c0-.24-.077-.427-.232-.56-.154-.133-.36-.2-.616-.2h-1.592v1.56Z" class="B"/>
                </g>
            </g>
            <g class="A">
                <g class="A-Note">
                    <circle cx="144" cy="90" r="8.75" fill="#fff" stroke="#000" stroke-width="1.5" class="Ellipse 8"/>
                    <path fill="#000" d="m141.318 93 2.096-5.96h1.168l2.096 5.96h-1.008l-.456-1.336h-2.424L142.326 93h-1.008Zm1.744-2.176h1.864l-1.056-3.12h.264l-1.072 3.12Z" class="A"/>
                </g>
                <g class="A-Note">
                    <circle cx="325" cy="90" r="8.75" fill="#fff" stroke="#000" stroke-width="1.5" class="Ellipse 8"/>
                    <path fill="#000" d="m322.318 93 2.096-5.96h1.168l2.096 5.96h-1.008l-.456-1.336h-2.424L323.326 93h-1.008Zm1.744-2.176h1.864l-1.056-3.12h.264l-1.072 3.12Z" class="A"/>
                </g>
                <g class="A-Note">
                    <circle cx="506" cy="90" r="8.75" fill="#fff" stroke="#000" stroke-width="1.5" class="Ellipse 8"/>
                    <path fill="#000" d="m503.318 93 2.096-5.96h1.168l2.096 5.96h-1.008l-.456-1.336h-2.424L504.326 93h-1.008Zm1.744-2.176h1.864l-1.056-3.12h.264l-1.072 3.12Z" class="A"/>
                </g>
            </g>
        </g>
    </g>
</svg>